SplineFontDB: 3.0
FontName: Suranna
FullName: Suranna
FamilyName: Suranna
Weight: Book
Copyright: Copyright (c) 2012 Andhrapradesh Society for Knowledge Networks (fonts.siliconandhra.org)
Version: 1.0.3
ItalicAngle: 0
UnderlinePosition: -532
UnderlineWidth: 20
Ascent: 624
Descent: 156
InvalidEm: 0
sfntRevision: 0x00010000
LayerCount: 2
Layer: 0 1 "Back" 1
Layer: 1 1 "Fore" 0
XUID: [1021 184 -1251295923 4161942]
FSType: 0
OS2Version: 3
OS2_WeightWidthSlopeOnly: 0
OS2_UseTypoMetrics: 1
CreationTime: 1341100800
ModificationTime: 1418253247
PfmFamily: 17
TTFWeight: 400
TTFWidth: 5
LineGap: 0
VLineGap: 0
Panose: 2 0 6 0 0 0 0 0 0 0
OS2TypoAscent: 1101
OS2TypoAOffset: 0
OS2TypoDescent: -607
OS2TypoDOffset: 0
OS2TypoLinegap: 0
OS2WinAscent: 1101
OS2WinAOffset: 0
OS2WinDescent: 607
OS2WinDOffset: 0
HheadAscent: 1101
HheadAOffset: 0
HheadDescent: -607
HheadDOffset: 0
OS2SubXSize: 717
OS2SubYSize: 666
OS2SubXOff: 0
OS2SubYOff: 205
OS2SupXSize: 717
OS2SupYSize: 666
OS2SupXOff: 0
OS2SupYOff: 512
OS2StrikeYSize: 50
OS2StrikeYPos: 250
OS2CapHeight: 0
OS2XHeight: 0
OS2Vendor: 'GPK '
OS2CodePages: 00000001.00000000
OS2UnicodeRanges: 80200003.00000000.00000000.00000000
Lookup: 4 0 0 "'akhn' Akhand in Telugu lookup 0" { "'akhn' Akhand in Telugu lookup 0 subtable"  } ['akhn' ('telu' <'dflt' > ) ]
Lookup: 4 0 0 "'blwf' Below Base Forms in Telugu lookup 1" { "'blwf' Below Base Forms in Telugu lookup 1 subtable"  } ['blwf' ('telu' <'dflt' > ) ]
Lookup: 4 0 0 "'psts' Post Base Substitutions in Telugu lookup 2" { "'psts' Post Base Substitutions in Telugu lookup 2 subtable"  } ['psts' ('telu' <'dflt' > ) ]
Lookup: 4 0 0 "'blwf' Below Base Forms in Telugu lookup 3" { "'blwf' Below Base Forms in Telugu lookup 3 subtable"  } ['blwf' ('telu' <'dflt' > ) ]
Lookup: 4 0 0 "'abvs' Above Base Substitutions in Telugu lookup 4" { "'abvs' Above Base Substitutions in Telugu lookup 4 subtable"  } ['abvs' ('telu' <'dflt' > ) ]

StartChar: U0C15_U0C4D_U0C37_U0C4D_U0C30_U
Encoding: 65536 -1 0
Width: 880
GlyphClass: 2
Flags: W
LayerCount: 2
Back
Fore
SplineSet
110 -344 m 1,0,-1
 110 418 l 1,1,-1
 764 418 l 1,2,-1
 764 -344 l 1,3,-1
 110 -344 l 1,0,-1
159 -297 m 1,4,-1
 715 -297 l 1,5,-1
 715 371 l 1,6,-1
 159 371 l 1,7,-1
 159 -297 l 1,4,-1
EndSplineSet
EndChar

StartChar: exclam
Encoding: 33 33 4
Width: 153
VWidth: 600
GlyphClass: 2
Flags: W
LayerCount: 2
Back
Fore
SplineSet
76.7998046875 -6 m 128,-1,1
 61.7998046875 -6 61.7998046875 -6 51.599609375 4.5 c 128,-1,2
 41.400390625 15 41.400390625 15 41.400390625 30 c 128,-1,3
 41.400390625 45 41.400390625 45 51.599609375 54.900390625 c 128,-1,4
 61.7998046875 64.7998046875 61.7998046875 64.7998046875 76.7998046875 64.7998046875 c 128,-1,5
 91.7998046875 64.7998046875 91.7998046875 64.7998046875 102 54.900390625 c 128,-1,6
 112.200195312 45 112.200195312 45 112.200195312 30 c 128,-1,7
 112.200195312 15 112.200195312 15 102 4.5 c 128,-1,0
 91.7998046875 -6 91.7998046875 -6 76.7998046875 -6 c 128,-1,1
84 99 m 1,8,-1
 69.599609375 99 l 1,9,10
 68.400390625 185.400390625 68.400390625 185.400390625 56.099609375 305.099609375 c 128,-1,11
 43.7998046875 424.799804688 43.7998046875 424.799804688 43.7998046875 444.900390625 c 128,-1,12
 43.7998046875 465 43.7998046875 465 52.7998046875 475.5 c 128,-1,13
 61.7998046875 486 61.7998046875 486 76.7998046875 486 c 128,-1,14
 91.7998046875 486 91.7998046875 486 100.799804688 475.5 c 128,-1,15
 109.799804688 465 109.799804688 465 109.799804688 444.599609375 c 128,-1,16
 109.799804688 424.200195312 109.799804688 424.200195312 97.7998046875 304.5 c 128,-1,17
 85.7998046875 184.799804688 85.7998046875 184.799804688 84 99 c 1,8,-1
EndSplineSet
Colour: ff0000
EndChar

StartChar: numbersign
Encoding: 35 35 6
Width: 348
VWidth: 600
GlyphClass: 2
Flags: W
LayerCount: 2
Back
Fore
SplineSet
41.400390625 229.799804688 m 1,0,-1
 41.400390625 256.799804688 l 1,1,-1
 108 256.799804688 l 1,2,-1
 140.400390625 429 l 1,3,-1
 168 429 l 1,4,-1
 135 256.799804688 l 1,5,-1
 228 256.799804688 l 1,6,-1
 260.400390625 429 l 1,7,-1
 288 429 l 1,8,-1
 255 256.799804688 l 1,9,-1
 324.599609375 256.799804688 l 1,10,-1
 324.599609375 229.799804688 l 1,11,-1
 250.200195312 229.799804688 l 1,12,-1
 235.799804688 153 l 1,13,-1
 304.799804688 153 l 1,14,-1
 304.799804688 126 l 1,15,-1
 230.400390625 126 l 1,16,-1
 207 0 l 1,17,-1
 180 0 l 1,18,-1
 203.400390625 126 l 1,19,-1
 110.400390625 126 l 1,20,-1
 87 0 l 1,21,-1
 60 0 l 1,22,-1
 83.400390625 126 l 1,23,-1
 21.599609375 126 l 1,24,-1
 21.599609375 153 l 1,25,-1
 88.7998046875 153 l 1,26,-1
 103.200195312 229.799804688 l 1,27,-1
 41.400390625 229.799804688 l 1,0,-1
130.200195312 229.799804688 m 1,28,-1
 115.799804688 153 l 1,29,-1
 208.799804688 153 l 1,30,-1
 223.200195312 229.799804688 l 1,31,-1
 130.200195312 229.799804688 l 1,28,-1
EndSplineSet
Colour: ff0000
EndChar

StartChar: dollar
Encoding: 36 36 7
Width: 394
VWidth: 600
GlyphClass: 2
Flags: W
LayerCount: 2
Back
Fore
SplineSet
213 -12 m 1,0,-1
 204.599609375 -11.400390625 l 1,1,-1
 204.599609375 -63 l 1,2,-1
 194.400390625 -63 l 1,3,-1
 194.400390625 -10.7998046875 l 1,4,5
 147 -6.599609375 147 -6.599609375 103.200195312 19.7998046875 c 1,6,-1
 52.2001953125 -6 l 1,7,-1
 39 -6 l 1,8,-1
 39 148.200195312 l 1,9,-1
 52.2001953125 148.200195312 l 1,10,-1
 103.799804688 36.599609375 l 1,11,12
 145.200195312 7.7998046875 145.200195312 7.7998046875 194.400390625 2.400390625 c 1,13,-1
 194.400390625 215.400390625 l 1,14,-1
 145.799804688 228 l 2,15,16
 93.599609375 241.799804688 93.599609375 241.799804688 67.2001953125 273.900390625 c 128,-1,17
 40.7998046875 306 40.7998046875 306 40.7998046875 351 c 0,18,19
 40.7998046875 414.599609375 40.7998046875 414.599609375 78 453.299804688 c 128,-1,20
 115.200195312 492 115.200195312 492 181.200195312 492 c 0,21,22
 189.599609375 492 189.599609375 492 194.400390625 491.400390625 c 1,23,-1
 194.400390625 537 l 1,24,-1
 204.599609375 537 l 1,25,-1
 204.599609375 490.799804688 l 1,26,27
 207.599609375 490.799804688 207.599609375 490.799804688 216 489.599609375 c 1,28,-1
 216 537 l 1,29,-1
 225.599609375 537 l 1,30,-1
 225.599609375 488.400390625 l 1,31,32
 253.799804688 483.599609375 253.799804688 483.599609375 279 473.400390625 c 1,33,-1
 322.799804688 492 l 1,34,-1
 336 492 l 1,35,-1
 336 369.599609375 l 1,36,-1
 322.799804688 369.599609375 l 1,37,-1
 279.599609375 457.200195312 l 1,38,39
 254.400390625 469.200195312 254.400390625 469.200195312 225.599609375 474.599609375 c 1,40,-1
 225.599609375 280.200195312 l 1,41,-1
 261 271.200195312 l 2,42,43
 313.799804688 257.400390625 313.799804688 257.400390625 339 226.5 c 128,-1,44
 364.200195312 195.599609375 364.200195312 195.599609375 364.200195312 131.099609375 c 128,-1,45
 364.200195312 66.599609375 364.200195312 66.599609375 326.700195312 29.099609375 c 128,-1,46
 289.200195312 -8.400390625 289.200195312 -8.400390625 225.599609375 -11.400390625 c 1,47,-1
 225.599609375 -63 l 1,48,-1
 216 -63 l 1,49,-1
 216 -12 l 1,50,-1
 213 -12 l 1,0,-1
69.599609375 381.599609375 m 0,51,52
 69.599609375 321 69.599609375 321 153.599609375 299.400390625 c 2,53,-1
 194.400390625 288.599609375 l 1,54,-1
 194.400390625 478.200195312 l 1,55,56
 190.200195312 478.799804688 190.200195312 478.799804688 181.799804688 478.799804688 c 0,57,58
 129.599609375 478.799804688 129.599609375 478.799804688 99.599609375 452.099609375 c 128,-1,59
 69.599609375 425.400390625 69.599609375 425.400390625 69.599609375 381.599609375 c 0,51,52
245.400390625 202.200195312 m 2,60,-1
 225.599609375 207 l 1,61,-1
 225.599609375 1.2001953125 l 1,62,63
 276 3.599609375 276 3.599609375 307.799804688 31.2001953125 c 128,-1,64
 339.599609375 58.7998046875 339.599609375 58.7998046875 339.599609375 107.400390625 c 0,65,66
 339.599609375 144.599609375 339.599609375 144.599609375 317.099609375 167.099609375 c 128,-1,67
 294.599609375 189.599609375 294.599609375 189.599609375 245.400390625 202.200195312 c 2,60,-1
204.599609375 1.7998046875 m 1,68,69
 208.200195312 1.2001953125 208.200195312 1.2001953125 216 1.2001953125 c 1,70,-1
 216 209.400390625 l 1,71,-1
 204.599609375 212.400390625 l 1,72,-1
 204.599609375 1.7998046875 l 1,68,69
216 476.400390625 m 1,73,-1
 204.599609375 477.599609375 l 1,74,-1
 204.599609375 285.599609375 l 1,75,-1
 216 282.599609375 l 1,76,-1
 216 476.400390625 l 1,73,-1
EndSplineSet
Colour: ff0000
EndChar

StartChar: percent
Encoding: 37 37 8
Width: 495
VWidth: 600
GlyphClass: 2
Flags: W
LayerCount: 2
Back
Fore
SplineSet
378.599609375 -3 m 256,0,1
 335.400390625 -3 335.400390625 -3 309.299804688 30.599609375 c 128,-1,2
 283.200195312 64.2001953125 283.200195312 64.2001953125 283.200195312 127.799804688 c 256,3,4
 283.200195312 191.400390625 283.200195312 191.400390625 309.299804688 224.700195312 c 128,-1,5
 335.400390625 258 335.400390625 258 378.599609375 258 c 256,6,7
 421.799804688 258 421.799804688 258 447.599609375 224.700195312 c 128,-1,8
 473.400390625 191.400390625 473.400390625 191.400390625 473.400390625 127.799804688 c 256,9,10
 473.400390625 64.2001953125 473.400390625 64.2001953125 447.599609375 30.599609375 c 128,-1,11
 421.799804688 -3 421.799804688 -3 378.599609375 -3 c 256,0,1
427.200195312 97.2001953125 m 2,12,-1
 427.200195312 158.400390625 l 2,13,14
 427.200195312 245.400390625 427.200195312 245.400390625 378.599609375 245.400390625 c 256,15,16
 330 245.400390625 330 245.400390625 330 158.400390625 c 2,17,-1
 330 97.2001953125 l 2,18,19
 330 10.2001953125 330 10.2001953125 378.599609375 10.2001953125 c 256,20,21
 427.200195312 10.2001953125 427.200195312 10.2001953125 427.200195312 97.2001953125 c 2,12,-1
116.400390625 222 m 256,22,23
 73.2001953125 222 73.2001953125 222 47.400390625 255.599609375 c 128,-1,24
 21.599609375 289.200195312 21.599609375 289.200195312 21.599609375 352.799804688 c 256,25,26
 21.599609375 416.400390625 21.599609375 416.400390625 47.400390625 449.700195312 c 128,-1,27
 73.2001953125 483 73.2001953125 483 116.400390625 483 c 256,28,29
 159.599609375 483 159.599609375 483 185.700195312 449.700195312 c 128,-1,30
 211.799804688 416.400390625 211.799804688 416.400390625 211.799804688 352.799804688 c 256,31,32
 211.799804688 289.200195312 211.799804688 289.200195312 185.700195312 255.599609375 c 128,-1,33
 159.599609375 222 159.599609375 222 116.400390625 222 c 256,22,23
165 322.200195312 m 2,34,-1
 165 383.400390625 l 2,35,36
 165 470.400390625 165 470.400390625 116.400390625 470.400390625 c 256,37,38
 67.7998046875 470.400390625 67.7998046875 470.400390625 67.7998046875 383.400390625 c 2,39,-1
 67.7998046875 322.200195312 l 2,40,41
 67.7998046875 235.200195312 67.7998046875 235.200195312 116.400390625 235.200195312 c 256,42,43
 165 235.200195312 165 235.200195312 165 322.200195312 c 2,34,-1
382.799804688 480 m 1,44,-1
 143.400390625 0 l 1,45,-1
 112.200195312 0 l 1,46,-1
 352.200195312 480 l 1,47,-1
 382.799804688 480 l 1,44,-1
EndSplineSet
Colour: ff0000
EndChar

StartChar: ampersand
Encoding: 38 38 9
Width: 490
VWidth: 600
GlyphClass: 2
Flags: W
LayerCount: 2
Back
Fore
SplineSet
265.200195312 173.400390625 m 0,0,1
 205.200195312 173.400390625 205.200195312 173.400390625 205.200195312 140.400390625 c 0,2,3
 205.200195312 123.599609375 205.200195312 123.599609375 224.400390625 123.599609375 c 128,-1,4
 243.599609375 123.599609375 243.599609375 123.599609375 251.400390625 139.799804688 c 1,5,6
 280.799804688 132.599609375 280.799804688 132.599609375 280.799804688 106.799804688 c 0,7,8
 280.799804688 92.400390625 280.799804688 92.400390625 270.299804688 81.599609375 c 128,-1,9
 259.799804688 70.7998046875 259.799804688 70.7998046875 240.599609375 70.7998046875 c 128,-1,10
 221.400390625 70.7998046875 221.400390625 70.7998046875 206.400390625 90.599609375 c 128,-1,11
 191.400390625 110.400390625 191.400390625 110.400390625 191.400390625 142.799804688 c 128,-1,12
 191.400390625 175.200195312 191.400390625 175.200195312 217.200195312 200.400390625 c 128,-1,13
 243 225.599609375 243 225.599609375 287.400390625 225.599609375 c 0,14,15
 315 225.599609375 315 225.599609375 351 219.900390625 c 128,-1,16
 387 214.200195312 387 214.200195312 410.099609375 214.200195312 c 128,-1,17
 433.200195312 214.200195312 433.200195312 214.200195312 450.299804688 222.900390625 c 128,-1,18
 467.400390625 231.599609375 467.400390625 231.599609375 467.400390625 247.200195312 c 0,19,20
 467.400390625 264.599609375 467.400390625 264.599609375 448.5 264.599609375 c 128,-1,21
 429.599609375 264.599609375 429.599609375 264.599609375 421.799804688 247.799804688 c 1,22,23
 392.400390625 254.400390625 392.400390625 254.400390625 392.400390625 280.799804688 c 0,24,25
 392.400390625 295.200195312 392.400390625 295.200195312 402.900390625 306 c 128,-1,26
 413.400390625 316.799804688 413.400390625 316.799804688 432.599609375 316.799804688 c 128,-1,27
 451.799804688 316.799804688 451.799804688 316.799804688 465.900390625 299.099609375 c 128,-1,28
 480 281.400390625 480 281.400390625 480 253.799804688 c 0,29,30
 480 159.599609375 480 159.599609375 390 159.599609375 c 0,31,32
 364.200195312 159.599609375 364.200195312 159.599609375 347.400390625 162 c 1,33,34
 352.200195312 138 352.200195312 138 352.200195312 118.200195312 c 0,35,36
 352.200195312 56.400390625 352.200195312 56.400390625 317.400390625 22.2001953125 c 128,-1,37
 282.599609375 -12 282.599609375 -12 223.200195312 -12 c 0,38,39
 126 -12 126 -12 78.2998046875 26.7001953125 c 128,-1,40
 30.599609375 65.400390625 30.599609375 65.400390625 30.599609375 129.599609375 c 128,-1,41
 30.599609375 193.799804688 30.599609375 193.799804688 76.5 228.299804688 c 128,-1,42
 122.400390625 262.799804688 122.400390625 262.799804688 196.799804688 266.400390625 c 1,43,-1
 196.799804688 268.200195312 l 1,44,45
 122.400390625 277.799804688 122.400390625 277.799804688 86.7001953125 303.900390625 c 128,-1,46
 51 330 51 330 51 383.700195312 c 128,-1,47
 51 437.400390625 51 437.400390625 91.5 464.700195312 c 128,-1,48
 132 492 132 492 204.599609375 492 c 0,49,50
 253.200195312 492 253.200195312 492 285.900390625 468.599609375 c 128,-1,51
 318.599609375 445.200195312 318.599609375 445.200195312 318.599609375 406.200195312 c 0,52,53
 318.599609375 386.400390625 318.599609375 386.400390625 307.5 375.299804688 c 128,-1,54
 296.400390625 364.200195312 296.400390625 364.200195312 281.700195312 364.200195312 c 128,-1,55
 267 364.200195312 267 364.200195312 256.799804688 373.200195312 c 128,-1,56
 246.599609375 382.200195312 246.599609375 382.200195312 246.599609375 399.599609375 c 1,57,58
 271.799804688 411 271.799804688 411 271.799804688 437.400390625 c 0,59,60
 271.799804688 456 271.799804688 456 255.599609375 467.099609375 c 128,-1,61
 239.400390625 478.200195312 239.400390625 478.200195312 211.200195312 478.200195312 c 0,62,63
 170.400390625 478.200195312 170.400390625 478.200195312 146.099609375 454.200195312 c 128,-1,64
 121.799804688 430.200195312 121.799804688 430.200195312 121.799804688 390 c 0,65,66
 121.799804688 332.400390625 121.799804688 332.400390625 155.700195312 305.099609375 c 128,-1,67
 189.599609375 277.799804688 189.599609375 277.799804688 255 274.200195312 c 1,68,-1
 255 261 l 1,69,70
 112.799804688 252 112.799804688 252 112.799804688 130.799804688 c 0,71,72
 112.799804688 70.7998046875 112.799804688 70.7998046875 145.5 36.2998046875 c 128,-1,73
 178.200195312 1.7998046875 178.200195312 1.7998046875 227.400390625 1.7998046875 c 128,-1,74
 276.599609375 1.7998046875 276.599609375 1.7998046875 307.200195312 31.5 c 128,-1,75
 337.799804688 61.2001953125 337.799804688 61.2001953125 337.799804688 117 c 0,76,77
 337.799804688 139.200195312 337.799804688 139.200195312 331.200195312 164.400390625 c 1,78,79
 322.799804688 165.599609375 322.799804688 165.599609375 308.400390625 168 c 0,80,81
 282 173.400390625 282 173.400390625 265.200195312 173.400390625 c 0,0,1
EndSplineSet
Colour: ff0000
EndChar

StartChar: quotesingle
Encoding: 39 39 10
Width: 97
VWidth: 600
GlyphClass: 2
Flags: W
LayerCount: 2
Back
Fore
SplineSet
54 339 m 1,0,-1
 43.7998046875 339 l 1,1,2
 40.7998046875 378.599609375 40.7998046875 378.599609375 33.599609375 414.900390625 c 128,-1,3
 26.400390625 451.200195312 26.400390625 451.200195312 26.400390625 461.400390625 c 128,-1,4
 26.400390625 471.599609375 26.400390625 471.599609375 32.099609375 478.799804688 c 128,-1,5
 37.7998046875 486 37.7998046875 486 48.599609375 486 c 128,-1,6
 59.400390625 486 59.400390625 486 65.400390625 478.799804688 c 128,-1,7
 71.400390625 471.599609375 71.400390625 471.599609375 71.400390625 461.400390625 c 128,-1,8
 71.400390625 451.200195312 71.400390625 451.200195312 64.2001953125 414.900390625 c 128,-1,9
 57 378.599609375 57 378.599609375 54 339 c 1,0,-1
EndSplineSet
Colour: ff0000
EndChar

StartChar: parenleft
Encoding: 40 40 11
Width: 206
VWidth: 600
GlyphClass: 2
Flags: W
LayerCount: 2
Back
Fore
SplineSet
94.2001953125 213.599609375 m 0,0,1
 94.2001953125 142.200195312 94.2001953125 142.200195312 105.299804688 83.7001953125 c 128,-1,2
 116.400390625 25.2001953125 116.400390625 25.2001953125 134.400390625 -12 c 0,3,4
 169.200195312 -82.7998046875 169.200195312 -82.7998046875 210 -102.599609375 c 1,5,-1
 206.400390625 -117 l 1,6,7
 121.200195312 -92.400390625 121.200195312 -92.400390625 71.7001953125 -3.599609375 c 128,-1,8
 22.2001953125 85.2001953125 22.2001953125 85.2001953125 22.2001953125 213.900390625 c 128,-1,9
 22.2001953125 342.599609375 22.2001953125 342.599609375 71.400390625 431.099609375 c 128,-1,10
 120.599609375 519.599609375 120.599609375 519.599609375 205.799804688 544.200195312 c 1,11,-1
 210 530.400390625 l 1,12,13
 94.2001953125 488.400390625 94.2001953125 488.400390625 94.2001953125 213.599609375 c 0,0,1
EndSplineSet
Colour: ff0000
EndChar

StartChar: asterisk
Encoding: 42 42 13
Width: 270
VWidth: 600
GlyphClass: 2
Flags: W
LayerCount: 2
Back
Fore
SplineSet
131.400390625 345 m 1,0,-1
 118.799804688 436.200195312 l 2,1,2
 118.799804688 443.400390625 118.799804688 443.400390625 123.299804688 448.200195312 c 128,-1,3
 127.799804688 453 127.799804688 453 135 453 c 128,-1,4
 142.200195312 453 142.200195312 453 146.700195312 448.200195312 c 128,-1,5
 151.200195312 443.400390625 151.200195312 443.400390625 151.200195312 436.799804688 c 128,-1,6
 151.200195312 430.200195312 151.200195312 430.200195312 145.200195312 390.900390625 c 128,-1,7
 139.200195312 351.599609375 139.200195312 351.599609375 139.200195312 345 c 1,8,9
 144.599609375 348 144.599609375 348 175.5 372.900390625 c 128,-1,10
 206.400390625 397.799804688 206.400390625 397.799804688 212.099609375 401.099609375 c 128,-1,11
 217.799804688 404.400390625 217.799804688 404.400390625 223.5 404.400390625 c 128,-1,12
 229.200195312 404.400390625 229.200195312 404.400390625 233.099609375 397.799804688 c 128,-1,13
 237 391.200195312 237 391.200195312 237 388.200195312 c 0,14,15
 237 377.400390625 237 377.400390625 228 373.200195312 c 0,16,17
 222.599609375 369.599609375 222.599609375 369.599609375 185.700195312 355.799804688 c 128,-1,18
 148.799804688 342 148.799804688 342 143.400390625 338.400390625 c 1,19,20
 148.799804688 334.799804688 148.799804688 334.799804688 185.400390625 320.400390625 c 128,-1,21
 222 306 222 306 229.5 301.799804688 c 128,-1,22
 237 297.599609375 237 297.599609375 237 291.599609375 c 128,-1,23
 237 285.599609375 237 285.599609375 233.400390625 279 c 128,-1,24
 229.799804688 272.400390625 229.799804688 272.400390625 223.5 272.400390625 c 128,-1,25
 217.200195312 272.400390625 217.200195312 272.400390625 211.799804688 275.400390625 c 128,-1,26
 206.400390625 278.400390625 206.400390625 278.400390625 175.799804688 303.299804688 c 128,-1,27
 145.200195312 328.200195312 145.200195312 328.200195312 139.200195312 331.200195312 c 1,28,-1
 151.799804688 240.599609375 l 2,29,30
 151.799804688 233.400390625 151.799804688 233.400390625 147.299804688 228.599609375 c 128,-1,31
 142.799804688 223.799804688 142.799804688 223.799804688 135.599609375 223.799804688 c 0,32,33
 119.400390625 225 119.400390625 225 119.400390625 240.599609375 c 0,34,35
 119.400390625 246 119.400390625 246 125.400390625 285.299804688 c 128,-1,36
 131.400390625 324.599609375 131.400390625 324.599609375 131.400390625 331.200195312 c 1,37,38
 126 328.200195312 126 328.200195312 95.099609375 303.299804688 c 128,-1,39
 64.2001953125 278.400390625 64.2001953125 278.400390625 59.7001953125 275.700195312 c 128,-1,40
 55.2001953125 273 55.2001953125 273 49.2001953125 273 c 128,-1,41
 43.2001953125 273 43.2001953125 273 38.7001953125 277.5 c 128,-1,42
 34.2001953125 282 34.2001953125 282 34.2001953125 290.099609375 c 128,-1,43
 34.2001953125 298.200195312 34.2001953125 298.200195312 41.400390625 302.099609375 c 128,-1,44
 48.599609375 306 48.599609375 306 85.2001953125 320.400390625 c 128,-1,45
 121.799804688 334.799804688 121.799804688 334.799804688 127.200195312 338.400390625 c 1,46,47
 121.799804688 342 121.799804688 342 84.900390625 355.799804688 c 128,-1,48
 48 369.599609375 48 369.599609375 42.599609375 373.200195312 c 0,49,50
 33.599609375 378 33.599609375 378 33.599609375 386.099609375 c 128,-1,51
 33.599609375 394.200195312 33.599609375 394.200195312 38.400390625 398.700195312 c 128,-1,52
 43.2001953125 403.200195312 43.2001953125 403.200195312 48.900390625 403.200195312 c 128,-1,53
 54.599609375 403.200195312 54.599609375 403.200195312 59.400390625 400.5 c 128,-1,54
 64.2001953125 397.799804688 64.2001953125 397.799804688 95.099609375 372.900390625 c 128,-1,55
 126 348 126 348 131.400390625 345 c 1,0,-1
EndSplineSet
Colour: ff0000
EndChar

StartChar: plus
Encoding: 43 43 14
Width: 315
VWidth: 600
GlyphClass: 2
Flags: W
LayerCount: 2
Back
Fore
SplineSet
145.799804688 351.599609375 m 1,0,-1
 168.599609375 351.599609375 l 1,1,-1
 168.599609375 225.599609375 l 1,2,-1
 295.200195312 225.599609375 l 1,3,-1
 295.200195312 202.799804688 l 1,4,-1
 168.599609375 202.799804688 l 1,5,-1
 168.599609375 76.2001953125 l 1,6,-1
 145.799804688 76.2001953125 l 1,7,-1
 145.799804688 202.799804688 l 1,8,-1
 19.7998046875 202.799804688 l 1,9,-1
 19.7998046875 225.599609375 l 1,10,-1
 145.799804688 225.599609375 l 1,11,-1
 145.799804688 351.599609375 l 1,0,-1
EndSplineSet
Colour: ff0000
EndChar

StartChar: comma
Encoding: 44 44 15
Width: 136
VWidth: 600
GlyphClass: 2
Flags: W
LayerCount: 2
Back
Fore
SplineSet
36 -97.2001953125 m 1,0,-1
 29.400390625 -87.599609375 l 1,1,2
 48 -76.7998046875 48 -76.7998046875 58.2001953125 -62.400390625 c 0,3,4
 76.7998046875 -37.2001953125 76.7998046875 -37.2001953125 76.7998046875 -18 c 0,5,6
 76.7998046875 -6 76.7998046875 -6 63.2998046875 -6 c 128,-1,7
 49.7998046875 -6 49.7998046875 -6 39.2998046875 4.5 c 128,-1,8
 28.7998046875 15 28.7998046875 15 28.7998046875 30 c 256,9,10
 28.7998046875 45 28.7998046875 45 39.2998046875 54.900390625 c 128,-1,11
 49.7998046875 64.7998046875 49.7998046875 64.7998046875 67.7998046875 64.7998046875 c 128,-1,12
 85.7998046875 64.7998046875 85.7998046875 64.7998046875 98.099609375 49.7998046875 c 128,-1,13
 110.400390625 34.7998046875 110.400390625 34.7998046875 110.400390625 9.599609375 c 0,14,15
 110.400390625 -60.599609375 110.400390625 -60.599609375 36 -97.2001953125 c 1,0,-1
EndSplineSet
Colour: ff0000
EndChar

StartChar: hyphen
Encoding: 45 45 16
Width: 205
VWidth: 600
GlyphClass: 2
Flags: W
LayerCount: 2
Back
Fore
SplineSet
37.2001953125 154.200195312 m 1,0,-1
 37.2001953125 174 l 1,1,-1
 168.599609375 174 l 1,2,-1
 168.599609375 154.200195312 l 1,3,-1
 37.2001953125 154.200195312 l 1,0,-1
EndSplineSet
Colour: ff0000
EndChar

StartChar: period
Encoding: 46 46 17
Width: 129
VWidth: 600
GlyphClass: 2
Flags: W
LayerCount: 2
Back
Fore
SplineSet
39 4.2001953125 m 256,0,1
 28.7998046875 14.400390625 28.7998046875 14.400390625 28.7998046875 29.7001953125 c 128,-1,2
 28.7998046875 45 28.7998046875 45 39.900390625 54.900390625 c 128,-1,3
 51 64.7998046875 51 64.7998046875 64.7998046875 64.7998046875 c 256,4,5
 78.599609375 64.7998046875 78.599609375 64.7998046875 89.400390625 54.900390625 c 128,-1,6
 100.200195312 45 100.200195312 45 100.200195312 30 c 256,7,8
 100.200195312 15 100.200195312 15 90 4.5 c 128,-1,9
 79.7998046875 -6 79.7998046875 -6 64.5 -6 c 128,-1,10
 49.2001953125 -6 49.2001953125 -6 39 4.2001953125 c 256,0,1
EndSplineSet
Colour: ff0000
EndChar

StartChar: slash
Encoding: 47 47 18
Width: 261
VWidth: 600
GlyphClass: 2
Flags: W
LayerCount: 2
Back
Fore
SplineSet
236.400390625 420 m 1,0,-1
 50.400390625 0 l 1,1,-1
 19.2001953125 0 l 1,2,-1
 205.799804688 420 l 1,3,-1
 236.400390625 420 l 1,0,-1
EndSplineSet
Colour: ff0000
EndChar

StartChar: zero
Encoding: 48 48 19
Width: 414
VWidth: 600
GlyphClass: 2
Flags: W
LayerCount: 2
Back
Fore
SplineSet
333.599609375 52.5 m 128,-1,1
 286.799804688 -12 286.799804688 -12 207 -12 c 0,2,3
 126 -12 126 -12 80.400390625 52.7998046875 c 0,4,5
 33.599609375 118.799804688 33.599609375 118.799804688 33.599609375 240 c 256,6,7
 33.599609375 361.200195312 33.599609375 361.200195312 80.400390625 427.799804688 c 0,8,9
 126 492 126 492 207 492 c 0,10,11
 286.799804688 492 286.799804688 492 333 427.799804688 c 0,12,13
 380.400390625 361.799804688 380.400390625 361.799804688 380.400390625 239.400390625 c 128,-1,0
 380.400390625 117 380.400390625 117 333.599609375 52.5 c 128,-1,1
303.599609375 182.400390625 m 2,14,-1
 303.599609375 298.200195312 l 2,15,16
 303.599609375 390.599609375 303.599609375 390.599609375 277.799804688 434.400390625 c 128,-1,17
 252 478.200195312 252 478.200195312 207 478.200195312 c 256,18,19
 162 478.200195312 162 478.200195312 136.200195312 434.400390625 c 128,-1,20
 110.400390625 390.599609375 110.400390625 390.599609375 110.400390625 298.200195312 c 2,21,-1
 110.400390625 182.400390625 l 2,22,23
 110.400390625 90 110.400390625 90 136.200195312 45.900390625 c 128,-1,24
 162 1.7998046875 162 1.7998046875 207 1.7998046875 c 256,25,26
 252 1.7998046875 252 1.7998046875 277.799804688 45.2998046875 c 128,-1,27
 303.599609375 88.7998046875 303.599609375 88.7998046875 303.599609375 182.400390625 c 2,14,-1
EndSplineSet
Colour: ff0000
EndChar

StartChar: one
Encoding: 49 49 20
Width: 204
VWidth: 600
GlyphClass: 2
Flags: W
LayerCount: 2
Back
Fore
SplineSet
31.2001953125 468 m 1,0,-1
 31.2001953125 480 l 1,1,-1
 133.200195312 480 l 1,2,-1
 133.200195312 18 l 1,3,-1
 175.200195312 12 l 1,4,-1
 175.200195312 0 l 1,5,-1
 31.2001953125 0 l 1,6,-1
 31.2001953125 12 l 1,7,-1
 73.2001953125 18 l 1,8,-1
 73.2001953125 462 l 1,9,-1
 31.2001953125 468 l 1,0,-1
EndSplineSet
Colour: ff0000
EndChar

StartChar: two
Encoding: 50 50 21
Width: 364
VWidth: 600
GlyphClass: 2
Flags: W
LayerCount: 2
Back
Fore
SplineSet
323.400390625 151.799804688 m 1,0,-1
 323.400390625 0 l 1,1,-1
 21.599609375 0 l 1,2,-1
 21.599609375 46.2001953125 l 1,3,-1
 148.200195312 175.200195312 l 2,4,5
 250.200195312 278.400390625 250.200195312 278.400390625 250.200195312 378.299804688 c 128,-1,6
 250.200195312 478.200195312 250.200195312 478.200195312 166.799804688 478.200195312 c 0,7,8
 136.799804688 478.200195312 136.799804688 478.200195312 114.599609375 462 c 128,-1,9
 92.400390625 445.799804688 92.400390625 445.799804688 92.400390625 416.700195312 c 128,-1,10
 92.400390625 387.599609375 92.400390625 387.599609375 124.200195312 372 c 1,11,12
 124.200195312 350.400390625 124.200195312 350.400390625 111 339 c 128,-1,13
 97.7998046875 327.599609375 97.7998046875 327.599609375 79.2001953125 327.599609375 c 128,-1,14
 60.599609375 327.599609375 60.599609375 327.599609375 46.7998046875 341.700195312 c 128,-1,15
 33 355.799804688 33 355.799804688 33 380.400390625 c 0,16,17
 33 429 33 429 75.599609375 460.5 c 128,-1,18
 118.200195312 492 118.200195312 492 176.400390625 492 c 0,19,20
 250.200195312 492 250.200195312 492 285.299804688 457.200195312 c 128,-1,21
 320.400390625 422.400390625 320.400390625 422.400390625 320.400390625 366.599609375 c 0,22,23
 320.400390625 306 320.400390625 306 273.599609375 256.200195312 c 0,24,25
 250.799804688 231.599609375 250.799804688 231.599609375 202.799804688 189.599609375 c 2,26,-1
 59.400390625 63 l 1,27,-1
 283.200195312 63 l 1,28,-1
 307.799804688 151.799804688 l 1,29,-1
 323.400390625 151.799804688 l 1,0,-1
EndSplineSet
Colour: ff0000
EndChar

StartChar: three
Encoding: 51 51 22
Width: 369
VWidth: 600
GlyphClass: 2
Flags: W
LayerCount: 2
Back
Fore
SplineSet
114 261 m 1,0,-1
 114 274.200195312 l 1,1,2
 177 277.799804688 177 277.799804688 212.099609375 308.099609375 c 128,-1,3
 247.200195312 338.400390625 247.200195312 338.400390625 247.200195312 390 c 0,4,5
 247.200195312 430.200195312 247.200195312 430.200195312 225.299804688 454.200195312 c 128,-1,6
 203.400390625 478.200195312 203.400390625 478.200195312 168.599609375 478.200195312 c 128,-1,7
 133.799804688 478.200195312 133.799804688 478.200195312 114.900390625 467.099609375 c 128,-1,8
 96 456 96 456 96 436.200195312 c 0,9,10
 96 404.400390625 96 404.400390625 126 390.599609375 c 1,11,12
 126 369.599609375 126 369.599609375 113.700195312 358.799804688 c 128,-1,13
 101.400390625 348 101.400390625 348 83.7001953125 348 c 128,-1,14
 66 348 66 348 52.7998046875 361.799804688 c 128,-1,15
 39.599609375 375.599609375 39.599609375 375.599609375 39.599609375 398.400390625 c 0,16,17
 39.599609375 438.599609375 39.599609375 438.599609375 79.5 465.299804688 c 128,-1,18
 119.400390625 492 119.400390625 492 180.599609375 492 c 128,-1,19
 241.799804688 492 241.799804688 492 280.200195312 464.400390625 c 128,-1,20
 318.599609375 436.799804688 318.599609375 436.799804688 318.599609375 387 c 0,21,22
 318.599609375 287.400390625 318.599609375 287.400390625 172.200195312 268.200195312 c 1,23,-1
 172.200195312 266.400390625 l 1,24,25
 247.200195312 262.799804688 247.200195312 262.799804688 293.099609375 226.5 c 128,-1,26
 339 190.200195312 339 190.200195312 339 128.700195312 c 128,-1,27
 339 67.2001953125 339 67.2001953125 292.5 27.599609375 c 128,-1,28
 246 -12 246 -12 159 -12 c 0,29,30
 102.599609375 -12 102.599609375 -12 63.2998046875 19.2001953125 c 128,-1,31
 24 50.400390625 24 50.400390625 24 96.599609375 c 0,32,33
 24 121.200195312 24 121.200195312 37.7998046875 135.299804688 c 128,-1,34
 51.599609375 149.400390625 51.599609375 149.400390625 70.2001953125 149.400390625 c 128,-1,35
 88.7998046875 149.400390625 88.7998046875 149.400390625 102 138 c 128,-1,36
 115.200195312 126.599609375 115.200195312 126.599609375 115.200195312 105 c 1,37,38
 83.400390625 89.400390625 83.400390625 89.400390625 83.400390625 57 c 0,39,40
 83.400390625 32.400390625 83.400390625 32.400390625 104.099609375 17.099609375 c 128,-1,41
 124.799804688 1.7998046875 124.799804688 1.7998046875 163.5 1.7998046875 c 128,-1,42
 202.200195312 1.7998046875 202.200195312 1.7998046875 229.200195312 34.2001953125 c 128,-1,43
 256.200195312 66.599609375 256.200195312 66.599609375 256.200195312 124.799804688 c 0,44,45
 256.200195312 252 256.200195312 252 114 261 c 1,0,-1
EndSplineSet
Colour: ff0000
EndChar

StartChar: four
Encoding: 52 52 23
Width: 349
VWidth: 600
GlyphClass: 2
Flags: W
LayerCount: 2
Back
Fore
SplineSet
0 115.200195312 m 1,0,-1
 0 127.799804688 l 1,1,-1
 254.400390625 480 l 1,2,-1
 268.200195312 480 l 1,3,-1
 268.200195312 143.400390625 l 1,4,-1
 323.400390625 143.400390625 l 1,5,-1
 323.400390625 115.200195312 l 1,6,-1
 268.200195312 115.200195312 l 1,7,-1
 268.200195312 21.599609375 l 1,8,-1
 323.400390625 12.599609375 l 1,9,-1
 323.400390625 0 l 1,10,-1
 147 0 l 1,11,-1
 147 12.599609375 l 1,12,-1
 202.200195312 21.599609375 l 1,13,-1
 202.200195312 115.200195312 l 1,14,-1
 0 115.200195312 l 1,0,-1
29.400390625 143.400390625 m 1,15,-1
 202.200195312 143.400390625 l 1,16,-1
 202.200195312 382.799804688 l 1,17,-1
 29.400390625 143.400390625 l 1,15,-1
EndSplineSet
Colour: ff0000
EndChar

StartChar: five
Encoding: 53 53 24
Width: 361
VWidth: 600
GlyphClass: 2
Flags: W
LayerCount: 2
Back
Fore
SplineSet
75.599609375 271.799804688 m 1,0,-1
 64.7998046875 279.599609375 l 1,1,-1
 91.2001953125 480 l 1,2,-1
 250.200195312 480 l 2,3,4
 286.200195312 480 286.200195312 480 302.700195312 485.700195312 c 128,-1,5
 319.200195312 491.400390625 319.200195312 491.400390625 325.200195312 512.400390625 c 1,6,-1
 339 511.799804688 l 1,7,8
 334.200195312 453.599609375 334.200195312 453.599609375 309.900390625 431.700195312 c 128,-1,9
 285.599609375 409.799804688 285.599609375 409.799804688 241.200195312 409.799804688 c 2,10,-1
 97.7998046875 409.799804688 l 1,11,-1
 82.2001953125 290.400390625 l 1,12,13
 112.200195312 298.799804688 112.200195312 298.799804688 145.200195312 298.799804688 c 0,14,15
 226.200195312 298.799804688 226.200195312 298.799804688 278.099609375 252.900390625 c 128,-1,16
 330 207 330 207 330 139.200195312 c 0,17,18
 330 82.7998046875 330 82.7998046875 288 37.2001953125 c 0,19,20
 267.599609375 15 267.599609375 15 231.599609375 1.5 c 128,-1,21
 195.599609375 -12 195.599609375 -12 144.599609375 -12 c 128,-1,22
 93.599609375 -12 93.599609375 -12 54.2998046875 19.2001953125 c 128,-1,23
 15 50.400390625 15 50.400390625 15 96.599609375 c 0,24,25
 15 121.200195312 15 121.200195312 28.7998046875 135.299804688 c 128,-1,26
 42.599609375 149.400390625 42.599609375 149.400390625 61.2001953125 149.400390625 c 128,-1,27
 79.7998046875 149.400390625 79.7998046875 149.400390625 93 138 c 128,-1,28
 106.200195312 126.599609375 106.200195312 126.599609375 106.200195312 105 c 1,29,30
 74.400390625 89.400390625 74.400390625 89.400390625 74.400390625 57 c 0,31,32
 74.400390625 32.400390625 74.400390625 32.400390625 95.099609375 17.099609375 c 128,-1,33
 115.799804688 1.7998046875 115.799804688 1.7998046875 150 1.7998046875 c 0,34,35
 195 1.7998046875 195 1.7998046875 221.099609375 40.2001953125 c 128,-1,36
 247.200195312 78.599609375 247.200195312 78.599609375 247.200195312 144.599609375 c 128,-1,37
 247.200195312 210.599609375 247.200195312 210.599609375 216.299804688 246.299804688 c 128,-1,38
 185.400390625 282 185.400390625 282 134.400390625 282 c 0,39,40
 107.400390625 282 107.400390625 282 75.599609375 271.799804688 c 1,0,-1
EndSplineSet
Colour: ff0000
EndChar

StartChar: six
Encoding: 54 54 25
Width: 386
VWidth: 600
GlyphClass: 2
Flags: W
LayerCount: 2
Back
Fore
SplineSet
108.599609375 321 m 2,0,-1
 108 253.799804688 l 1,1,2
 145.200195312 298.799804688 145.200195312 298.799804688 209.099609375 298.799804688 c 128,-1,3
 273 298.799804688 273 298.799804688 315 258.299804688 c 128,-1,4
 357 217.799804688 357 217.799804688 357 145.5 c 128,-1,5
 357 73.2001953125 357 73.2001953125 310.200195312 30.599609375 c 128,-1,6
 263.400390625 -12 263.400390625 -12 195.599609375 -12 c 0,7,8
 105 -12 105 -12 67.7998046875 61.2001953125 c 0,9,10
 34.2001953125 128.400390625 34.2001953125 128.400390625 34.2001953125 247.799804688 c 128,-1,11
 34.2001953125 367.200195312 34.2001953125 367.200195312 81.2998046875 429.599609375 c 128,-1,12
 128.400390625 492 128.400390625 492 211.200195312 492 c 0,13,14
 267.599609375 492 267.599609375 492 304.799804688 468.900390625 c 128,-1,15
 342 445.799804688 342 445.799804688 342 411 c 0,16,17
 342 390.599609375 342 390.599609375 329.099609375 376.5 c 128,-1,18
 316.200195312 362.400390625 316.200195312 362.400390625 298.5 362.400390625 c 128,-1,19
 280.799804688 362.400390625 280.799804688 362.400390625 270 371.400390625 c 128,-1,20
 259.200195312 380.400390625 259.200195312 380.400390625 259.200195312 396 c 1,21,22
 276 409.200195312 276 409.200195312 276 429.599609375 c 128,-1,23
 276 450 276 450 258 465 c 128,-1,24
 240 480 240 480 211.200195312 480 c 0,25,26
 109.200195312 480 109.200195312 480 108.599609375 321 c 2,0,-1
201.599609375 284.400390625 m 0,27,28
 172.200195312 284.400390625 172.200195312 284.400390625 147 268.5 c 128,-1,29
 121.799804688 252.599609375 121.799804688 252.599609375 108 225 c 1,30,-1
 107.400390625 141.599609375 l 2,31,32
 107.400390625 139.799804688 107.400390625 139.799804688 107.400390625 138 c 0,33,34
 107.400390625 1.2001953125 107.400390625 1.2001953125 195.599609375 1.2001953125 c 0,35,36
 238.799804688 1.2001953125 238.799804688 1.2001953125 261.900390625 31.7998046875 c 128,-1,37
 285 62.400390625 285 62.400390625 285 116.400390625 c 2,38,-1
 285 175.200195312 l 2,39,40
 285 227.400390625 285 227.400390625 264.299804688 255.900390625 c 128,-1,41
 243.599609375 284.400390625 243.599609375 284.400390625 201.599609375 284.400390625 c 0,27,28
EndSplineSet
Colour: ff0000
EndChar

StartChar: seven
Encoding: 55 55 26
Width: 298
VWidth: 600
GlyphClass: 2
Flags: W
LayerCount: 2
Back
Fore
SplineSet
165.599609375 0 m 1,0,-1
 83.400390625 0 l 1,1,2
 92.400390625 87 92.400390625 87 138.599609375 171.599609375 c 0,3,4
 159 209.400390625 159 209.400390625 178.799804688 244.799804688 c 0,5,6
 232.200195312 339 232.200195312 339 256.799804688 417.599609375 c 1,7,-1
 55.7998046875 417.599609375 l 1,8,-1
 39.599609375 346.200195312 l 1,9,-1
 24 346.200195312 l 1,10,-1
 24 480 l 1,11,-1
 287.400390625 480 l 1,12,13
 280.200195312 418.200195312 280.200195312 418.200195312 261.599609375 350.400390625 c 128,-1,14
 243 282.599609375 243 282.599609375 224.099609375 233.099609375 c 128,-1,15
 205.200195312 183.599609375 205.200195312 183.599609375 187.799804688 119.700195312 c 128,-1,16
 170.400390625 55.7998046875 170.400390625 55.7998046875 165.599609375 0 c 1,0,-1
EndSplineSet
Colour: ff0000
EndChar

StartChar: eight
Encoding: 56 56 27
Width: 385
VWidth: 600
GlyphClass: 2
Flags: W
LayerCount: 2
Back
Fore
SplineSet
30.599609375 112.799804688 m 0,0,1
 30.599609375 187.200195312 30.599609375 187.200195312 100.200195312 234.599609375 c 0,2,3
 117 246 117 246 141.599609375 258.599609375 c 1,4,-1
 114 276.599609375 l 1,5,6
 49.2001953125 322.200195312 49.2001953125 322.200195312 49.2001953125 375.599609375 c 128,-1,7
 49.2001953125 429 49.2001953125 429 92.099609375 460.5 c 128,-1,8
 135 492 135 492 192 492 c 128,-1,9
 249 492 249 492 289.5 465.299804688 c 128,-1,10
 330 438.599609375 330 438.599609375 330 391.200195312 c 0,11,12
 330 352.200195312 330 352.200195312 307.200195312 324.599609375 c 128,-1,13
 284.400390625 297 284.400390625 297 243 274.799804688 c 1,14,15
 288.599609375 246.599609375 288.599609375 246.599609375 307.5 230.400390625 c 128,-1,16
 326.400390625 214.200195312 326.400390625 214.200195312 341.700195312 187.200195312 c 128,-1,17
 357 160.200195312 357 160.200195312 357 128.400390625 c 0,18,19
 357 63 357 63 308.400390625 25.5 c 128,-1,20
 259.799804688 -12 259.799804688 -12 188.400390625 -12 c 128,-1,21
 117 -12 117 -12 73.7998046875 20.400390625 c 128,-1,22
 30.599609375 52.7998046875 30.599609375 52.7998046875 30.599609375 112.799804688 c 0,0,1
224.400390625 205.200195312 m 2,23,-1
 159 247.200195312 l 1,24,25
 124.799804688 220.799804688 124.799804688 220.799804688 108.299804688 184.799804688 c 128,-1,26
 91.7998046875 148.799804688 91.7998046875 148.799804688 91.7998046875 106.200195312 c 128,-1,27
 91.7998046875 63.599609375 91.7998046875 63.599609375 116.099609375 32.7001953125 c 128,-1,28
 140.400390625 1.7998046875 140.400390625 1.7998046875 190.200195312 1.7998046875 c 128,-1,29
 240 1.7998046875 240 1.7998046875 270 28.5 c 128,-1,30
 300 55.2001953125 300 55.2001953125 300 89.400390625 c 128,-1,31
 300 123.599609375 300 123.599609375 282.900390625 150.299804688 c 128,-1,32
 265.799804688 177 265.799804688 177 224.400390625 205.200195312 c 2,23,-1
128.400390625 458.700195312 m 128,-1,34
 102.599609375 439.200195312 102.599609375 439.200195312 102.599609375 411.900390625 c 128,-1,35
 102.599609375 384.599609375 102.599609375 384.599609375 117.599609375 364.799804688 c 128,-1,36
 132.599609375 345 132.599609375 345 162.599609375 325.200195312 c 2,37,-1
 226.200195312 285 l 1,38,39
 275.400390625 319.799804688 275.400390625 319.799804688 275.400390625 389.400390625 c 0,40,41
 275.400390625 428.400390625 275.400390625 428.400390625 251.400390625 453.299804688 c 128,-1,42
 227.400390625 478.200195312 227.400390625 478.200195312 190.799804688 478.200195312 c 128,-1,33
 154.200195312 478.200195312 154.200195312 478.200195312 128.400390625 458.700195312 c 128,-1,34
EndSplineSet
Colour: ff0000
EndChar

StartChar: nine
Encoding: 57 57 28
Width: 386
VWidth: 600
GlyphClass: 2
Flags: W
LayerCount: 2
Back
Fore
SplineSet
175.200195312 0 m 0,0,1
 277.200195312 0 277.200195312 0 277.799804688 159 c 2,2,-1
 277.799804688 226.200195312 l 1,3,4
 241.799804688 181.200195312 241.799804688 181.200195312 177.599609375 181.200195312 c 128,-1,5
 113.400390625 181.200195312 113.400390625 181.200195312 71.400390625 221.700195312 c 128,-1,6
 29.400390625 262.200195312 29.400390625 262.200195312 29.400390625 334.5 c 128,-1,7
 29.400390625 406.799804688 29.400390625 406.799804688 76.2001953125 449.400390625 c 128,-1,8
 123 492 123 492 190.799804688 492 c 0,9,10
 281.400390625 492 281.400390625 492 318.599609375 418.799804688 c 0,11,12
 352.200195312 351.599609375 352.200195312 351.599609375 352.200195312 232.200195312 c 128,-1,13
 352.200195312 112.799804688 352.200195312 112.799804688 305.099609375 50.400390625 c 128,-1,14
 258 -12 258 -12 175.200195312 -12 c 0,15,16
 118.799804688 -12 118.799804688 -12 81.599609375 11.099609375 c 128,-1,17
 44.400390625 34.2001953125 44.400390625 34.2001953125 44.400390625 69 c 0,18,19
 44.400390625 89.400390625 44.400390625 89.400390625 57.2998046875 103.5 c 128,-1,20
 70.2001953125 117.599609375 70.2001953125 117.599609375 87.900390625 117.599609375 c 128,-1,21
 105.599609375 117.599609375 105.599609375 117.599609375 116.400390625 108.599609375 c 128,-1,22
 127.200195312 99.599609375 127.200195312 99.599609375 127.200195312 84 c 1,23,24
 110.400390625 70.7998046875 110.400390625 70.7998046875 110.400390625 50.400390625 c 128,-1,25
 110.400390625 30 110.400390625 30 128.400390625 15 c 128,-1,26
 146.400390625 0 146.400390625 0 175.200195312 0 c 0,0,1
184.799804688 195.599609375 m 0,27,28
 213.599609375 195.599609375 213.599609375 195.599609375 239.099609375 211.5 c 128,-1,29
 264.599609375 227.400390625 264.599609375 227.400390625 278.400390625 255 c 1,30,-1
 279 338.400390625 l 2,31,32
 279 340.200195312 279 340.200195312 279 342 c 0,33,34
 279 478.799804688 279 478.799804688 190.799804688 478.799804688 c 0,35,36
 147.599609375 478.799804688 147.599609375 478.799804688 124.5 448.200195312 c 128,-1,37
 101.400390625 417.599609375 101.400390625 417.599609375 101.400390625 363.599609375 c 2,38,-1
 101.400390625 304.799804688 l 2,39,40
 101.400390625 252.599609375 101.400390625 252.599609375 122.099609375 224.099609375 c 128,-1,41
 142.799804688 195.599609375 142.799804688 195.599609375 184.799804688 195.599609375 c 0,27,28
EndSplineSet
Colour: ff0000
EndChar

StartChar: colon
Encoding: 58 58 29
Width: 145
VWidth: 600
GlyphClass: 2
Flags: W
LayerCount: 2
Back
Fore
SplineSet
47.400390625 4.2001953125 m 256,0,1
 37.2001953125 14.400390625 37.2001953125 14.400390625 37.2001953125 29.7001953125 c 128,-1,2
 37.2001953125 45 37.2001953125 45 48.2998046875 54.900390625 c 128,-1,3
 59.400390625 64.7998046875 59.400390625 64.7998046875 73.2001953125 64.7998046875 c 256,4,5
 87 64.7998046875 87 64.7998046875 97.7998046875 54.900390625 c 128,-1,6
 108.599609375 45 108.599609375 45 108.599609375 30 c 256,7,8
 108.599609375 15 108.599609375 15 98.400390625 4.5 c 128,-1,9
 88.2001953125 -6 88.2001953125 -6 72.900390625 -6 c 128,-1,10
 57.599609375 -6 57.599609375 -6 47.400390625 4.2001953125 c 256,0,1
47.400390625 214.799804688 m 256,11,12
 37.2001953125 225 37.2001953125 225 37.2001953125 240.299804688 c 128,-1,13
 37.2001953125 255.599609375 37.2001953125 255.599609375 48.2998046875 265.5 c 128,-1,14
 59.400390625 275.400390625 59.400390625 275.400390625 73.2001953125 275.400390625 c 256,15,16
 87 275.400390625 87 275.400390625 97.7998046875 265.5 c 128,-1,17
 108.599609375 255.599609375 108.599609375 255.599609375 108.599609375 240.599609375 c 256,18,19
 108.599609375 225.599609375 108.599609375 225.599609375 98.400390625 215.099609375 c 128,-1,20
 88.2001953125 204.599609375 88.2001953125 204.599609375 72.900390625 204.599609375 c 128,-1,21
 57.599609375 204.599609375 57.599609375 204.599609375 47.400390625 214.799804688 c 256,11,12
EndSplineSet
Colour: ff0000
EndChar

StartChar: semicolon
Encoding: 59 59 30
Width: 160
VWidth: 600
GlyphClass: 2
Flags: W
LayerCount: 2
Back
Fore
SplineSet
51 214.799804688 m 256,0,1
 40.7998046875 225 40.7998046875 225 40.7998046875 240.299804688 c 128,-1,2
 40.7998046875 255.599609375 40.7998046875 255.599609375 51.900390625 265.5 c 128,-1,3
 63 275.400390625 63 275.400390625 76.7998046875 275.400390625 c 256,4,5
 90.599609375 275.400390625 90.599609375 275.400390625 101.400390625 265.5 c 128,-1,6
 112.200195312 255.599609375 112.200195312 255.599609375 112.200195312 240.599609375 c 256,7,8
 112.200195312 225.599609375 112.200195312 225.599609375 102 215.099609375 c 128,-1,9
 91.7998046875 204.599609375 91.7998046875 204.599609375 76.5 204.599609375 c 128,-1,10
 61.2001953125 204.599609375 61.2001953125 204.599609375 51 214.799804688 c 256,0,1
48 -97.2001953125 m 1,11,-1
 41.400390625 -87.599609375 l 1,12,13
 59.400390625 -76.7998046875 59.400390625 -76.7998046875 74.099609375 -57.2998046875 c 128,-1,14
 88.7998046875 -37.7998046875 88.7998046875 -37.7998046875 88.7998046875 -18 c 0,15,16
 88.7998046875 -6 88.7998046875 -6 75.2998046875 -6 c 128,-1,17
 61.7998046875 -6 61.7998046875 -6 51.2998046875 4.5 c 128,-1,18
 40.7998046875 15 40.7998046875 15 40.7998046875 30 c 128,-1,19
 40.7998046875 45 40.7998046875 45 51.2998046875 54.900390625 c 128,-1,20
 61.7998046875 64.7998046875 61.7998046875 64.7998046875 79.7998046875 64.7998046875 c 128,-1,21
 97.7998046875 64.7998046875 97.7998046875 64.7998046875 110.099609375 49.5 c 128,-1,22
 122.400390625 34.2001953125 122.400390625 34.2001953125 122.400390625 9.599609375 c 0,23,24
 122.400390625 -60.599609375 122.400390625 -60.599609375 48 -97.2001953125 c 1,11,-1
EndSplineSet
Colour: ff0000
EndChar

StartChar: less
Encoding: 60 60 31
Width: 291
VWidth: 600
GlyphClass: 2
Flags: W
LayerCount: 2
Back
Fore
SplineSet
18.599609375 208.200195312 m 1,0,-1
 18.599609375 220.200195312 l 1,1,-1
 252 346.200195312 l 1,2,-1
 252 323.400390625 l 1,3,-1
 51 214.200195312 l 1,4,-1
 252 106.200195312 l 1,5,-1
 252 83.400390625 l 1,6,-1
 18.599609375 208.200195312 l 1,0,-1
EndSplineSet
Colour: ff0000
EndChar

StartChar: equal
Encoding: 61 61 32
Width: 361
VWidth: 600
GlyphClass: 2
Flags: W
LayerCount: 2
Back
Fore
SplineSet
43.2001953125 153 m 1,0,-1
 43.2001953125 175.799804688 l 1,1,-1
 318.599609375 175.799804688 l 1,2,-1
 318.599609375 153 l 1,3,-1
 43.2001953125 153 l 1,0,-1
43.2001953125 252.599609375 m 1,4,-1
 43.2001953125 275.400390625 l 1,5,-1
 318.599609375 275.400390625 l 1,6,-1
 318.599609375 252.599609375 l 1,7,-1
 43.2001953125 252.599609375 l 1,4,-1
EndSplineSet
Colour: ff0000
EndChar

StartChar: greater
Encoding: 62 62 33
Width: 291
VWidth: 600
GlyphClass: 2
Flags: W
LayerCount: 2
Back
Fore
SplineSet
273 220.200195312 m 1,0,-1
 273 208.200195312 l 1,1,-1
 39.599609375 83.400390625 l 1,2,-1
 39.599609375 106.200195312 l 1,3,-1
 240.599609375 214.200195312 l 1,4,-1
 39.599609375 323.400390625 l 1,5,-1
 39.599609375 346.200195312 l 1,6,-1
 273 220.200195312 l 1,0,-1
EndSplineSet
Colour: ff0000
EndChar

StartChar: question
Encoding: 63 63 34
Width: 313
VWidth: 600
GlyphClass: 2
Flags: W
LayerCount: 2
Back
Fore
SplineSet
139.799804688 -6 m 128,-1,1
 124.799804688 -6 124.799804688 -6 114.599609375 4.5 c 128,-1,2
 104.400390625 15 104.400390625 15 104.400390625 30 c 128,-1,3
 104.400390625 45 104.400390625 45 114.599609375 54.900390625 c 128,-1,4
 124.799804688 64.7998046875 124.799804688 64.7998046875 139.799804688 64.7998046875 c 128,-1,5
 154.799804688 64.7998046875 154.799804688 64.7998046875 165 54.900390625 c 128,-1,6
 175.200195312 45 175.200195312 45 175.200195312 30 c 128,-1,7
 175.200195312 15 175.200195312 15 165 4.5 c 128,-1,0
 154.799804688 -6 154.799804688 -6 139.799804688 -6 c 128,-1,1
133.200195312 99 m 1,8,9
 133.200195312 163.799804688 133.200195312 163.799804688 163.200195312 220.799804688 c 0,10,11
 175.200195312 244.799804688 175.200195312 244.799804688 187.200195312 267.599609375 c 0,12,13
 216.599609375 323.400390625 216.599609375 323.400390625 216.599609375 369.599609375 c 0,14,15
 216.599609375 430.799804688 216.599609375 430.799804688 199.200195312 454.799804688 c 128,-1,16
 181.799804688 478.799804688 181.799804688 478.799804688 151.5 478.799804688 c 128,-1,17
 121.200195312 478.799804688 121.200195312 478.799804688 99 463.200195312 c 128,-1,18
 76.7998046875 447.599609375 76.7998046875 447.599609375 76.7998046875 423 c 0,19,20
 76.7998046875 391.799804688 76.7998046875 391.799804688 106.799804688 377.400390625 c 1,21,22
 106.799804688 356.400390625 106.799804688 356.400390625 94.5 345.299804688 c 128,-1,23
 82.2001953125 334.200195312 82.2001953125 334.200195312 64.5 334.200195312 c 128,-1,24
 46.7998046875 334.200195312 46.7998046875 334.200195312 33.2998046875 347.700195312 c 128,-1,25
 19.7998046875 361.200195312 19.7998046875 361.200195312 19.7998046875 384.599609375 c 0,26,27
 19.7998046875 431.400390625 19.7998046875 431.400390625 61.5 461.700195312 c 128,-1,28
 103.200195312 492 103.200195312 492 164.099609375 492 c 128,-1,29
 225 492 225 492 257.400390625 465 c 128,-1,30
 289.799804688 438 289.799804688 438 289.799804688 373.799804688 c 0,31,32
 289.799804688 347.400390625 289.799804688 347.400390625 279.299804688 322.799804688 c 128,-1,33
 268.799804688 298.200195312 268.799804688 298.200195312 252.599609375 280.200195312 c 128,-1,34
 236.400390625 262.200195312 236.400390625 262.200195312 218.099609375 241.200195312 c 128,-1,35
 199.799804688 220.200195312 199.799804688 220.200195312 183.599609375 201.299804688 c 128,-1,36
 167.400390625 182.400390625 167.400390625 182.400390625 156.900390625 155.400390625 c 128,-1,37
 146.400390625 128.400390625 146.400390625 128.400390625 146.400390625 99 c 1,38,-1
 133.200195312 99 l 1,8,9
EndSplineSet
Colour: ff0000
EndChar

StartChar: at
Encoding: 64 64 35
Width: 529
VWidth: 600
GlyphClass: 2
Flags: W
LayerCount: 2
Back
Fore
SplineSet
467.700195312 158.099609375 m 128,-1,1
 428.400390625 110.400390625 428.400390625 110.400390625 372.900390625 110.400390625 c 128,-1,2
 317.400390625 110.400390625 317.400390625 110.400390625 300 145.200195312 c 1,3,4
 267 111 267 111 220.200195312 111 c 128,-1,5
 173.400390625 111 173.400390625 111 148.200195312 140.700195312 c 128,-1,6
 123 170.400390625 123 170.400390625 123 216 c 0,7,8
 123 288 123 288 170.400390625 336.599609375 c 128,-1,9
 217.799804688 385.200195312 217.799804688 385.200195312 277.200195312 385.200195312 c 0,10,11
 301.799804688 385.200195312 301.799804688 385.200195312 321.299804688 374.099609375 c 128,-1,12
 340.799804688 363 340.799804688 363 350.400390625 345.599609375 c 1,13,-1
 360 375 l 1,14,-1
 409.200195312 375 l 1,15,-1
 352.200195312 175.200195312 l 2,16,17
 348.599609375 162 348.599609375 162 348.599609375 153 c 0,18,19
 348.599609375 129 348.599609375 129 381.599609375 129 c 0,20,21
 425.400390625 129 425.400390625 129 457.200195312 174 c 128,-1,22
 489 219 489 219 489 278.400390625 c 0,23,24
 489 366 489 366 431.400390625 417.900390625 c 128,-1,25
 373.799804688 469.799804688 373.799804688 469.799804688 277.200195312 469.799804688 c 128,-1,26
 180.599609375 469.799804688 180.599609375 469.799804688 114.299804688 403.5 c 128,-1,27
 48 337.200195312 48 337.200195312 48 240.299804688 c 128,-1,28
 48 143.400390625 48 143.400390625 114.299804688 77.7001953125 c 128,-1,29
 180.599609375 12 180.599609375 12 277.200195312 12 c 0,30,31
 322.200195312 12 322.200195312 12 354.299804688 21 c 128,-1,32
 386.400390625 30 386.400390625 30 421.799804688 49.7998046875 c 1,33,-1
 430.200195312 34.2001953125 l 1,34,35
 392.400390625 13.2001953125 392.400390625 13.2001953125 357.599609375 3.599609375 c 128,-1,36
 322.799804688 -6 322.799804688 -6 277.200195312 -6 c 0,37,38
 172.799804688 -6 172.799804688 -6 101.700195312 64.7998046875 c 128,-1,39
 30.599609375 135.599609375 30.599609375 135.599609375 30.599609375 240 c 128,-1,40
 30.599609375 344.400390625 30.599609375 344.400390625 101.700195312 415.200195312 c 128,-1,41
 172.799804688 486 172.799804688 486 277.799804688 486 c 128,-1,42
 382.799804688 486 382.799804688 486 444.900390625 429.299804688 c 128,-1,43
 507 372.599609375 507 372.599609375 507 278.400390625 c 0,44,0
 507 205.799804688 507 205.799804688 467.700195312 158.099609375 c 128,-1,1
297 168.599609375 m 1,45,-1
 343.799804688 325.200195312 l 1,46,47
 324.599609375 366.599609375 324.599609375 366.599609375 282 366.599609375 c 128,-1,48
 239.400390625 366.599609375 239.400390625 366.599609375 209.700195312 312.900390625 c 128,-1,49
 180 259.200195312 180 259.200195312 180 195.599609375 c 0,50,51
 180 167.400390625 180 167.400390625 192.599609375 150 c 128,-1,52
 205.200195312 132.599609375 205.200195312 132.599609375 231 132.599609375 c 0,53,54
 270.599609375 132.599609375 270.599609375 132.599609375 297 168.599609375 c 1,45,-1
EndSplineSet
Colour: ff0000
EndChar

StartChar: A
Encoding: 65 65 36
Width: 432
VWidth: 600
GlyphClass: 2
Flags: W
LayerCount: 2
Back
Fore
SplineSet
112.200195312 12.599609375 m 1,0,-1
 112.200195312 0 l 1,1,-1
 -16.2001953125 0 l 1,2,-1
 -16.2001953125 12.599609375 l 1,3,-1
 42.599609375 36.599609375 l 1,4,-1
 216 492 l 1,5,-1
 225.599609375 492 l 1,6,-1
 389.400390625 21.599609375 l 1,7,-1
 444.599609375 12.599609375 l 1,8,-1
 444.599609375 0 l 1,9,-1
 268.200195312 0 l 1,10,-1
 268.200195312 12.599609375 l 1,11,-1
 317.400390625 20.400390625 l 1,12,-1
 266.400390625 162.599609375 l 1,13,-1
 106.799804688 162.599609375 l 1,14,-1
 58.2001953125 36.599609375 l 1,15,-1
 112.200195312 12.599609375 l 1,0,-1
190.200195312 386.400390625 m 1,16,-1
 111.599609375 175.200195312 l 1,17,-1
 262.200195312 175.200195312 l 1,18,-1
 190.200195312 386.400390625 l 1,16,-1
EndSplineSet
Colour: ff0000
EndChar

StartChar: B
Encoding: 66 66 37
Width: 444
VWidth: 600
GlyphClass: 2
Flags: W
LayerCount: 2
Back
Fore
SplineSet
413.400390625 129.599609375 m 0,0,1
 413.400390625 63.599609375 413.400390625 63.599609375 365.099609375 31.7998046875 c 128,-1,2
 316.799804688 0 316.799804688 0 234.599609375 0 c 2,3,-1
 22.7998046875 0 l 1,4,-1
 22.7998046875 12.599609375 l 1,5,-1
 78 21.599609375 l 1,6,-1
 78 458.400390625 l 1,7,-1
 22.7998046875 466.799804688 l 1,8,-1
 22.7998046875 480 l 1,9,-1
 205.799804688 480 l 2,10,11
 301.200195312 480 301.200195312 480 341.700195312 453.299804688 c 128,-1,12
 382.200195312 426.599609375 382.200195312 426.599609375 382.200195312 367.799804688 c 0,13,14
 382.200195312 281.400390625 382.200195312 281.400390625 273 257.400390625 c 1,15,-1
 273 254.400390625 l 1,16,17
 413.400390625 235.799804688 413.400390625 235.799804688 413.400390625 129.599609375 c 0,0,1
234.599609375 244.200195312 m 2,18,-1
 144 244.200195312 l 1,19,-1
 144 14.400390625 l 1,20,-1
 234.599609375 14.400390625 l 2,21,22
 285.599609375 14.400390625 285.599609375 14.400390625 313.799804688 44.099609375 c 128,-1,23
 342 73.7998046875 342 73.7998046875 342 129 c 2,24,-1
 342 135.599609375 l 2,25,26
 342 190.200195312 342 190.200195312 314.099609375 217.200195312 c 128,-1,27
 286.200195312 244.200195312 286.200195312 244.200195312 234.599609375 244.200195312 c 2,18,-1
205.799804688 465 m 2,28,-1
 144 465 l 1,29,-1
 144 259.200195312 l 1,30,-1
 210.599609375 259.200195312 l 2,31,32
 258.599609375 259.200195312 258.599609375 259.200195312 284.400390625 286.200195312 c 128,-1,33
 310.200195312 313.200195312 310.200195312 313.200195312 310.200195312 363 c 2,34,-1
 310.200195312 366.599609375 l 2,35,36
 310.200195312 465 310.200195312 465 205.799804688 465 c 2,28,-1
EndSplineSet
Colour: ff0000
EndChar

StartChar: C
Encoding: 67 67 38
Width: 444
VWidth: 600
GlyphClass: 2
Flags: W
LayerCount: 2
Back
Fore
SplineSet
392.400390625 492 m 1,0,-1
 405 492 l 1,1,-1
 405 343.200195312 l 1,2,-1
 392.400390625 343.200195312 l 1,3,-1
 355.200195312 436.200195312 l 1,4,5
 309.599609375 478.200195312 309.599609375 478.200195312 251.400390625 478.200195312 c 0,6,7
 187.200195312 478.200195312 187.200195312 478.200195312 148.799804688 429.599609375 c 0,8,9
 109.200195312 379.799804688 109.200195312 379.799804688 109.200195312 295.200195312 c 2,10,-1
 109.200195312 185.400390625 l 2,11,12
 109.200195312 100.200195312 109.200195312 100.200195312 147 50.400390625 c 0,13,14
 184.200195312 1.7998046875 184.200195312 1.7998046875 248.400390625 1.7998046875 c 0,15,16
 279 1.7998046875 279 1.7998046875 309.599609375 15.2998046875 c 128,-1,17
 340.200195312 28.7998046875 340.200195312 28.7998046875 360.599609375 51.599609375 c 1,18,-1
 395.400390625 148.200195312 l 1,19,-1
 408 148.200195312 l 1,20,-1
 408 -6 l 1,21,-1
 395.400390625 -6 l 1,22,-1
 352.200195312 24.599609375 l 1,23,24
 306.599609375 -12 306.599609375 -12 252.599609375 -12 c 128,-1,25
 198.599609375 -12 198.599609375 -12 158.700195312 6.2998046875 c 128,-1,26
 118.799804688 24.599609375 118.799804688 24.599609375 90 57.599609375 c 0,27,28
 31.2001953125 127.200195312 31.2001953125 127.200195312 31.2001953125 240 c 0,29,30
 31.2001953125 351.599609375 31.2001953125 351.599609375 91.7998046875 421.200195312 c 0,31,32
 153 492 153 492 251.400390625 492 c 0,33,34
 305.400390625 492 305.400390625 492 352.200195312 457.799804688 c 1,35,-1
 392.400390625 492 l 1,0,-1
EndSplineSet
Colour: ff0000
EndChar

StartChar: D
Encoding: 68 68 39
Width: 510
VWidth: 600
GlyphClass: 2
Flags: W
LayerCount: 2
Back
Fore
SplineSet
22.7998046875 480 m 1,0,-1
 252.599609375 480 l 2,1,2
 301.799804688 480 301.799804688 480 343.5 462.599609375 c 128,-1,3
 385.200195312 445.200195312 385.200195312 445.200195312 415.200195312 414 c 0,4,5
 478.799804688 346.799804688 478.799804688 346.799804688 478.799804688 240 c 0,6,7
 478.799804688 132 478.799804688 132 415.799804688 66 c 0,8,9
 353.400390625 0 353.400390625 0 252.599609375 0 c 2,10,-1
 22.7998046875 0 l 1,11,-1
 22.7998046875 12.599609375 l 1,12,-1
 78 21.599609375 l 1,13,-1
 78 458.400390625 l 1,14,-1
 22.7998046875 466.799804688 l 1,15,-1
 22.7998046875 480 l 1,0,-1
252.599609375 465 m 2,16,-1
 144 465 l 1,17,-1
 144 14.400390625 l 1,18,-1
 252.599609375 14.400390625 l 2,19,20
 319.200195312 14.400390625 319.200195312 14.400390625 360.900390625 60.900390625 c 128,-1,21
 402.599609375 107.400390625 402.599609375 107.400390625 402.599609375 193.799804688 c 2,22,-1
 402.599609375 286.200195312 l 2,23,24
 402.599609375 372.599609375 402.599609375 372.599609375 361.200195312 418.799804688 c 128,-1,25
 319.799804688 465 319.799804688 465 252.599609375 465 c 2,16,-1
EndSplineSet
Colour: ff0000
EndChar

StartChar: E
Encoding: 69 69 40
Width: 429
VWidth: 600
GlyphClass: 2
Flags: W
LayerCount: 2
Back
Fore
SplineSet
257.400390625 336 m 1,0,-1
 273 336 l 1,1,-1
 273 146.400390625 l 1,2,-1
 257.400390625 146.400390625 l 1,3,-1
 221.400390625 234.599609375 l 1,4,-1
 144 234.599609375 l 1,5,-1
 144 14.400390625 l 1,6,-1
 332.400390625 14.400390625 l 1,7,-1
 381.599609375 146.400390625 l 1,8,-1
 397.200195312 146.400390625 l 1,9,-1
 397.200195312 0 l 1,10,-1
 22.7998046875 0 l 1,11,-1
 22.7998046875 12.599609375 l 1,12,-1
 78 21.599609375 l 1,13,-1
 78 458.400390625 l 1,14,-1
 22.7998046875 466.799804688 l 1,15,-1
 22.7998046875 480 l 1,16,-1
 384 480 l 1,17,-1
 384 342.599609375 l 1,18,-1
 367.799804688 342.599609375 l 1,19,-1
 321.599609375 465 l 1,20,-1
 144 465 l 1,21,-1
 144 249 l 1,22,-1
 222 249 l 1,23,-1
 257.400390625 336 l 1,0,-1
EndSplineSet
Colour: ff0000
EndChar

StartChar: F
Encoding: 70 70 41
Width: 401
VWidth: 600
GlyphClass: 2
Flags: W
LayerCount: 2
Back
Fore
SplineSet
199.200195312 12.599609375 m 1,0,-1
 199.200195312 0 l 1,1,-1
 22.7998046875 0 l 1,2,-1
 22.7998046875 12.599609375 l 1,3,-1
 78 21.599609375 l 1,4,-1
 78 458.400390625 l 1,5,-1
 22.7998046875 466.799804688 l 1,6,-1
 22.7998046875 480 l 1,7,-1
 384 480 l 1,8,-1
 384 333.599609375 l 1,9,-1
 367.799804688 333.599609375 l 1,10,-1
 321.599609375 465 l 1,11,-1
 144 465 l 1,12,-1
 144 240 l 1,13,-1
 245.400390625 240 l 1,14,-1
 280.799804688 327 l 1,15,-1
 297 327 l 1,16,-1
 297 137.400390625 l 1,17,-1
 280.799804688 137.400390625 l 1,18,-1
 245.400390625 225.599609375 l 1,19,-1
 144 225.599609375 l 1,20,-1
 144 21.599609375 l 1,21,-1
 199.200195312 12.599609375 l 1,0,-1
EndSplineSet
Colour: ff0000
EndChar

StartChar: G
Encoding: 71 71 42
Width: 487
VWidth: 600
GlyphClass: 2
Flags: W
LayerCount: 2
Back
Fore
SplineSet
395.400390625 492 m 1,0,-1
 408 492 l 1,1,-1
 408 343.200195312 l 1,2,-1
 395.400390625 343.200195312 l 1,3,-1
 355.799804688 442.200195312 l 1,4,5
 312.599609375 478.200195312 312.599609375 478.200195312 251.400390625 478.200195312 c 128,-1,6
 190.200195312 478.200195312 190.200195312 478.200195312 149.099609375 429.299804688 c 128,-1,7
 108 380.400390625 108 380.400390625 108 295.200195312 c 2,8,-1
 108 185.400390625 l 2,9,10
 108 99.599609375 108 99.599609375 146.400390625 50.7001953125 c 128,-1,11
 184.799804688 1.7998046875 184.799804688 1.7998046875 248.400390625 1.7998046875 c 0,12,13
 300 1.7998046875 300 1.7998046875 328.5 36.599609375 c 128,-1,14
 357 71.400390625 357 71.400390625 357 130.799804688 c 2,15,-1
 357 198.599609375 l 1,16,-1
 301.200195312 207 l 1,17,-1
 301.200195312 220.200195312 l 1,18,-1
 480.599609375 220.200195312 l 1,19,-1
 480.599609375 207 l 1,20,-1
 424.799804688 198.599609375 l 1,21,-1
 424.799804688 130.799804688 l 2,22,23
 424.799804688 71.400390625 424.799804688 71.400390625 380.700195312 29.7001953125 c 128,-1,24
 336.599609375 -12 336.599609375 -12 248.400390625 -12 c 0,25,26
 149.400390625 -12 149.400390625 -12 90.2998046875 57.599609375 c 128,-1,27
 31.2001953125 127.200195312 31.2001953125 127.200195312 31.2001953125 239.700195312 c 128,-1,28
 31.2001953125 352.200195312 31.2001953125 352.200195312 93 422.099609375 c 128,-1,29
 154.799804688 492 154.799804688 492 254.400390625 492 c 0,30,31
 315.599609375 492 315.599609375 492 358.799804688 460.799804688 c 1,32,-1
 395.400390625 492 l 1,0,-1
EndSplineSet
Colour: ff0000
EndChar

StartChar: H
Encoding: 72 72 43
Width: 516
VWidth: 600
GlyphClass: 2
Flags: W
LayerCount: 2
Back
Fore
SplineSet
493.200195312 12.599609375 m 1,0,-1
 493.200195312 0 l 1,1,-1
 316.200195312 0 l 1,2,-1
 316.200195312 12.599609375 l 1,3,-1
 372 21.599609375 l 1,4,-1
 372 246.599609375 l 1,5,-1
 144 246.599609375 l 1,6,-1
 144 21.599609375 l 1,7,-1
 199.200195312 12.599609375 l 1,8,-1
 199.200195312 0 l 1,9,-1
 22.7998046875 0 l 1,10,-1
 22.7998046875 12.599609375 l 1,11,-1
 78 21.599609375 l 1,12,-1
 78 458.400390625 l 1,13,-1
 22.7998046875 466.799804688 l 1,14,-1
 22.7998046875 480 l 1,15,-1
 199.200195312 480 l 1,16,-1
 199.200195312 466.799804688 l 1,17,-1
 144 458.400390625 l 1,18,-1
 144 261.599609375 l 1,19,-1
 372 261.599609375 l 1,20,-1
 372 458.400390625 l 1,21,-1
 316.200195312 466.799804688 l 1,22,-1
 316.200195312 480 l 1,23,-1
 493.200195312 480 l 1,24,-1
 493.200195312 466.799804688 l 1,25,-1
 437.400390625 458.400390625 l 1,26,-1
 437.400390625 21.599609375 l 1,27,-1
 493.200195312 12.599609375 l 1,0,-1
EndSplineSet
Colour: ff0000
EndChar

StartChar: I
Encoding: 73 73 44
Width: 222
VWidth: 600
GlyphClass: 2
Flags: W
LayerCount: 2
Back
Fore
SplineSet
199.200195312 12.599609375 m 1,0,-1
 199.200195312 0 l 1,1,-1
 22.7998046875 0 l 1,2,-1
 22.7998046875 12.599609375 l 1,3,-1
 78 21.599609375 l 1,4,-1
 78 458.400390625 l 1,5,-1
 22.7998046875 466.799804688 l 1,6,-1
 22.7998046875 480 l 1,7,-1
 199.200195312 480 l 1,8,-1
 199.200195312 466.799804688 l 1,9,-1
 144 458.400390625 l 1,10,-1
 144 21.599609375 l 1,11,-1
 199.200195312 12.599609375 l 1,0,-1
EndSplineSet
Colour: ff0000
EndChar

StartChar: J
Encoding: 74 74 45
Width: 268
VWidth: 600
GlyphClass: 2
Flags: W
LayerCount: 2
Back
Fore
SplineSet
144.299804688 -2.7001953125 m 128,-1,1
 121.799804688 -12 121.799804688 -12 86.7001953125 -12 c 128,-1,2
 51.599609375 -12 51.599609375 -12 27.900390625 3.599609375 c 128,-1,3
 4.2001953125 19.2001953125 4.2001953125 19.2001953125 4.2001953125 49.2001953125 c 0,4,5
 4.2001953125 69 4.2001953125 69 15.2998046875 81.2998046875 c 128,-1,6
 26.400390625 93.599609375 26.400390625 93.599609375 42.599609375 93.599609375 c 128,-1,7
 58.7998046875 93.599609375 58.7998046875 93.599609375 68.400390625 84.599609375 c 128,-1,8
 78 75.599609375 78 75.599609375 80.400390625 67.2001953125 c 2,9,-1
 82.2001953125 58.2001953125 l 1,10,11
 64.7998046875 45.599609375 64.7998046875 45.599609375 64.7998046875 31.5 c 128,-1,12
 64.7998046875 17.400390625 64.7998046875 17.400390625 72 9.599609375 c 128,-1,13
 79.2001953125 1.7998046875 79.2001953125 1.7998046875 91.7998046875 1.7998046875 c 0,14,15
 111 1.7998046875 111 1.7998046875 120.900390625 27.599609375 c 128,-1,16
 130.799804688 53.400390625 130.799804688 53.400390625 133.200195312 118.200195312 c 1,17,-1
 133.200195312 458.400390625 l 1,18,-1
 78 466.799804688 l 1,19,-1
 78 480 l 1,20,-1
 252 480 l 1,21,-1
 252 466.799804688 l 1,22,-1
 196.799804688 458.400390625 l 1,23,-1
 196.799804688 118.200195312 l 2,24,25
 196.799804688 87 196.799804688 87 192.900390625 66 c 128,-1,26
 189 45 189 45 177.900390625 25.7998046875 c 128,-1,0
 166.799804688 6.599609375 166.799804688 6.599609375 144.299804688 -2.7001953125 c 128,-1,1
EndSplineSet
Colour: ff0000
EndChar

StartChar: K
Encoding: 75 75 46
Width: 442
VWidth: 600
GlyphClass: 2
Flags: W
LayerCount: 2
Back
Fore
SplineSet
459.599609375 0 m 1,0,-1
 282.599609375 0 l 1,1,-1
 282.599609375 12.599609375 l 1,2,-1
 337.200195312 21 l 1,3,-1
 180 258 l 1,4,-1
 144 221.400390625 l 1,5,-1
 144 21.599609375 l 1,6,-1
 199.200195312 12.599609375 l 1,7,-1
 199.200195312 0 l 1,8,-1
 22.7998046875 0 l 1,9,-1
 22.7998046875 12.599609375 l 1,10,-1
 78 21.599609375 l 1,11,-1
 78 458.400390625 l 1,12,-1
 22.7998046875 466.799804688 l 1,13,-1
 22.7998046875 480 l 1,14,-1
 199.200195312 480 l 1,15,-1
 199.200195312 466.799804688 l 1,16,-1
 144 458.400390625 l 1,17,-1
 144 242.400390625 l 1,18,-1
 339 441.599609375 l 1,19,-1
 273.599609375 466.799804688 l 1,20,-1
 273.599609375 480 l 1,21,-1
 412.200195312 480 l 1,22,-1
 412.200195312 466.799804688 l 1,23,-1
 363 441.599609375 l 1,24,-1
 226.799804688 304.799804688 l 1,25,-1
 418.799804688 21.599609375 l 1,26,-1
 459.599609375 12.599609375 l 1,27,-1
 459.599609375 0 l 1,0,-1
EndSplineSet
Colour: ff0000
EndChar

StartChar: L
Encoding: 76 76 47
Width: 403
VWidth: 600
GlyphClass: 2
Flags: W
LayerCount: 2
Back
Fore
SplineSet
22.7998046875 480 m 1,0,-1
 199.200195312 480 l 1,1,-1
 199.200195312 466.799804688 l 1,2,-1
 144 458.400390625 l 1,3,-1
 144 14.400390625 l 1,4,-1
 323.400390625 14.400390625 l 1,5,-1
 372.599609375 146.400390625 l 1,6,-1
 388.799804688 146.400390625 l 1,7,-1
 388.799804688 0 l 1,8,-1
 22.7998046875 0 l 1,9,-1
 22.7998046875 12.599609375 l 1,10,-1
 78 21.599609375 l 1,11,-1
 78 458.400390625 l 1,12,-1
 22.7998046875 466.799804688 l 1,13,-1
 22.7998046875 480 l 1,0,-1
EndSplineSet
Colour: ff0000
EndChar

StartChar: M
Encoding: 77 77 48
Width: 604
VWidth: 600
GlyphClass: 2
Flags: W
LayerCount: 2
Back
Fore
SplineSet
79.2001953125 36.599609375 m 1,0,-1
 79.2001953125 458.400390625 l 1,1,-1
 24 466.799804688 l 1,2,-1
 24 480 l 1,3,-1
 156.599609375 480 l 1,4,-1
 307.200195312 94.7998046875 l 1,5,-1
 460.799804688 480 l 1,6,-1
 582 480 l 1,7,-1
 582 466.799804688 l 1,8,-1
 526.799804688 458.400390625 l 1,9,-1
 526.799804688 21.599609375 l 1,10,-1
 582 12.599609375 l 1,11,-1
 582 0 l 1,12,-1
 405.599609375 0 l 1,13,-1
 405.599609375 12.599609375 l 1,14,-1
 460.799804688 21.599609375 l 1,15,-1
 460.799804688 440.400390625 l 1,16,-1
 283.200195312 -6 l 1,17,-1
 272.400390625 -6 l 1,18,-1
 93.599609375 458.400390625 l 1,19,-1
 93.599609375 36.599609375 l 1,20,-1
 151.200195312 12.599609375 l 1,21,-1
 151.200195312 0 l 1,22,-1
 22.7998046875 0 l 1,23,-1
 22.7998046875 12.599609375 l 1,24,-1
 79.2001953125 36.599609375 l 1,0,-1
EndSplineSet
Colour: ff0000
EndChar

StartChar: N
Encoding: 78 78 49
Width: 486
VWidth: 600
GlyphClass: 2
Flags: W
LayerCount: 2
Back
Fore
SplineSet
80.400390625 36.599609375 m 1,0,-1
 80.400390625 443.400390625 l 1,1,-1
 24.599609375 466.799804688 l 1,2,-1
 24.599609375 480 l 1,3,-1
 136.200195312 480 l 1,4,-1
 394.799804688 117.599609375 l 1,5,-1
 394.799804688 443.400390625 l 1,6,-1
 339 466.799804688 l 1,7,-1
 339 480 l 1,8,-1
 466.799804688 480 l 1,9,-1
 466.799804688 466.799804688 l 1,10,-1
 409.799804688 443.400390625 l 1,11,-1
 409.799804688 0 l 1,12,-1
 394.799804688 0 l 1,13,-1
 95.400390625 420.599609375 l 1,14,-1
 95.400390625 36.599609375 l 1,15,-1
 153 12.599609375 l 1,16,-1
 153 0 l 1,17,-1
 24.599609375 0 l 1,18,-1
 24.599609375 12.599609375 l 1,19,-1
 80.400390625 36.599609375 l 1,0,-1
EndSplineSet
Colour: ff0000
EndChar

StartChar: O
Encoding: 79 79 50
Width: 513
VWidth: 600
GlyphClass: 2
Flags: W
LayerCount: 2
Back
Fore
SplineSet
30.599609375 240 m 0,0,1
 30.599609375 296.400390625 30.599609375 296.400390625 47.400390625 342.599609375 c 128,-1,2
 64.2001953125 388.799804688 64.2001953125 388.799804688 94.7998046875 422.400390625 c 0,3,4
 158.400390625 492 158.400390625 492 256.799804688 492 c 0,5,6
 306 492 306 492 347.700195312 473.400390625 c 128,-1,7
 389.400390625 454.799804688 389.400390625 454.799804688 419.400390625 421.200195312 c 0,8,9
 483 351 483 351 483 240 c 0,10,11
 483 129.599609375 483 129.599609375 420 58.7998046875 c 0,12,13
 390 25.2001953125 390 25.2001953125 348.299804688 6.599609375 c 128,-1,14
 306.599609375 -12 306.599609375 -12 256.799804688 -12 c 0,15,16
 157.799804688 -12 157.799804688 -12 94.2001953125 58.5 c 128,-1,17
 30.599609375 129 30.599609375 129 30.599609375 240 c 0,0,1
408.599609375 193.799804688 m 2,18,-1
 408.599609375 286.200195312 l 2,19,20
 408.599609375 373.200195312 408.599609375 373.200195312 366 426 c 0,21,22
 324 478.200195312 324 478.200195312 256.799804688 478.200195312 c 256,23,24
 189.599609375 478.200195312 189.599609375 478.200195312 147.599609375 426 c 0,25,26
 105 373.200195312 105 373.200195312 105 286.200195312 c 2,27,-1
 105 193.799804688 l 2,28,29
 105 105 105 105 147.599609375 52.7998046875 c 0,30,31
 189.599609375 1.7998046875 189.599609375 1.7998046875 256.799804688 1.7998046875 c 128,-1,32
 324 1.7998046875 324 1.7998046875 366 52.7998046875 c 0,33,34
 408.599609375 105 408.599609375 105 408.599609375 193.799804688 c 2,18,-1
EndSplineSet
Colour: ff0000
EndChar

StartChar: P
Encoding: 80 80 51
Width: 405
VWidth: 600
GlyphClass: 2
Flags: W
LayerCount: 2
Back
Fore
SplineSet
211.200195312 186 m 2,0,-1
 144 186 l 1,1,-1
 144 21.599609375 l 1,2,-1
 199.200195312 12.599609375 l 1,3,-1
 199.200195312 0 l 1,4,-1
 22.7998046875 0 l 1,5,-1
 22.7998046875 12.599609375 l 1,6,-1
 78 21.599609375 l 1,7,-1
 78 458.400390625 l 1,8,-1
 22.7998046875 466.799804688 l 1,9,-1
 22.7998046875 480 l 1,10,-1
 211.200195312 480 l 2,11,12
 386.400390625 480 386.400390625 480 386.400390625 333 c 256,13,14
 386.400390625 186 386.400390625 186 211.200195312 186 c 2,0,-1
202.799804688 465 m 2,15,-1
 144 465 l 1,16,-1
 144 200.400390625 l 1,17,-1
 202.799804688 200.400390625 l 2,18,19
 313.799804688 200.400390625 313.799804688 200.400390625 313.799804688 321 c 2,20,-1
 313.799804688 345 l 2,21,22
 313.799804688 465 313.799804688 465 202.799804688 465 c 2,15,-1
EndSplineSet
Colour: ff0000
EndChar

StartChar: Q
Encoding: 81 81 52
Width: 513
VWidth: 600
GlyphClass: 2
Flags: W
LayerCount: 2
Back
Fore
SplineSet
367.799804688 -124.799804688 m 1,0,-1
 367.799804688 -138.599609375 l 1,1,-1
 348 -138.599609375 l 2,2,3
 220.799804688 -138.599609375 220.799804688 -138.599609375 220.799804688 -34.7998046875 c 2,4,-1
 220.799804688 -9 l 1,5,6
 135 3 135 3 82.7998046875 70.7998046875 c 0,7,8
 30.599609375 139.799804688 30.599609375 139.799804688 30.599609375 240 c 0,9,10
 30.599609375 351.599609375 30.599609375 351.599609375 94.7998046875 422.400390625 c 0,11,12
 158.400390625 492 158.400390625 492 256.799804688 492 c 0,13,14
 306 492 306 492 347.700195312 473.400390625 c 128,-1,15
 389.400390625 454.799804688 389.400390625 454.799804688 419.400390625 421.200195312 c 0,16,17
 483 351 483 351 483 240 c 0,18,19
 483 141 483 141 430.799804688 73.2001953125 c 0,20,21
 378.599609375 4.2001953125 378.599609375 4.2001953125 294.599609375 -9 c 1,22,-1
 294.599609375 -49.2001953125 l 2,23,24
 294.599609375 -124.799804688 294.599609375 -124.799804688 367.799804688 -124.799804688 c 1,0,-1
148.200195312 53.099609375 m 128,-1,26
 190.200195312 1.7998046875 190.200195312 1.7998046875 256.5 1.7998046875 c 128,-1,27
 322.799804688 1.7998046875 322.799804688 1.7998046875 365.099609375 53.099609375 c 128,-1,28
 407.400390625 104.400390625 407.400390625 104.400390625 407.400390625 193.799804688 c 2,29,-1
 407.400390625 286.200195312 l 2,30,31
 407.400390625 375.599609375 407.400390625 375.599609375 365.099609375 426.900390625 c 128,-1,32
 322.799804688 478.200195312 322.799804688 478.200195312 256.5 478.200195312 c 128,-1,33
 190.200195312 478.200195312 190.200195312 478.200195312 148.200195312 426.900390625 c 128,-1,34
 106.200195312 375.599609375 106.200195312 375.599609375 106.200195312 286.200195312 c 2,35,-1
 106.200195312 193.799804688 l 2,36,25
 106.200195312 104.400390625 106.200195312 104.400390625 148.200195312 53.099609375 c 128,-1,26
EndSplineSet
Colour: ff0000
EndChar

StartChar: R
Encoding: 82 82 53
Width: 435
VWidth: 600
GlyphClass: 2
Flags: W
LayerCount: 2
Back
Fore
SplineSet
437.400390625 41.400390625 m 1,0,-1
 447.599609375 30.599609375 l 1,1,2
 415.200195312 -6 415.200195312 -6 371.400390625 -6 c 0,3,4
 337.799804688 -6 337.799804688 -6 321 10.2001953125 c 128,-1,5
 304.200195312 26.400390625 304.200195312 26.400390625 298.200195312 65.400390625 c 2,6,-1
 286.799804688 145.799804688 l 2,7,8
 274.200195312 232.799804688 274.200195312 232.799804688 190.799804688 232.799804688 c 2,9,-1
 144 232.799804688 l 1,10,-1
 144 21.599609375 l 1,11,-1
 199.200195312 12.599609375 l 1,12,-1
 199.200195312 0 l 1,13,-1
 22.7998046875 0 l 1,14,-1
 22.7998046875 12.599609375 l 1,15,-1
 78 21.599609375 l 1,16,-1
 78 458.400390625 l 1,17,-1
 22.7998046875 466.799804688 l 1,18,-1
 22.7998046875 480 l 1,19,-1
 190.799804688 480 l 2,20,21
 288.599609375 480 288.599609375 480 332.400390625 449.400390625 c 128,-1,22
 376.200195312 418.799804688 376.200195312 418.799804688 376.200195312 356.400390625 c 0,23,24
 376.200195312 253.200195312 376.200195312 253.200195312 251.400390625 237 c 1,25,-1
 251.400390625 233.400390625 l 1,26,27
 345.599609375 220.200195312 345.599609375 220.200195312 360.599609375 130.200195312 c 2,28,-1
 368.400390625 78.599609375 l 2,29,30
 373.200195312 48.599609375 373.200195312 48.599609375 378.599609375 36 c 0,31,32
 385.200195312 21 385.200195312 21 401.400390625 21 c 128,-1,33
 417.599609375 21 417.599609375 21 437.400390625 41.400390625 c 1,0,-1
190.799804688 465 m 2,34,-1
 144 465 l 1,35,-1
 144 247.200195312 l 1,36,-1
 211.200195312 247.200195312 l 2,37,38
 255 247.200195312 255 247.200195312 279.299804688 273.900390625 c 128,-1,39
 303.599609375 300.599609375 303.599609375 300.599609375 303.599609375 352.799804688 c 2,40,-1
 303.599609375 365.400390625 l 2,41,42
 303.599609375 465 303.599609375 465 190.799804688 465 c 2,34,-1
EndSplineSet
Colour: ff0000
EndChar

StartChar: S
Encoding: 83 83 54
Width: 390
VWidth: 600
GlyphClass: 2
Flags: W
LayerCount: 2
Back
Fore
SplineSet
322.200195312 492 m 1,0,-1
 335.400390625 492 l 1,1,-1
 335.400390625 369.599609375 l 1,2,-1
 322.200195312 369.599609375 l 1,3,-1
 279 457.200195312 l 1,4,5
 234 478.799804688 234 478.799804688 181.5 478.799804688 c 128,-1,6
 129 478.799804688 129 478.799804688 99 452.099609375 c 128,-1,7
 69 425.400390625 69 425.400390625 69 381.599609375 c 0,8,9
 69 349.200195312 69 349.200195312 90.2998046875 330.599609375 c 128,-1,10
 111.599609375 312 111.599609375 312 153 301.200195312 c 2,11,-1
 260.400390625 273 l 2,12,13
 312.599609375 259.799804688 312.599609375 259.799804688 338.099609375 227.700195312 c 128,-1,14
 363.599609375 195.599609375 363.599609375 195.599609375 363.599609375 129.599609375 c 128,-1,15
 363.599609375 63.599609375 363.599609375 63.599609375 322.5 25.7998046875 c 128,-1,16
 281.400390625 -12 281.400390625 -12 212.400390625 -12 c 0,17,18
 156.599609375 -12 156.599609375 -12 102.599609375 19.7998046875 c 1,19,-1
 51.599609375 -6 l 1,20,-1
 38.400390625 -6 l 1,21,-1
 38.400390625 148.200195312 l 1,22,-1
 51.599609375 148.200195312 l 1,23,-1
 103.200195312 36.599609375 l 1,24,25
 153 1.2001953125 153 1.2001953125 211.5 1.2001953125 c 128,-1,26
 270 1.2001953125 270 1.2001953125 304.5 29.099609375 c 128,-1,27
 339 57 339 57 339 107.400390625 c 0,28,29
 339 144 339 144 316.799804688 165.299804688 c 128,-1,30
 294.599609375 186.599609375 294.599609375 186.599609375 244.799804688 199.200195312 c 2,31,-1
 145.200195312 225 l 2,32,33
 93 238.799804688 93 238.799804688 66.599609375 272.099609375 c 128,-1,34
 40.2001953125 305.400390625 40.2001953125 305.400390625 40.2001953125 351 c 0,35,36
 40.2001953125 414.599609375 40.2001953125 414.599609375 77.400390625 453.299804688 c 128,-1,37
 114.599609375 492 114.599609375 492 180.599609375 492 c 0,38,39
 235.200195312 492 235.200195312 492 278.400390625 473.400390625 c 1,40,-1
 322.200195312 492 l 1,0,-1
EndSplineSet
Colour: ff0000
EndChar

StartChar: T
Encoding: 84 84 55
Width: 418
VWidth: 600
GlyphClass: 2
Flags: W
LayerCount: 2
Back
Fore
SplineSet
387 346.200195312 m 1,0,-1
 342 465 l 1,1,-1
 242.400390625 465 l 1,2,-1
 242.400390625 21.599609375 l 1,3,-1
 297.599609375 12.599609375 l 1,4,-1
 297.599609375 0 l 1,5,-1
 121.200195312 0 l 1,6,-1
 121.200195312 12.599609375 l 1,7,-1
 176.400390625 21.599609375 l 1,8,-1
 176.400390625 465 l 1,9,-1
 77.400390625 465 l 1,10,-1
 31.7998046875 346.200195312 l 1,11,-1
 14.400390625 346.200195312 l 1,12,-1
 14.400390625 480 l 1,13,-1
 405 480 l 1,14,-1
 405 346.200195312 l 1,15,-1
 387 346.200195312 l 1,0,-1
EndSplineSet
Colour: ff0000
EndChar

StartChar: U
Encoding: 85 85 56
Width: 484
VWidth: 600
GlyphClass: 2
Flags: W
LayerCount: 2
Back
Fore
SplineSet
411.599609375 131.400390625 m 2,0,1
 411.599609375 59.400390625 411.599609375 59.400390625 371.400390625 23.7001953125 c 128,-1,2
 331.200195312 -12 331.200195312 -12 241.799804688 -12 c 128,-1,3
 152.400390625 -12 152.400390625 -12 111.599609375 27.2998046875 c 128,-1,4
 70.7998046875 66.599609375 70.7998046875 66.599609375 70.7998046875 131.400390625 c 2,5,-1
 70.7998046875 458.400390625 l 1,6,-1
 15.599609375 466.799804688 l 1,7,-1
 15.599609375 480 l 1,8,-1
 192 480 l 1,9,-1
 192 466.799804688 l 1,10,-1
 136.799804688 458.400390625 l 1,11,-1
 136.799804688 131.400390625 l 2,12,13
 136.799804688 9.599609375 136.799804688 9.599609375 270 9.599609375 c 0,14,15
 397.200195312 9.599609375 397.200195312 9.599609375 397.200195312 131.400390625 c 2,16,-1
 397.200195312 443.400390625 l 1,17,-1
 341.400390625 466.799804688 l 1,18,-1
 341.400390625 480 l 1,19,-1
 469.200195312 480 l 1,20,-1
 469.200195312 466.799804688 l 1,21,-1
 411.599609375 443.400390625 l 1,22,-1
 411.599609375 131.400390625 l 2,0,1
EndSplineSet
Colour: ff0000
EndChar

StartChar: V
Encoding: 86 86 57
Width: 415
VWidth: 600
GlyphClass: 2
Flags: W
LayerCount: 2
Back
Fore
SplineSet
204 -12 m 1,0,-1
 31.2001953125 458.400390625 l 1,1,-1
 -16.7998046875 466.799804688 l 1,2,-1
 -16.7998046875 480 l 1,3,-1
 159 480 l 1,4,-1
 159 466.799804688 l 1,5,-1
 102.599609375 459.599609375 l 1,6,-1
 234.599609375 100.200195312 l 1,7,-1
 364.200195312 439.799804688 l 1,8,-1
 295.200195312 466.799804688 l 1,9,-1
 295.200195312 480 l 1,10,-1
 424.200195312 480 l 1,11,-1
 424.200195312 466.799804688 l 1,12,-1
 380.400390625 440.400390625 l 1,13,-1
 208.799804688 -12 l 1,14,-1
 204 -12 l 1,0,-1
EndSplineSet
Colour: ff0000
EndChar

StartChar: W
Encoding: 87 87 58
Width: 649
VWidth: 600
GlyphClass: 2
Flags: W
LayerCount: 2
Back
Fore
SplineSet
534.599609375 466.799804688 m 1,0,-1
 534.599609375 480 l 1,1,-1
 663.599609375 480 l 1,2,-1
 663.599609375 466.799804688 l 1,3,-1
 618 440.400390625 l 1,4,-1
 446.400390625 -12 l 1,5,-1
 441.599609375 -12 l 1,6,-1
 324.599609375 311.400390625 l 1,7,-1
 202.200195312 -12 l 1,8,-1
 197.400390625 -12 l 1,9,-1
 28.2001953125 458.400390625 l 1,10,-1
 -12 466.799804688 l 1,11,-1
 -12 480 l 1,12,-1
 154.799804688 480 l 1,13,-1
 154.799804688 466.799804688 l 1,14,-1
 100.200195312 458.400390625 l 1,15,-1
 229.200195312 103.200195312 l 1,16,-1
 316.799804688 332.400390625 l 1,17,-1
 271.799804688 458.400390625 l 1,18,-1
 216.599609375 466.799804688 l 1,19,-1
 216.599609375 480 l 1,20,-1
 394.799804688 480 l 1,21,-1
 394.799804688 466.799804688 l 1,22,-1
 343.200195312 459.599609375 l 1,23,-1
 473.400390625 103.799804688 l 1,24,-1
 602.400390625 439.799804688 l 1,25,-1
 534.599609375 466.799804688 l 1,0,-1
EndSplineSet
Colour: ff0000
EndChar

StartChar: X
Encoding: 88 88 59
Width: 456
VWidth: 600
GlyphClass: 2
Flags: W
LayerCount: 2
Back
Fore
SplineSet
144.599609375 12.599609375 m 1,0,-1
 144.599609375 0 l 1,1,-1
 1.2001953125 0 l 1,2,-1
 1.2001953125 12.599609375 l 1,3,-1
 60.599609375 46.2001953125 l 1,4,-1
 198 229.799804688 l 1,5,-1
 46.2001953125 458.400390625 l 1,6,-1
 -4.7998046875 466.799804688 l 1,7,-1
 -4.7998046875 480 l 1,8,-1
 177 480 l 1,9,-1
 177 466.799804688 l 1,10,-1
 129.599609375 459.599609375 l 1,11,-1
 246 283.200195312 l 1,12,-1
 361.799804688 438 l 1,13,-1
 290.400390625 466.799804688 l 1,14,-1
 290.400390625 480 l 1,15,-1
 433.799804688 480 l 1,16,-1
 433.799804688 466.799804688 l 1,17,-1
 376.799804688 435 l 1,18,-1
 254.400390625 271.200195312 l 1,19,-1
 420.599609375 21 l 1,20,-1
 472.200195312 12.599609375 l 1,21,-1
 472.200195312 0 l 1,22,-1
 289.799804688 0 l 1,23,-1
 289.799804688 12.599609375 l 1,24,-1
 337.200195312 20.400390625 l 1,25,-1
 206.400390625 217.200195312 l 1,26,-1
 73.7998046875 40.7998046875 l 1,27,-1
 144.599609375 12.599609375 l 1,0,-1
EndSplineSet
Colour: ff0000
EndChar

StartChar: Y
Encoding: 89 89 60
Width: 405
VWidth: 600
GlyphClass: 2
Flags: W
LayerCount: 2
Back
Fore
SplineSet
239.400390625 223.799804688 m 1,0,-1
 239.400390625 21.599609375 l 1,1,-1
 295.200195312 12.599609375 l 1,2,-1
 295.200195312 0 l 1,3,-1
 118.799804688 0 l 1,4,-1
 118.799804688 12.599609375 l 1,5,-1
 174.599609375 21.599609375 l 1,6,-1
 174.599609375 204 l 1,7,-1
 28.7998046875 458.400390625 l 1,8,-1
 -18.599609375 466.799804688 l 1,9,-1
 -18.599609375 480 l 1,10,-1
 162 480 l 1,11,-1
 162 466.799804688 l 1,12,-1
 106.200195312 458.400390625 l 1,13,-1
 232.200195312 240.599609375 l 1,14,-1
 348 438 l 1,15,-1
 276 466.799804688 l 1,16,-1
 276 480 l 1,17,-1
 410.400390625 480 l 1,18,-1
 410.400390625 466.799804688 l 1,19,-1
 364.200195312 437.400390625 l 1,20,-1
 239.400390625 223.799804688 l 1,0,-1
EndSplineSet
Colour: ff0000
EndChar

StartChar: Z
Encoding: 90 90 61
Width: 409
VWidth: 600
GlyphClass: 2
Flags: W
LayerCount: 2
Back
Fore
SplineSet
48 480 m 1,0,-1
 378 480 l 1,1,-1
 378 465 l 1,2,-1
 96.599609375 14.400390625 l 1,3,-1
 306.599609375 14.400390625 l 1,4,-1
 368.400390625 137.400390625 l 1,5,-1
 384 137.400390625 l 1,6,-1
 369.599609375 0 l 1,7,-1
 16.2001953125 0 l 1,8,-1
 16.2001953125 14.400390625 l 1,9,-1
 297 465 l 1,10,-1
 111 465 l 1,11,-1
 49.2001953125 351 l 1,12,-1
 33.599609375 351 l 1,13,-1
 48 480 l 1,0,-1
EndSplineSet
Colour: ff0000
EndChar

StartChar: bracketleft
Encoding: 91 91 62
Width: 186
VWidth: 600
GlyphClass: 2
Flags: W
LayerCount: 2
Back
Fore
SplineSet
180 -111 m 1,0,-1
 51.599609375 -111 l 1,1,-1
 51.599609375 538.200195312 l 1,2,-1
 180 538.200195312 l 1,3,-1
 180 520.200195312 l 1,4,-1
 112.200195312 520.200195312 l 1,5,-1
 112.200195312 -93 l 1,6,-1
 180 -93 l 1,7,-1
 180 -111 l 1,0,-1
EndSplineSet
Colour: ff0000
EndChar

StartChar: backslash
Encoding: 92 92 63
Width: 261
VWidth: 600
GlyphClass: 2
Flags: W
LayerCount: 2
Back
Fore
SplineSet
211.200195312 0 m 1,0,-1
 25.2001953125 420 l 1,1,-1
 55.7998046875 420 l 1,2,-1
 242.400390625 0 l 1,3,-1
 211.200195312 0 l 1,0,-1
EndSplineSet
Colour: ff0000
EndChar

StartChar: asciicircum
Encoding: 94 94 65
Width: 344
VWidth: 600
GlyphClass: 2
Flags: W
LayerCount: 2
Back
Fore
SplineSet
160.200195312 404.400390625 m 1,0,-1
 183.599609375 404.400390625 l 1,1,-1
 307.200195312 160.200195312 l 1,2,-1
 277.200195312 160.200195312 l 1,3,-1
 171.599609375 367.200195312 l 1,4,-1
 66.599609375 160.200195312 l 1,5,-1
 36.599609375 160.200195312 l 1,6,-1
 160.200195312 404.400390625 l 1,0,-1
EndSplineSet
Colour: ff0000
EndChar

StartChar: underscore
Encoding: 95 95 66
Width: 275
VWidth: 600
GlyphClass: 2
Flags: W
LayerCount: 2
Back
Fore
SplineSet
275.400390625 -46.7998046875 m 1,0,-1
 275.400390625 -67.7998046875 l 1,1,-1
 0 -67.7998046875 l 1,2,-1
 0 -46.7998046875 l 1,3,-1
 275.400390625 -46.7998046875 l 1,0,-1
EndSplineSet
Colour: ff0000
EndChar

StartChar: grave
Encoding: 96 96 67
Width: 132
VWidth: 600
GlyphClass: 2
Flags: W
LayerCount: 2
Back
Fore
SplineSet
-1.7998046875 412.200195312 m 2,0,1
 -12 420.599609375 -12 420.599609375 -12 432.599609375 c 128,-1,2
 -12 444.599609375 -12 444.599609375 -3.599609375 453 c 128,-1,3
 4.7998046875 461.400390625 4.7998046875 461.400390625 16.2001953125 461.400390625 c 0,4,5
 34.2001953125 461.400390625 34.2001953125 461.400390625 42.599609375 444.599609375 c 2,6,-1
 86.400390625 349.799804688 l 1,7,-1
 76.7998046875 342.599609375 l 1,8,-1
 -1.7998046875 412.200195312 l 2,0,1
EndSplineSet
Colour: ff0000
EndChar

StartChar: a
Encoding: 97 97 68
Width: 334
VWidth: 600
GlyphClass: 2
Flags: W
LayerCount: 2
Back
Fore
SplineSet
219.599609375 59.400390625 m 1,0,1
 204.599609375 28.7998046875 204.599609375 28.7998046875 174.599609375 11.400390625 c 128,-1,2
 144.599609375 -6 144.599609375 -6 107.400390625 -6 c 128,-1,3
 70.2001953125 -6 70.2001953125 -6 46.2001953125 14.099609375 c 128,-1,4
 22.2001953125 34.2001953125 22.2001953125 34.2001953125 22.2001953125 69.2998046875 c 128,-1,5
 22.2001953125 104.400390625 22.2001953125 104.400390625 37.2001953125 124.5 c 128,-1,6
 52.2001953125 144.599609375 52.2001953125 144.599609375 76.7998046875 157.200195312 c 0,7,8
 120.599609375 178.799804688 120.599609375 178.799804688 197.400390625 178.799804688 c 2,9,-1
 219.599609375 178.799804688 l 1,10,-1
 219.599609375 235.799804688 l 2,11,12
 219.599609375 303 219.599609375 303 158.400390625 303 c 0,13,14
 131.400390625 303 131.400390625 303 114 290.400390625 c 128,-1,15
 96.599609375 277.799804688 96.599609375 277.799804688 96.599609375 261.299804688 c 128,-1,16
 96.599609375 244.799804688 96.599609375 244.799804688 113.400390625 239.400390625 c 1,17,18
 113.400390625 224.400390625 113.400390625 224.400390625 102 213 c 128,-1,19
 90.599609375 201.599609375 90.599609375 201.599609375 75 201.599609375 c 256,20,21
 59.400390625 201.599609375 59.400390625 201.599609375 48.599609375 212.700195312 c 128,-1,22
 37.7998046875 223.799804688 37.7998046875 223.799804688 37.7998046875 240.299804688 c 128,-1,23
 37.7998046875 256.799804688 37.7998046875 256.799804688 47.7001953125 270.900390625 c 128,-1,24
 57.599609375 285 57.599609375 285 74.400390625 295.200195312 c 0,25,26
 108 316.200195312 108 316.200195312 158.400390625 316.200195312 c 0,27,28
 279.599609375 316.200195312 279.599609375 316.200195312 279.599609375 223.799804688 c 2,29,-1
 279.599609375 40.2001953125 l 2,30,31
 279.599609375 13.2001953125 279.599609375 13.2001953125 301.799804688 13.2001953125 c 256,32,33
 324 13.2001953125 324 13.2001953125 324 39 c 1,34,-1
 336.599609375 39 l 1,35,36
 336.599609375 18 336.599609375 18 322.799804688 6 c 128,-1,37
 309 -6 309 -6 283.200195312 -6 c 256,38,39
 257.400390625 -6 257.400390625 -6 238.799804688 10.2001953125 c 128,-1,40
 220.200195312 26.400390625 220.200195312 26.400390625 219.599609375 59.400390625 c 1,0,1
219.599609375 102 m 1,41,-1
 219.599609375 163.799804688 l 1,42,-1
 197.400390625 163.799804688 l 2,43,44
 150.599609375 163.799804688 150.599609375 163.799804688 119.099609375 141.599609375 c 128,-1,45
 87.599609375 119.400390625 87.599609375 119.400390625 87.599609375 73.7998046875 c 0,46,47
 87.599609375 49.7998046875 87.599609375 49.7998046875 100.799804688 36 c 128,-1,48
 114 22.2001953125 114 22.2001953125 140.099609375 22.2001953125 c 128,-1,49
 166.200195312 22.2001953125 166.200195312 22.2001953125 191.099609375 43.7998046875 c 128,-1,50
 216 65.400390625 216 65.400390625 219.599609375 102 c 1,41,-1
EndSplineSet
Colour: ff0000
EndChar

StartChar: b
Encoding: 98 98 69
Width: 384
VWidth: 600
GlyphClass: 2
Flags: W
LayerCount: 2
Back
Fore
SplineSet
12 0 m 1,0,-1
 12 12 l 1,1,-1
 54 18 l 1,2,-1
 54 462 l 1,3,-1
 12 468 l 1,4,-1
 12 480 l 1,5,-1
 114 480 l 1,6,-1
 114 247.799804688 l 1,7,8
 146.400390625 316.200195312 146.400390625 316.200195312 215.400390625 316.200195312 c 0,9,10
 280.799804688 316.200195312 280.799804688 316.200195312 319.799804688 271.5 c 128,-1,11
 358.799804688 226.799804688 358.799804688 226.799804688 358.799804688 155.400390625 c 0,12,13
 358.799804688 83.400390625 358.799804688 83.400390625 319.799804688 38.7001953125 c 128,-1,14
 280.799804688 -6 280.799804688 -6 213.599609375 -6 c 128,-1,15
 146.400390625 -6 146.400390625 -6 114 62.400390625 c 1,16,-1
 114 0 l 1,17,-1
 12 0 l 1,0,-1
292.799804688 125.400390625 m 2,18,-1
 292.799804688 185.400390625 l 2,19,20
 292.799804688 301.200195312 292.799804688 301.200195312 209.400390625 301.200195312 c 0,21,22
 169.200195312 301.200195312 169.200195312 301.200195312 142.200195312 268.5 c 128,-1,23
 115.200195312 235.799804688 115.200195312 235.799804688 114 189.599609375 c 2,24,-1
 114 125.400390625 l 2,25,26
 114 78 114 78 141.299804688 43.5 c 128,-1,27
 168.599609375 9 168.599609375 9 209.400390625 9 c 0,28,29
 292.799804688 9 292.799804688 9 292.799804688 125.400390625 c 2,18,-1
EndSplineSet
Colour: ff0000
EndChar

StartChar: c
Encoding: 99 99 70
Width: 325
VWidth: 600
GlyphClass: 2
Flags: W
LayerCount: 2
Back
Fore
SplineSet
228.599609375 221.400390625 m 1,0,1
 244.799804688 232.799804688 244.799804688 232.799804688 244.799804688 253.799804688 c 128,-1,2
 244.799804688 274.799804688 244.799804688 274.799804688 227.099609375 288.900390625 c 128,-1,3
 209.400390625 303 209.400390625 303 180 303 c 0,4,5
 136.799804688 303 136.799804688 303 113.700195312 272.099609375 c 128,-1,6
 90.599609375 241.200195312 90.599609375 241.200195312 90.599609375 185.400390625 c 2,7,-1
 90.599609375 125.400390625 l 2,8,9
 90.599609375 72 90.599609375 72 113.099609375 39.599609375 c 128,-1,10
 135.599609375 7.2001953125 135.599609375 7.2001953125 178.200195312 7.2001953125 c 128,-1,11
 220.799804688 7.2001953125 220.799804688 7.2001953125 251.099609375 30.2998046875 c 128,-1,12
 281.400390625 53.400390625 281.400390625 53.400390625 288.599609375 91.2001953125 c 1,13,-1
 302.400390625 91.2001953125 l 1,14,15
 294 46.7998046875 294 46.7998046875 260.700195312 20.400390625 c 128,-1,16
 227.400390625 -6 227.400390625 -6 180 -6 c 0,17,18
 114 -6 114 -6 69.2998046875 38.7001953125 c 128,-1,19
 24.599609375 83.400390625 24.599609375 83.400390625 24.599609375 156.599609375 c 128,-1,20
 24.599609375 229.799804688 24.599609375 229.799804688 70.7998046875 273 c 128,-1,21
 117 316.200195312 117 316.200195312 180 316.200195312 c 0,22,23
 232.200195312 316.200195312 232.200195312 316.200195312 267.900390625 290.099609375 c 128,-1,24
 303.599609375 264 303.599609375 264 303.599609375 224.400390625 c 0,25,26
 303.599609375 204.599609375 303.599609375 204.599609375 293.400390625 194.099609375 c 128,-1,27
 283.200195312 183.599609375 283.200195312 183.599609375 266.700195312 183.599609375 c 128,-1,28
 250.200195312 183.599609375 250.200195312 183.599609375 239.400390625 194.400390625 c 128,-1,29
 228.599609375 205.200195312 228.599609375 205.200195312 228.599609375 221.400390625 c 1,0,1
EndSplineSet
Colour: ff0000
EndChar

StartChar: d
Encoding: 100 100 71
Width: 384
VWidth: 600
GlyphClass: 2
Flags: W
LayerCount: 2
Back
Fore
SplineSet
270 0 m 1,0,-1
 270 62.400390625 l 1,1,2
 237.599609375 -6 237.599609375 -6 168.599609375 -6 c 0,3,4
 103.799804688 -6 103.799804688 -6 64.7998046875 38.400390625 c 0,5,6
 25.2001953125 82.2001953125 25.2001953125 82.2001953125 25.2001953125 155.400390625 c 256,7,8
 25.2001953125 228.599609375 25.2001953125 228.599609375 64.7998046875 272.400390625 c 0,9,10
 103.799804688 316.200195312 103.799804688 316.200195312 170.700195312 316.200195312 c 128,-1,11
 237.599609375 316.200195312 237.599609375 316.200195312 270 247.799804688 c 1,12,-1
 270 462 l 1,13,-1
 228 468 l 1,14,-1
 228 480 l 1,15,-1
 330 480 l 1,16,-1
 330 18 l 1,17,-1
 372 12 l 1,18,-1
 372 0 l 1,19,-1
 270 0 l 1,0,-1
91.2001953125 185.400390625 m 2,20,-1
 91.2001953125 125.400390625 l 2,21,22
 91.2001953125 9 91.2001953125 9 174.599609375 9 c 0,23,24
 214.200195312 9 214.200195312 9 241.5 41.7001953125 c 128,-1,25
 268.799804688 74.400390625 268.799804688 74.400390625 270 120.599609375 c 2,26,-1
 270 189.599609375 l 2,27,28
 268.799804688 235.799804688 268.799804688 235.799804688 241.5 268.5 c 128,-1,29
 214.200195312 301.200195312 214.200195312 301.200195312 174.599609375 301.200195312 c 0,30,31
 91.2001953125 301.200195312 91.2001953125 301.200195312 91.2001953125 185.400390625 c 2,20,-1
EndSplineSet
Colour: ff0000
EndChar

StartChar: e
Encoding: 101 101 72
Width: 334
VWidth: 600
GlyphClass: 2
Flags: W
LayerCount: 2
Back
Fore
SplineSet
181.799804688 7.2001953125 m 0,0,1
 203.400390625 7.2001953125 203.400390625 7.2001953125 222.299804688 13.5 c 128,-1,2
 241.200195312 19.7998046875 241.200195312 19.7998046875 256.200195312 31.2001953125 c 0,3,4
 288 54.599609375 288 54.599609375 295.200195312 91.2001953125 c 1,5,-1
 309 91.2001953125 l 1,6,7
 300.599609375 46.2001953125 300.599609375 46.2001953125 266.400390625 20.099609375 c 128,-1,8
 232.200195312 -6 232.200195312 -6 183 -6 c 0,9,10
 115.200195312 -6 115.200195312 -6 69.599609375 38.400390625 c 0,11,12
 24.599609375 82.7998046875 24.599609375 82.7998046875 24.599609375 155.400390625 c 0,13,14
 24.599609375 226.200195312 24.599609375 226.200195312 69.599609375 271.799804688 c 0,15,16
 112.799804688 316.200195312 112.799804688 316.200195312 179.400390625 316.200195312 c 0,17,18
 237.599609375 316.200195312 237.599609375 316.200195312 273.599609375 279.599609375 c 0,19,20
 310.200195312 241.799804688 310.200195312 241.799804688 311.400390625 184.799804688 c 1,21,-1
 90.599609375 184.799804688 l 1,22,-1
 90.599609375 125.400390625 l 2,23,24
 90.599609375 72 90.599609375 72 114 40.2001953125 c 0,25,26
 139.200195312 7.2001953125 139.200195312 7.2001953125 181.799804688 7.2001953125 c 0,0,1
178.799804688 303 m 0,27,28
 138.599609375 303 138.599609375 303 116.400390625 274.799804688 c 128,-1,29
 94.2001953125 246.599609375 94.2001953125 246.599609375 91.2001953125 199.799804688 c 1,30,-1
 245.400390625 199.799804688 l 1,31,32
 245.400390625 303 245.400390625 303 178.799804688 303 c 0,27,28
EndSplineSet
Colour: ff0000
EndChar

StartChar: f
Encoding: 102 102 73
Width: 205
VWidth: 600
GlyphClass: 2
Flags: W
LayerCount: 2
Back
Fore
SplineSet
15.599609375 0 m 1,0,-1
 15.599609375 12 l 1,1,-1
 57.599609375 18 l 1,2,-1
 57.599609375 292.799804688 l 1,3,-1
 15.599609375 298.799804688 l 1,4,-1
 15.599609375 310.799804688 l 1,5,-1
 57.599609375 310.799804688 l 1,6,-1
 57.599609375 361.200195312 l 2,7,8
 57.599609375 486 57.599609375 486 160.799804688 486 c 0,9,10
 196.200195312 486 196.200195312 486 219.299804688 468.900390625 c 128,-1,11
 242.400390625 451.799804688 242.400390625 451.799804688 242.400390625 422.400390625 c 0,12,13
 242.400390625 404.400390625 242.400390625 404.400390625 232.5 393 c 128,-1,14
 222.599609375 381.599609375 222.599609375 381.599609375 206.700195312 381.599609375 c 128,-1,15
 190.799804688 381.599609375 190.799804688 381.599609375 179.400390625 393 c 128,-1,16
 168 404.400390625 168 404.400390625 168 419.400390625 c 1,17,18
 188.400390625 425.400390625 188.400390625 425.400390625 188.400390625 447.599609375 c 0,19,20
 188.400390625 457.799804688 188.400390625 457.799804688 180.299804688 465.299804688 c 128,-1,21
 172.200195312 472.799804688 172.200195312 472.799804688 160.799804688 472.799804688 c 0,22,23
 137.400390625 472.799804688 137.400390625 472.799804688 127.5 450.900390625 c 128,-1,24
 117.599609375 429 117.599609375 429 117.599609375 379.799804688 c 2,25,-1
 117.599609375 310.799804688 l 1,26,-1
 195.599609375 310.799804688 l 1,27,-1
 195.599609375 298.799804688 l 1,28,-1
 117.599609375 292.799804688 l 1,29,-1
 117.599609375 18 l 1,30,-1
 189 12 l 1,31,-1
 189 0 l 1,32,-1
 15.599609375 0 l 1,0,-1
EndSplineSet
Colour: ff0000
EndChar

StartChar: g
Encoding: 103 103 74
Width: 323
VWidth: 600
GlyphClass: 2
Flags: W
LayerCount: 2
Back
Fore
SplineSet
228.599609375 -16.2001953125 m 2,0,-1
 111.599609375 -16.2001953125 l 2,1,2
 27 -16.2001953125 27 -16.2001953125 27 43.2001953125 c 0,3,4
 27 70.2001953125 27 70.2001953125 41.7001953125 87.599609375 c 128,-1,5
 56.400390625 105 56.400390625 105 81.599609375 109.799804688 c 1,6,7
 34.7998046875 140.400390625 34.7998046875 140.400390625 34.7998046875 202.799804688 c 0,8,9
 34.7998046875 255.599609375 34.7998046875 255.599609375 69.599609375 285.900390625 c 128,-1,10
 104.400390625 316.200195312 104.400390625 316.200195312 155.400390625 316.200195312 c 128,-1,11
 206.400390625 316.200195312 206.400390625 316.200195312 240 289.799804688 c 1,12,13
 262.799804688 291.599609375 262.799804688 291.599609375 274.200195312 300.900390625 c 128,-1,14
 285.599609375 310.200195312 285.599609375 310.200195312 285.599609375 321.599609375 c 128,-1,15
 285.599609375 333 285.599609375 333 279.599609375 338.700195312 c 128,-1,16
 273.599609375 344.400390625 273.599609375 344.400390625 265.200195312 344.400390625 c 1,17,18
 265.200195312 359.400390625 265.200195312 359.400390625 276.299804688 370.200195312 c 128,-1,19
 287.400390625 381 287.400390625 381 303 381 c 128,-1,20
 318.599609375 381 318.599609375 381 329.400390625 371.099609375 c 128,-1,21
 340.200195312 361.200195312 340.200195312 361.200195312 340.200195312 344.400390625 c 0,22,23
 340.200195312 318.599609375 340.200195312 318.599609375 318.900390625 300.599609375 c 128,-1,24
 297.599609375 282.599609375 297.599609375 282.599609375 251.400390625 279 c 1,25,26
 279.599609375 249 279.599609375 249 279.599609375 199.799804688 c 128,-1,27
 279.599609375 150.599609375 279.599609375 150.599609375 244.799804688 120.299804688 c 128,-1,28
 210 90 210 90 156.599609375 90 c 0,29,30
 122.400390625 90 122.400390625 90 97.7998046875 101.400390625 c 1,31,32
 79.7998046875 100.200195312 79.7998046875 100.200195312 68.7001953125 92.400390625 c 128,-1,33
 57.599609375 84.599609375 57.599609375 84.599609375 57.599609375 70.5 c 128,-1,34
 57.599609375 56.400390625 57.599609375 56.400390625 72.900390625 48.900390625 c 128,-1,35
 88.2001953125 41.400390625 88.2001953125 41.400390625 111.599609375 41.400390625 c 2,36,-1
 210.599609375 41.400390625 l 2,37,38
 258.599609375 41.400390625 258.599609375 41.400390625 283.200195312 22.7998046875 c 128,-1,39
 307.799804688 4.2001953125 307.799804688 4.2001953125 307.799804688 -40.2001953125 c 0,40,41
 307.799804688 -97.7998046875 307.799804688 -97.7998046875 268.5 -136.5 c 128,-1,42
 229.200195312 -175.200195312 229.200195312 -175.200195312 156 -175.200195312 c 128,-1,43
 82.7998046875 -175.200195312 82.7998046875 -175.200195312 45.900390625 -152.099609375 c 128,-1,44
 9 -129 9 -129 9 -91.2001953125 c 0,45,46
 9 -69 9 -69 24.599609375 -52.5 c 128,-1,47
 40.2001953125 -36 40.2001953125 -36 67.2001953125 -36 c 0,48,49
 72.599609375 -36 72.599609375 -36 89.400390625 -38.400390625 c 1,50,51
 70.7998046875 -58.2001953125 70.7998046875 -58.2001953125 70.7998046875 -87.900390625 c 128,-1,52
 70.7998046875 -117.599609375 70.7998046875 -117.599609375 92.099609375 -140.700195312 c 128,-1,53
 113.400390625 -163.799804688 113.400390625 -163.799804688 165.599609375 -163.799804688 c 128,-1,54
 217.799804688 -163.799804688 217.799804688 -163.799804688 254.099609375 -133.5 c 128,-1,55
 290.400390625 -103.200195312 290.400390625 -103.200195312 290.400390625 -65.400390625 c 0,56,57
 290.400390625 -39.599609375 290.400390625 -39.599609375 277.200195312 -27.900390625 c 128,-1,58
 264 -16.2001953125 264 -16.2001953125 228.599609375 -16.2001953125 c 2,0,-1
223.200195312 188.400390625 m 2,59,-1
 223.200195312 217.799804688 l 2,60,61
 223.200195312 306 223.200195312 306 156.599609375 306 c 0,62,63
 91.2001953125 306 91.2001953125 306 91.2001953125 217.799804688 c 2,64,-1
 91.2001953125 188.400390625 l 2,65,66
 91.2001953125 147 91.2001953125 147 107.400390625 123.599609375 c 128,-1,67
 123.599609375 100.200195312 123.599609375 100.200195312 156.900390625 100.200195312 c 128,-1,68
 190.200195312 100.200195312 190.200195312 100.200195312 206.700195312 123.599609375 c 128,-1,69
 223.200195312 147 223.200195312 147 223.200195312 188.400390625 c 2,59,-1
EndSplineSet
Colour: ff0000
EndChar

StartChar: h
Encoding: 104 104 75
Width: 376
VWidth: 600
GlyphClass: 2
Flags: W
LayerCount: 2
Back
Fore
SplineSet
12 468 m 1,0,-1
 12 480 l 1,1,-1
 114 480 l 1,2,-1
 114 246 l 1,3,4
 162.599609375 316.200195312 162.599609375 316.200195312 231 316.200195312 c 0,5,6
 274.200195312 316.200195312 274.200195312 316.200195312 299.099609375 294.599609375 c 128,-1,7
 324 273 324 273 324 230.400390625 c 2,8,-1
 324 18 l 1,9,-1
 366 12 l 1,10,-1
 366 0 l 1,11,-1
 228 0 l 1,12,-1
 228 12 l 1,13,-1
 264 18 l 1,14,-1
 264 229.200195312 l 2,15,16
 264 294.599609375 264 294.599609375 212.400390625 294.599609375 c 0,17,18
 184.799804688 294.599609375 184.799804688 294.599609375 159.299804688 274.5 c 128,-1,19
 133.799804688 254.400390625 133.799804688 254.400390625 114 225 c 1,20,-1
 114 18 l 1,21,-1
 150 12 l 1,22,-1
 150 0 l 1,23,-1
 12 0 l 1,24,-1
 12 12 l 1,25,-1
 54 18 l 1,26,-1
 54 462 l 1,27,-1
 12 468 l 1,0,-1
EndSplineSet
Colour: ff0000
EndChar

StartChar: i
Encoding: 105 105 76
Width: 172
VWidth: 600
GlyphClass: 2
Flags: W
LayerCount: 2
Back
Fore
SplineSet
50.7001953125 448.799804688 m 128,-1,1
 62.400390625 460.200195312 62.400390625 460.200195312 79.2001953125 460.200195312 c 128,-1,2
 96 460.200195312 96 460.200195312 107.400390625 448.799804688 c 128,-1,3
 118.799804688 437.400390625 118.799804688 437.400390625 118.799804688 420.599609375 c 128,-1,4
 118.799804688 403.799804688 118.799804688 403.799804688 107.400390625 392.099609375 c 128,-1,5
 96 380.400390625 96 380.400390625 79.5 380.400390625 c 128,-1,6
 63 380.400390625 63 380.400390625 51 392.099609375 c 128,-1,7
 39 403.799804688 39 403.799804688 39 420.599609375 c 128,-1,0
 39 437.400390625 39 437.400390625 50.7001953125 448.799804688 c 128,-1,1
16.2001953125 298.200195312 m 1,8,-1
 16.2001953125 310.200195312 l 1,9,-1
 118.200195312 310.200195312 l 1,10,-1
 118.200195312 18 l 1,11,-1
 160.200195312 12 l 1,12,-1
 160.200195312 0 l 1,13,-1
 16.2001953125 0 l 1,14,-1
 16.2001953125 12 l 1,15,-1
 58.2001953125 18 l 1,16,-1
 58.2001953125 292.200195312 l 1,17,-1
 16.2001953125 298.200195312 l 1,8,-1
EndSplineSet
Colour: ff0000
EndChar

StartChar: j
Encoding: 106 106 77
Width: 159
VWidth: 600
GlyphClass: 2
Flags: W
LayerCount: 2
Back
Fore
SplineSet
52.2001953125 -117 m 0,0,1
 21.599609375 -117 21.599609375 -117 1.5 -99.900390625 c 128,-1,2
 -18.599609375 -82.7998046875 -18.599609375 -82.7998046875 -18.599609375 -53.400390625 c 0,3,4
 -18.599609375 -35.400390625 -18.599609375 -35.400390625 -8.400390625 -24 c 128,-1,5
 1.7998046875 -12.599609375 1.7998046875 -12.599609375 17.400390625 -12.599609375 c 128,-1,6
 33 -12.599609375 33 -12.599609375 42.599609375 -20.7001953125 c 128,-1,7
 52.2001953125 -28.7998046875 52.2001953125 -28.7998046875 54 -36.599609375 c 2,8,-1
 56.400390625 -44.400390625 l 1,9,10
 37.2001953125 -57 37.2001953125 -57 37.2001953125 -76.2001953125 c 0,11,12
 37.2001953125 -100.799804688 37.2001953125 -100.799804688 61.7998046875 -100.799804688 c 0,13,14
 77.400390625 -100.799804688 77.400390625 -100.799804688 86.7001953125 -87.900390625 c 128,-1,15
 96 -75 96 -75 96 -50.400390625 c 128,-1,16
 96 -25.7998046875 96 -25.7998046875 74.7001953125 11.099609375 c 128,-1,17
 53.400390625 48 53.400390625 48 53.400390625 79.7998046875 c 2,18,-1
 53.400390625 292.799804688 l 1,19,-1
 8.400390625 298.799804688 l 1,20,-1
 8.400390625 310.799804688 l 1,21,-1
 113.400390625 310.799804688 l 1,22,-1
 113.400390625 -34.2001953125 l 2,23,24
 113.400390625 -117 113.400390625 -117 52.2001953125 -117 c 0,0,1
47.099609375 448.799804688 m 128,-1,26
 58.7998046875 460.200195312 58.7998046875 460.200195312 75.599609375 460.200195312 c 128,-1,27
 92.400390625 460.200195312 92.400390625 460.200195312 103.799804688 448.799804688 c 128,-1,28
 115.200195312 437.400390625 115.200195312 437.400390625 115.200195312 420.599609375 c 128,-1,29
 115.200195312 403.799804688 115.200195312 403.799804688 103.799804688 392.099609375 c 128,-1,30
 92.400390625 380.400390625 92.400390625 380.400390625 75.900390625 380.400390625 c 128,-1,31
 59.400390625 380.400390625 59.400390625 380.400390625 47.400390625 392.099609375 c 128,-1,32
 35.400390625 403.799804688 35.400390625 403.799804688 35.400390625 420.599609375 c 128,-1,25
 35.400390625 437.400390625 35.400390625 437.400390625 47.099609375 448.799804688 c 128,-1,26
EndSplineSet
Colour: ff0000
EndChar

StartChar: k
Encoding: 107 107 78
Width: 339
VWidth: 600
GlyphClass: 2
Flags: W
LayerCount: 2
Back
Fore
SplineSet
12 0 m 1,0,-1
 12 12 l 1,1,-1
 54 18 l 1,2,-1
 54 462 l 1,3,-1
 12 468 l 1,4,-1
 12 480 l 1,5,-1
 114 480 l 1,6,-1
 114 172.200195312 l 1,7,-1
 251.400390625 285 l 1,8,-1
 199.200195312 298.799804688 l 1,9,-1
 199.200195312 310.799804688 l 1,10,-1
 312 310.799804688 l 1,11,-1
 312 298.799804688 l 1,12,-1
 273.599609375 285 l 1,13,-1
 174 203.400390625 l 1,14,-1
 314.400390625 17.400390625 l 1,15,-1
 346.799804688 12 l 1,16,-1
 346.799804688 0 l 1,17,-1
 206.400390625 0 l 1,18,-1
 206.400390625 12 l 1,19,-1
 242.400390625 18 l 1,20,-1
 129.599609375 166.799804688 l 1,21,-1
 114 153.599609375 l 1,22,-1
 114 18 l 1,23,-1
 150 12 l 1,24,-1
 150 0 l 1,25,-1
 12 0 l 1,0,-1
EndSplineSet
Colour: ff0000
EndChar

StartChar: l
Encoding: 108 108 79
Width: 169
VWidth: 600
GlyphClass: 2
Flags: W
LayerCount: 2
Back
Fore
SplineSet
10.7998046875 468 m 1,0,-1
 10.7998046875 480 l 1,1,-1
 115.799804688 480 l 1,2,-1
 115.799804688 18 l 1,3,-1
 157.799804688 12 l 1,4,-1
 157.799804688 0 l 1,5,-1
 10.7998046875 0 l 1,6,-1
 10.7998046875 12 l 1,7,-1
 55.7998046875 18 l 1,8,-1
 55.7998046875 462 l 1,9,-1
 10.7998046875 468 l 1,0,-1
EndSplineSet
Colour: ff0000
EndChar

StartChar: m
Encoding: 109 109 80
Width: 566
VWidth: 600
GlyphClass: 2
Flags: W
LayerCount: 2
Back
Fore
SplineSet
219.599609375 0 m 1,0,-1
 219.599609375 12 l 1,1,-1
 255.599609375 18 l 1,2,-1
 255.599609375 229.200195312 l 2,3,4
 255.599609375 294.599609375 255.599609375 294.599609375 207 294.599609375 c 0,5,6
 160.200195312 294.599609375 160.200195312 294.599609375 117.599609375 234.599609375 c 1,7,-1
 117.599609375 18 l 1,8,-1
 153.599609375 12 l 1,9,-1
 153.599609375 0 l 1,10,-1
 15.599609375 0 l 1,11,-1
 15.599609375 12 l 1,12,-1
 57.599609375 18 l 1,13,-1
 57.599609375 292.799804688 l 1,14,-1
 15.599609375 298.799804688 l 1,15,-1
 15.599609375 310.799804688 l 1,16,-1
 117.599609375 310.799804688 l 1,17,-1
 117.599609375 255.599609375 l 1,18,19
 163.799804688 316.200195312 163.799804688 316.200195312 225.599609375 316.200195312 c 0,20,21
 301.799804688 316.200195312 301.799804688 316.200195312 314.400390625 252.599609375 c 1,22,23
 360.599609375 316.200195312 360.599609375 316.200195312 424.200195312 316.200195312 c 0,24,25
 466.799804688 316.200195312 466.799804688 316.200195312 490.5 294.900390625 c 128,-1,26
 514.200195312 273.599609375 514.200195312 273.599609375 514.200195312 230.400390625 c 2,27,-1
 514.200195312 18 l 1,28,-1
 556.200195312 12 l 1,29,-1
 556.200195312 0 l 1,30,-1
 418.200195312 0 l 1,31,-1
 418.200195312 12 l 1,32,-1
 454.200195312 18 l 1,33,-1
 454.200195312 229.200195312 l 2,34,35
 454.200195312 294.599609375 454.200195312 294.599609375 405.599609375 294.599609375 c 0,36,37
 358.799804688 294.599609375 358.799804688 294.599609375 316.200195312 234.599609375 c 1,38,-1
 316.200195312 18 l 1,39,-1
 352.200195312 12 l 1,40,-1
 352.200195312 0 l 1,41,-1
 219.599609375 0 l 1,0,-1
EndSplineSet
Colour: ff0000
EndChar

StartChar: n
Encoding: 110 110 81
Width: 379
VWidth: 600
GlyphClass: 2
Flags: W
LayerCount: 2
Back
Fore
SplineSet
231.599609375 0 m 1,0,-1
 231.599609375 12 l 1,1,-1
 267.599609375 18 l 1,2,-1
 267.599609375 229.200195312 l 2,3,4
 267.599609375 294.599609375 267.599609375 294.599609375 216 294.599609375 c 0,5,6
 188.400390625 294.599609375 188.400390625 294.599609375 162.900390625 274.5 c 128,-1,7
 137.400390625 254.400390625 137.400390625 254.400390625 117.599609375 225 c 1,8,-1
 117.599609375 18 l 1,9,-1
 153.599609375 12 l 1,10,-1
 153.599609375 0 l 1,11,-1
 15.599609375 0 l 1,12,-1
 15.599609375 12 l 1,13,-1
 57.599609375 18 l 1,14,-1
 57.599609375 292.799804688 l 1,15,-1
 15.599609375 298.799804688 l 1,16,-1
 15.599609375 310.799804688 l 1,17,-1
 117.599609375 310.799804688 l 1,18,-1
 117.599609375 246 l 1,19,20
 166.200195312 316.200195312 166.200195312 316.200195312 234.599609375 316.200195312 c 0,21,22
 277.799804688 316.200195312 277.799804688 316.200195312 302.700195312 294.599609375 c 128,-1,23
 327.599609375 273 327.599609375 273 327.599609375 230.400390625 c 2,24,-1
 327.599609375 18 l 1,25,-1
 369.599609375 12 l 1,26,-1
 369.599609375 0 l 1,27,-1
 231.599609375 0 l 1,0,-1
EndSplineSet
Colour: ff0000
EndChar

StartChar: o
Encoding: 111 111 82
Width: 360
VWidth: 600
GlyphClass: 2
Flags: W
LayerCount: 2
Back
Fore
SplineSet
269.400390625 125.400390625 m 2,0,-1
 269.400390625 185.400390625 l 2,1,2
 269.400390625 239.400390625 269.400390625 239.400390625 247.200195312 271.200195312 c 128,-1,3
 225 303 225 303 180 303 c 256,4,5
 135 303 135 303 112.799804688 271.200195312 c 128,-1,6
 90.599609375 239.400390625 90.599609375 239.400390625 90.599609375 185.400390625 c 2,7,-1
 90.599609375 125.400390625 l 2,8,9
 90.599609375 72 90.599609375 72 113.099609375 39.599609375 c 128,-1,10
 135.599609375 7.2001953125 135.599609375 7.2001953125 180 7.2001953125 c 256,11,12
 224.400390625 7.2001953125 224.400390625 7.2001953125 246.900390625 39.599609375 c 128,-1,13
 269.400390625 72 269.400390625 72 269.400390625 125.400390625 c 2,0,-1
69 38.400390625 m 0,14,15
 24.599609375 84 24.599609375 84 24.599609375 155.400390625 c 0,16,17
 24.599609375 226.200195312 24.599609375 226.200195312 69.599609375 272.400390625 c 0,18,19
 112.799804688 316.200195312 112.799804688 316.200195312 180 316.200195312 c 0,20,21
 246.599609375 316.200195312 246.599609375 316.200195312 290.400390625 271.200195312 c 0,22,23
 335.400390625 225.599609375 335.400390625 225.599609375 335.400390625 155.400390625 c 256,24,25
 335.400390625 85.2001953125 335.400390625 85.2001953125 290.400390625 39.599609375 c 0,26,27
 246.599609375 -6 246.599609375 -6 180.599609375 -6 c 128,-1,28
 114.599609375 -6 114.599609375 -6 69 38.400390625 c 0,14,15
EndSplineSet
Colour: ff0000
EndChar

StartChar: p
Encoding: 112 112 83
Width: 384
VWidth: 600
GlyphClass: 2
Flags: W
LayerCount: 2
Back
Fore
SplineSet
114 310.799804688 m 1,0,-1
 114 247.200195312 l 1,1,2
 145.799804688 316.200195312 145.799804688 316.200195312 213 316.200195312 c 128,-1,3
 280.200195312 316.200195312 280.200195312 316.200195312 319.5 272.099609375 c 128,-1,4
 358.799804688 228 358.799804688 228 358.799804688 154.799804688 c 128,-1,5
 358.799804688 81.599609375 358.799804688 81.599609375 319.5 37.7998046875 c 128,-1,6
 280.200195312 -6 280.200195312 -6 213.299804688 -6 c 128,-1,7
 146.400390625 -6 146.400390625 -6 114 62.400390625 c 1,8,-1
 114 -151.799804688 l 1,9,-1
 170.400390625 -157.799804688 l 1,10,-1
 170.400390625 -169.799804688 l 1,11,-1
 12 -169.799804688 l 1,12,-1
 12 -157.799804688 l 1,13,-1
 54 -151.799804688 l 1,14,-1
 54 292.799804688 l 1,15,-1
 12 298.799804688 l 1,16,-1
 12 310.799804688 l 1,17,-1
 114 310.799804688 l 1,0,-1
292.799804688 124.799804688 m 2,18,-1
 292.799804688 184.799804688 l 2,19,20
 292.799804688 301.200195312 292.799804688 301.200195312 209.400390625 301.200195312 c 0,21,22
 169.200195312 301.200195312 169.200195312 301.200195312 142.200195312 268.200195312 c 128,-1,23
 115.200195312 235.200195312 115.200195312 235.200195312 114 189 c 2,24,-1
 114 124.799804688 l 2,25,26
 114 77.400390625 114 77.400390625 141.299804688 43.2001953125 c 128,-1,27
 168.599609375 9 168.599609375 9 209.400390625 9 c 0,28,29
 292.799804688 9 292.799804688 9 292.799804688 124.799804688 c 2,18,-1
EndSplineSet
Colour: ff0000
EndChar

StartChar: q
Encoding: 113 113 84
Width: 384
VWidth: 600
GlyphClass: 2
Flags: W
LayerCount: 2
Back
Fore
SplineSet
270 -151.799804688 m 1,0,-1
 270 62.400390625 l 1,1,2
 237.599609375 -6 237.599609375 -6 170.700195312 -6 c 128,-1,3
 103.799804688 -6 103.799804688 -6 64.5 37.7998046875 c 128,-1,4
 25.2001953125 81.599609375 25.2001953125 81.599609375 25.2001953125 154.799804688 c 128,-1,5
 25.2001953125 228 25.2001953125 228 64.5 272.099609375 c 128,-1,6
 103.799804688 316.200195312 103.799804688 316.200195312 171 316.200195312 c 128,-1,7
 238.200195312 316.200195312 238.200195312 316.200195312 270 247.200195312 c 1,8,-1
 270 310.799804688 l 1,9,-1
 372 310.799804688 l 1,10,-1
 372 298.799804688 l 1,11,-1
 330 292.799804688 l 1,12,-1
 330 -151.799804688 l 1,13,-1
 372 -157.799804688 l 1,14,-1
 372 -169.799804688 l 1,15,-1
 198.599609375 -169.799804688 l 1,16,-1
 198.599609375 -157.799804688 l 1,17,-1
 270 -151.799804688 l 1,0,-1
91.2001953125 184.799804688 m 2,18,-1
 91.2001953125 124.799804688 l 2,19,20
 91.2001953125 9 91.2001953125 9 174.599609375 9 c 0,21,22
 214.200195312 9 214.200195312 9 241.5 41.7001953125 c 128,-1,23
 268.799804688 74.400390625 268.799804688 74.400390625 270 120 c 2,24,-1
 270 189 l 2,25,26
 268.799804688 235.200195312 268.799804688 235.200195312 241.5 268.200195312 c 128,-1,27
 214.200195312 301.200195312 214.200195312 301.200195312 174.599609375 301.200195312 c 0,28,29
 91.2001953125 301.200195312 91.2001953125 301.200195312 91.2001953125 184.799804688 c 2,18,-1
EndSplineSet
Colour: ff0000
EndChar

StartChar: r
Encoding: 114 114 85
Width: 264
VWidth: 600
GlyphClass: 2
Flags: W
LayerCount: 2
Back
Fore
SplineSet
15.599609375 0 m 1,0,-1
 15.599609375 12 l 1,1,-1
 57.599609375 18 l 1,2,-1
 57.599609375 292.799804688 l 1,3,-1
 15.599609375 298.799804688 l 1,4,-1
 15.599609375 310.799804688 l 1,5,-1
 117.599609375 310.799804688 l 1,6,-1
 117.599609375 264.599609375 l 1,7,8
 155.400390625 316.200195312 155.400390625 316.200195312 202.799804688 316.200195312 c 0,9,10
 225.599609375 316.200195312 225.599609375 316.200195312 243 304.5 c 128,-1,11
 260.400390625 292.799804688 260.400390625 292.799804688 260.400390625 274.200195312 c 128,-1,12
 260.400390625 255.599609375 260.400390625 255.599609375 250.200195312 245.099609375 c 128,-1,13
 240 234.599609375 240 234.599609375 222 234.599609375 c 128,-1,14
 204 234.599609375 204 234.599609375 192 249.599609375 c 1,15,16
 198.599609375 258 198.599609375 258 198.599609375 267.900390625 c 128,-1,17
 198.599609375 277.799804688 198.599609375 277.799804688 191.700195312 284.099609375 c 128,-1,18
 184.799804688 290.400390625 184.799804688 290.400390625 173.400390625 290.400390625 c 0,19,20
 150.599609375 290.400390625 150.599609375 290.400390625 117.599609375 242.400390625 c 1,21,-1
 117.599609375 18 l 1,22,-1
 165.599609375 12 l 1,23,-1
 165.599609375 0 l 1,24,-1
 15.599609375 0 l 1,0,-1
EndSplineSet
Colour: ff0000
EndChar

StartChar: s
Encoding: 115 115 86
Width: 283
VWidth: 600
GlyphClass: 2
Flags: W
LayerCount: 2
Back
Fore
SplineSet
145.799804688 -6 m 0,0,1
 24.599609375 -6 24.599609375 -6 24.599609375 60.599609375 c 0,2,3
 24.599609375 78 24.599609375 78 35.099609375 90.599609375 c 128,-1,4
 45.599609375 103.200195312 45.599609375 103.200195312 60 103.200195312 c 0,5,6
 88.2001953125 103.200195312 88.2001953125 103.200195312 96 78 c 1,7,8
 85.7998046875 66.599609375 85.7998046875 66.599609375 85.7998046875 52.7998046875 c 0,9,10
 85.7998046875 29.400390625 85.7998046875 29.400390625 101.400390625 17.400390625 c 128,-1,11
 117 5.400390625 117 5.400390625 150 5.400390625 c 128,-1,12
 183 5.400390625 183 5.400390625 207.299804688 22.5 c 128,-1,13
 231.599609375 39.599609375 231.599609375 39.599609375 231.599609375 62.7001953125 c 128,-1,14
 231.599609375 85.7998046875 231.599609375 85.7998046875 215.099609375 97.2001953125 c 128,-1,15
 198.599609375 108.599609375 198.599609375 108.599609375 160.799804688 120.599609375 c 2,16,-1
 83.400390625 145.200195312 l 2,17,18
 29.400390625 160.799804688 29.400390625 160.799804688 29.400390625 224.400390625 c 0,19,20
 29.400390625 264 29.400390625 264 60.2998046875 290.099609375 c 128,-1,21
 91.2001953125 316.200195312 91.2001953125 316.200195312 141 316.200195312 c 128,-1,22
 190.799804688 316.200195312 190.799804688 316.200195312 219 299.099609375 c 128,-1,23
 247.200195312 282 247.200195312 282 247.200195312 254.400390625 c 0,24,25
 247.200195312 238.799804688 247.200195312 238.799804688 237.599609375 228.299804688 c 128,-1,26
 228 217.799804688 228 217.799804688 214.200195312 217.799804688 c 128,-1,27
 200.400390625 217.799804688 200.400390625 217.799804688 192.299804688 224.700195312 c 128,-1,28
 184.200195312 231.599609375 184.200195312 231.599609375 184.200195312 243.599609375 c 1,29,30
 196.799804688 252 196.799804688 252 196.799804688 267 c 0,31,32
 196.799804688 304.799804688 196.799804688 304.799804688 142.200195312 304.799804688 c 0,33,34
 103.200195312 304.799804688 103.200195312 304.799804688 80.400390625 289.200195312 c 128,-1,35
 57.599609375 273.599609375 57.599609375 273.599609375 57.599609375 253.5 c 128,-1,36
 57.599609375 233.400390625 57.599609375 233.400390625 65.7001953125 224.400390625 c 128,-1,37
 73.7998046875 215.400390625 73.7998046875 215.400390625 97.2001953125 207.599609375 c 2,38,-1
 192.599609375 178.200195312 l 2,39,40
 226.799804688 167.400390625 226.799804688 167.400390625 242.099609375 146.099609375 c 128,-1,41
 257.400390625 124.799804688 257.400390625 124.799804688 257.400390625 88.2001953125 c 128,-1,42
 257.400390625 51.599609375 257.400390625 51.599609375 229.5 22.7998046875 c 128,-1,43
 201.599609375 -6 201.599609375 -6 145.799804688 -6 c 0,0,1
EndSplineSet
Colour: ff0000
EndChar

StartChar: t
Encoding: 116 116 87
Width: 207
VWidth: 600
GlyphClass: 2
Flags: W
LayerCount: 2
Back
Fore
SplineSet
190.799804688 310.799804688 m 1,0,-1
 190.799804688 298.799804688 l 1,1,-1
 112.799804688 292.799804688 l 1,2,-1
 112.799804688 78 l 2,3,4
 112.799804688 14.400390625 112.799804688 14.400390625 158.400390625 14.400390625 c 0,5,6
 179.400390625 14.400390625 179.400390625 14.400390625 196.799804688 27.599609375 c 1,7,-1
 204.599609375 18 l 1,8,9
 177.599609375 -6 177.599609375 -6 139.799804688 -6 c 0,10,11
 52.7998046875 -6 52.7998046875 -6 52.7998046875 76.7998046875 c 2,12,-1
 52.7998046875 292.799804688 l 1,13,-1
 10.2001953125 298.799804688 l 1,14,-1
 10.2001953125 310.799804688 l 1,15,-1
 52.7998046875 310.799804688 l 1,16,-1
 52.7998046875 360.599609375 l 1,17,-1
 112.799804688 375.599609375 l 1,18,-1
 112.799804688 310.799804688 l 1,19,-1
 190.799804688 310.799804688 l 1,0,-1
EndSplineSet
Colour: ff0000
EndChar

StartChar: u
Encoding: 117 117 88
Width: 375
VWidth: 600
GlyphClass: 2
Flags: W
LayerCount: 2
Back
Fore
SplineSet
111.599609375 310.799804688 m 1,0,-1
 111.599609375 81 l 2,1,2
 111.599609375 15.599609375 111.599609375 15.599609375 163.200195312 15.599609375 c 256,3,4
 214.799804688 15.599609375 214.799804688 15.599609375 261.599609375 79.2001953125 c 1,5,-1
 261.599609375 292.799804688 l 1,6,-1
 219.599609375 298.799804688 l 1,7,-1
 219.599609375 310.799804688 l 1,8,-1
 321.599609375 310.799804688 l 1,9,-1
 321.599609375 18 l 1,10,-1
 363.599609375 12 l 1,11,-1
 363.599609375 0 l 1,12,-1
 261.599609375 0 l 1,13,-1
 261.599609375 57.599609375 l 1,14,15
 214.799804688 -6 214.799804688 -6 144.599609375 -6 c 0,16,17
 101.400390625 -6 101.400390625 -6 76.5 15.2998046875 c 128,-1,18
 51.599609375 36.599609375 51.599609375 36.599609375 51.599609375 79.7998046875 c 2,19,-1
 51.599609375 292.799804688 l 1,20,-1
 9.599609375 298.799804688 l 1,21,-1
 9.599609375 310.799804688 l 1,22,-1
 111.599609375 310.799804688 l 1,0,-1
EndSplineSet
Colour: ff0000
EndChar

StartChar: v
Encoding: 118 118 89
Width: 318
VWidth: 600
GlyphClass: 2
Flags: W
LayerCount: 2
Back
Fore
SplineSet
176.400390625 -12 m 1,0,-1
 159.599609375 -12 l 1,1,-1
 31.2001953125 292.799804688 l 1,2,-1
 -7.7998046875 298.799804688 l 1,3,-1
 -7.7998046875 310.799804688 l 1,4,-1
 141.599609375 310.799804688 l 1,5,-1
 141.599609375 298.799804688 l 1,6,-1
 98.400390625 291 l 1,7,-1
 189 65.400390625 l 1,8,-1
 270 283.200195312 l 1,9,-1
 217.200195312 298.200195312 l 1,10,-1
 217.200195312 310.200195312 l 1,11,-1
 324.599609375 310.200195312 l 1,12,-1
 324.599609375 298.200195312 l 1,13,-1
 286.799804688 283.799804688 l 1,14,-1
 176.400390625 -12 l 1,0,-1
EndSplineSet
Colour: ff0000
EndChar

StartChar: w
Encoding: 119 119 90
Width: 493
VWidth: 600
GlyphClass: 2
Flags: W
LayerCount: 2
Back
Fore
SplineSet
352.200195312 -12 m 1,0,-1
 335.400390625 -12 l 1,1,-1
 250.799804688 190.799804688 l 1,2,-1
 176.400390625 -12 l 1,3,-1
 159.599609375 -12 l 1,4,-1
 31.2001953125 292.799804688 l 1,5,-1
 -7.7998046875 298.799804688 l 1,6,-1
 -7.7998046875 310.799804688 l 1,7,-1
 126.599609375 310.799804688 l 1,8,-1
 126.599609375 298.799804688 l 1,9,-1
 98.400390625 291 l 1,10,-1
 189 65.400390625 l 1,11,-1
 242.400390625 211.200195312 l 1,12,-1
 207 292.799804688 l 1,13,-1
 175.799804688 298.799804688 l 1,14,-1
 175.799804688 310.799804688 l 1,15,-1
 317.400390625 310.799804688 l 1,16,-1
 317.400390625 298.799804688 l 1,17,-1
 274.200195312 291 l 1,18,-1
 364.799804688 65.400390625 l 1,19,-1
 445.799804688 282.599609375 l 1,20,-1
 395.400390625 298.200195312 l 1,21,-1
 395.400390625 310.200195312 l 1,22,-1
 499.799804688 310.200195312 l 1,23,-1
 499.799804688 298.200195312 l 1,24,-1
 462.599609375 283.799804688 l 1,25,-1
 352.200195312 -12 l 1,0,-1
EndSplineSet
Colour: ff0000
EndChar

StartChar: x
Encoding: 120 120 91
Width: 358
VWidth: 600
GlyphClass: 2
Flags: W
LayerCount: 2
Back
Fore
SplineSet
7.7998046875 0 m 1,0,-1
 7.7998046875 12 l 1,1,-1
 48 27 l 1,2,-1
 149.400390625 147 l 1,3,-1
 36.599609375 293.400390625 l 1,4,-1
 0.599609375 298.799804688 l 1,5,-1
 0.599609375 310.799804688 l 1,6,-1
 147 310.799804688 l 1,7,-1
 147 298.799804688 l 1,8,-1
 109.799804688 292.200195312 l 1,9,-1
 191.400390625 186.599609375 l 1,10,-1
 276.599609375 284.400390625 l 1,11,-1
 229.200195312 298.200195312 l 1,12,-1
 229.200195312 310.200195312 l 1,13,-1
 339.599609375 310.200195312 l 1,14,-1
 339.599609375 298.200195312 l 1,15,-1
 295.799804688 282.599609375 l 1,16,-1
 201 174 l 1,17,-1
 322.200195312 17.400390625 l 1,18,-1
 360 12 l 1,19,-1
 360 0 l 1,20,-1
 213.599609375 0 l 1,21,-1
 213.599609375 12 l 1,22,-1
 249 18 l 1,23,-1
 159.599609375 133.799804688 l 1,24,-1
 66.599609375 25.7998046875 l 1,25,-1
 115.200195312 12 l 1,26,-1
 115.200195312 0 l 1,27,-1
 7.7998046875 0 l 1,0,-1
EndSplineSet
Colour: ff0000
EndChar

StartChar: y
Encoding: 121 121 92
Width: 321
VWidth: 600
GlyphClass: 2
Flags: W
LayerCount: 2
Back
Fore
SplineSet
327.599609375 310.200195312 m 1,0,-1
 327.599609375 298.200195312 l 1,1,-1
 286.799804688 283.200195312 l 1,2,-1
 152.400390625 -107.400390625 l 2,3,4
 139.799804688 -142.799804688 139.799804688 -142.799804688 122.099609375 -159 c 128,-1,5
 104.400390625 -175.200195312 104.400390625 -175.200195312 72.2998046875 -175.200195312 c 128,-1,6
 40.2001953125 -175.200195312 40.2001953125 -175.200195312 21 -159.599609375 c 128,-1,7
 1.7998046875 -144 1.7998046875 -144 1.7998046875 -121.799804688 c 128,-1,8
 1.7998046875 -99.599609375 1.7998046875 -99.599609375 12.2998046875 -88.5 c 128,-1,9
 22.7998046875 -77.400390625 22.7998046875 -77.400390625 38.400390625 -77.400390625 c 0,10,11
 63 -77.400390625 63 -77.400390625 73.2001953125 -96.599609375 c 1,12,13
 64.2001953125 -109.200195312 64.2001953125 -109.200195312 64.2001953125 -122.099609375 c 128,-1,14
 64.2001953125 -135 64.2001953125 -135 72 -142.799804688 c 128,-1,15
 79.7998046875 -150.599609375 79.7998046875 -150.599609375 91.7998046875 -150.599609375 c 0,16,17
 120.599609375 -150.599609375 120.599609375 -150.599609375 135.599609375 -107.400390625 c 2,18,-1
 171.599609375 -4.2001953125 l 1,19,-1
 32.400390625 292.200195312 l 1,20,-1
 -7.7998046875 298.200195312 l 1,21,-1
 -7.7998046875 310.200195312 l 1,22,-1
 141.599609375 310.200195312 l 1,23,-1
 141.599609375 298.200195312 l 1,24,-1
 99.599609375 291 l 1,25,-1
 199.799804688 76.7998046875 l 1,26,-1
 271.200195312 283.200195312 l 1,27,-1
 219.599609375 298.200195312 l 1,28,-1
 219.599609375 310.200195312 l 1,29,-1
 327.599609375 310.200195312 l 1,0,-1
EndSplineSet
Colour: ff0000
EndChar

StartChar: z
Encoding: 122 122 93
Width: 307
VWidth: 600
GlyphClass: 2
Flags: W
LayerCount: 2
Back
Fore
SplineSet
45 220.799804688 m 1,0,-1
 26.400390625 220.799804688 l 1,1,-1
 33 310.799804688 l 1,2,-1
 278.400390625 310.799804688 l 1,3,-1
 278.400390625 295.799804688 l 1,4,-1
 92.400390625 14.400390625 l 1,5,-1
 225 14.400390625 l 1,6,-1
 264.599609375 96.599609375 l 1,7,-1
 285 96.599609375 l 1,8,-1
 277.799804688 0 l 1,9,-1
 22.2001953125 0 l 1,10,-1
 22.2001953125 14.400390625 l 1,11,-1
 208.200195312 295.799804688 l 1,12,-1
 81 295.799804688 l 1,13,-1
 45 220.799804688 l 1,0,-1
EndSplineSet
Colour: ff0000
EndChar

StartChar: braceleft
Encoding: 123 123 94
Width: 187
VWidth: 600
GlyphClass: 2
Flags: W
LayerCount: 2
Back
Fore
SplineSet
135 318.599609375 m 0,0,1
 135 277.200195312 135 277.200195312 112.200195312 249.900390625 c 128,-1,2
 89.400390625 222.599609375 89.400390625 222.599609375 47.400390625 213.599609375 c 1,3,4
 89.400390625 205.200195312 89.400390625 205.200195312 112.200195312 177.900390625 c 128,-1,5
 135 150.599609375 135 150.599609375 135 109.200195312 c 0,6,7
 135 93.599609375 135 93.599609375 129.299804688 36 c 128,-1,8
 123.599609375 -21.599609375 123.599609375 -21.599609375 123.599609375 -37.7998046875 c 0,9,10
 123.599609375 -74.400390625 123.599609375 -74.400390625 135 -89.7001953125 c 128,-1,11
 146.400390625 -105 146.400390625 -105 174 -105 c 1,12,-1
 174 -116.400390625 l 1,13,14
 120.599609375 -116.400390625 120.599609375 -116.400390625 93 -95.7001953125 c 128,-1,15
 65.400390625 -75 65.400390625 -75 65.400390625 -27.599609375 c 0,16,17
 65.400390625 -7.7998046875 65.400390625 -7.7998046875 71.7001953125 45.900390625 c 128,-1,18
 78 99.599609375 78 99.599609375 78 117.599609375 c 0,19,20
 78 208.799804688 78 208.799804688 7.2001953125 208.799804688 c 1,21,-1
 7.2001953125 219 l 1,22,23
 78 219 78 219 78 310.200195312 c 0,24,25
 78 328.200195312 78 328.200195312 71.7001953125 381.900390625 c 128,-1,26
 65.400390625 435.599609375 65.400390625 435.599609375 65.400390625 456 c 0,27,28
 65.400390625 503.400390625 65.400390625 503.400390625 93 523.799804688 c 128,-1,29
 120.599609375 544.200195312 120.599609375 544.200195312 174 544.200195312 c 1,30,-1
 174 533.400390625 l 1,31,32
 146.400390625 533.400390625 146.400390625 533.400390625 135 518.099609375 c 128,-1,33
 123.599609375 502.799804688 123.599609375 502.799804688 123.599609375 466.200195312 c 0,34,35
 123.599609375 449.400390625 123.599609375 449.400390625 129.299804688 391.799804688 c 128,-1,36
 135 334.200195312 135 334.200195312 135 318.599609375 c 0,0,1
EndSplineSet
Colour: ff0000
EndChar

StartChar: bar
Encoding: 124 124 95
Width: 126
VWidth: 600
GlyphClass: 2
Flags: W
LayerCount: 2
Back
Fore
SplineSet
73.7998046875 456 m 1,0,-1
 73.7998046875 -144 l 1,1,-1
 52.7998046875 -144 l 1,2,-1
 52.7998046875 456 l 1,3,-1
 73.7998046875 456 l 1,0,-1
EndSplineSet
Colour: ff0000
EndChar

StartChar: asciitilde
Encoding: 126 126 97
Width: 318
VWidth: 600
GlyphClass: 2
Flags: W
LayerCount: 2
Back
Fore
SplineSet
269.400390625 187.799804688 m 1,0,-1
 291 181.200195312 l 1,1,2
 289.200195312 173.400390625 289.200195312 173.400390625 281.400390625 157.5 c 128,-1,3
 273.599609375 141.599609375 273.599609375 141.599609375 266.099609375 131.700195312 c 128,-1,4
 258.599609375 121.799804688 258.599609375 121.799804688 245.700195312 113.700195312 c 128,-1,5
 232.799804688 105.599609375 232.799804688 105.599609375 219 105.599609375 c 128,-1,6
 205.200195312 105.599609375 205.200195312 105.599609375 192 112.200195312 c 128,-1,7
 178.799804688 118.799804688 178.799804688 118.799804688 171.599609375 125.400390625 c 128,-1,8
 164.400390625 132 164.400390625 132 153 144.599609375 c 128,-1,9
 141.599609375 157.200195312 141.599609375 157.200195312 135.599609375 162.599609375 c 0,10,11
 117 179.400390625 117 179.400390625 101.400390625 179.400390625 c 128,-1,12
 85.7998046875 179.400390625 85.7998046875 179.400390625 73.5 164.700195312 c 128,-1,13
 61.2001953125 150 61.2001953125 150 56.400390625 135.599609375 c 2,14,-1
 51 120.599609375 l 1,15,16
 28.7998046875 127.200195312 28.7998046875 127.200195312 28.2001953125 127.200195312 c 1,17,18
 30 135.599609375 30 135.599609375 37.7998046875 150.900390625 c 128,-1,19
 45.599609375 166.200195312 45.599609375 166.200195312 53.099609375 176.099609375 c 128,-1,20
 60.599609375 186 60.599609375 186 73.5 194.099609375 c 128,-1,21
 86.400390625 202.200195312 86.400390625 202.200195312 100.5 202.200195312 c 128,-1,22
 114.599609375 202.200195312 114.599609375 202.200195312 127.799804688 195.599609375 c 128,-1,23
 141 189 141 189 148.799804688 182.099609375 c 128,-1,24
 156.599609375 175.200195312 156.599609375 175.200195312 167.700195312 162.900390625 c 128,-1,25
 178.799804688 150.599609375 178.799804688 150.599609375 184.799804688 145.200195312 c 0,26,27
 203.400390625 128.400390625 203.400390625 128.400390625 218.400390625 128.400390625 c 0,28,29
 247.200195312 128.400390625 247.200195312 128.400390625 265.799804688 177.599609375 c 2,30,-1
 269.400390625 187.799804688 l 1,0,-1
EndSplineSet
Colour: ff0000
EndChar

StartChar: cent
Encoding: 162 162 98
Width: 457
GlyphClass: 2
Flags: W
LayerCount: 2
Back
Fore
SplineSet
235 -61 m 0,0,1
 219 -61 219 -61 199.5 -56 c 128,-1,2
 180 -51 180 -51 157 -40 c 1,3,-1
 110 -161 l 1,4,-1
 83 -161 l 1,5,-1
 133 -28 l 1,6,7
 94 4 94 4 72.5 48.5 c 128,-1,8
 51 93 51 93 51 144 c 0,9,10
 51 232 51 232 111.5 294.5 c 128,-1,11
 172 357 172 357 257 357 c 2,12,-1
 276 357 l 1,13,-1
 335 510 l 1,14,-1
 362 510 l 1,15,-1
 302 356 l 1,16,17
 340 343 340 343 359.5 323.5 c 128,-1,18
 379 304 379 304 379 282 c 0,19,20
 379 271 379 271 371.5 262 c 128,-1,21
 364 253 364 253 353 253 c 0,22,23
 340 253 340 253 330 262 c 128,-1,24
 320 271 320 271 317 285 c 0,25,26
 317 299 317 299 310 309.5 c 128,-1,27
 303 320 303 320 291 323 c 1,28,-1
 175 9 l 1,29,30
 191 -4 191 -4 210.5 -10 c 128,-1,31
 230 -16 230 -16 250 -16 c 0,32,33
 293 -16 293 -16 329.5 5.5 c 128,-1,34
 366 27 366 27 387 61 c 1,35,-1
 399 56 l 1,36,37
 386 5 386 5 340 -28 c 128,-1,38
 294 -61 294 -61 235 -61 c 0,0,1
270 331 m 1,39,40
 260 335 260 335 253.5 336 c 128,-1,41
 247 337 247 337 241 337 c 0,42,43
 182 337 182 337 140 293.5 c 128,-1,44
 98 250 98 250 98 188 c 0,45,46
 98 135 98 135 111.5 94 c 128,-1,47
 125 53 125 53 152 26 c 1,48,-1
 270 331 l 1,39,40
EndSplineSet
EndChar

StartChar: copyright
Encoding: 169 169 99
Width: 490
GlyphClass: 2
Flags: W
LayerCount: 2
Back
Fore
SplineSet
218 434 m 0,0,1
 274 434 274 434 326 405.5 c 128,-1,2
 378 377 378 377 407.5 325 c 128,-1,3
 437 273 437 273 437 217 c 0,4,5
 437 160 437 160 408 108 c 128,-1,6
 379 56 379 56 327.5 27.5 c 128,-1,7
 276 -1 276 -1 218 -1 c 0,8,9
 161 -1 161 -1 109.5 27.5 c 128,-1,10
 58 56 58 56 29 108 c 128,-1,11
 0 160 0 160 0 217 c 0,12,13
 0 273 0 273 29 325 c 128,-1,14
 58 377 58 377 110.5 405.5 c 128,-1,15
 163 434 163 434 218 434 c 0,0,1
218 418 m 0,16,17
 168 418 168 418 120 392 c 128,-1,18
 72 366 72 366 44.5 317.5 c 128,-1,19
 17 269 17 269 17 217 c 0,20,21
 17 163 17 163 44 115 c 128,-1,22
 71 67 71 67 119 40.5 c 128,-1,23
 167 14 167 14 218 14 c 0,24,25
 270 14 270 14 318 40.5 c 128,-1,26
 366 67 366 67 393 115 c 128,-1,27
 420 163 420 163 420 217 c 0,28,29
 420 269 420 269 392.5 317.5 c 128,-1,30
 365 366 365 366 317 392 c 128,-1,31
 269 418 269 418 218 418 c 0,16,17
326 355 m 1,32,-1
 332 273 l 1,33,-1
 322 273 l 1,34,35
 311 309 311 309 286.5 327 c 128,-1,36
 262 345 262 345 228 345 c 0,37,38
 202 345 202 345 182 334.5 c 128,-1,39
 162 324 162 324 149 306 c 0,40,41
 140 293 140 293 133.5 270.5 c 128,-1,42
 127 248 127 248 127 223 c 0,43,44
 127 156 127 156 155.5 125 c 128,-1,45
 184 94 184 94 231 94 c 0,46,47
 291 94 291 94 327 143 c 1,48,-1
 336 139 l 1,49,50
 295 79 295 79 220 79 c 0,51,52
 158 79 158 79 118 118.5 c 128,-1,53
 78 158 78 158 78 215 c 0,54,55
 78 273 78 273 120.5 314 c 128,-1,56
 163 355 163 355 231 355 c 0,57,58
 245 355 245 355 254.5 353 c 128,-1,59
 264 351 264 351 288 344 c 0,60,61
 296 341 296 341 299 341 c 0,62,63
 305 341 305 341 308.5 344 c 128,-1,64
 312 347 312 347 315 355 c 1,65,-1
 326 355 l 1,32,-1
EndSplineSet
Substitution2: "Single Substitution lookup 23 subtable" copyright
Ligature2: "'abvs' Above Base Substitutions in Telugu lookup 4 subtable" U0C15_U0C4D_U0C37 U0C42
EndChar

StartChar: registered
Encoding: 174 174 100
Width: 493
GlyphClass: 2
Flags: W
LayerCount: 2
Back
Fore
SplineSet
217 432 m 0,0,1
 273 432 273 432 325 403.5 c 128,-1,2
 377 375 377 375 406 323 c 128,-1,3
 435 271 435 271 435 216 c 0,4,5
 435 159 435 159 406.5 107.5 c 128,-1,6
 378 56 378 56 326 27.5 c 128,-1,7
 274 -1 274 -1 217 -1 c 0,8,9
 161 -1 161 -1 109.5 27.5 c 128,-1,10
 58 56 58 56 29 107.5 c 128,-1,11
 0 159 0 159 0 216 c 0,12,13
 0 271 0 271 29 323 c 128,-1,14
 58 375 58 375 110.5 403.5 c 128,-1,15
 163 432 163 432 217 432 c 0,0,1
217 416 m 0,16,17
 167 416 167 416 119.5 390.5 c 128,-1,18
 72 365 72 365 44.5 316.5 c 128,-1,19
 17 268 17 268 17 216 c 0,20,21
 17 162 17 162 44 114.5 c 128,-1,22
 71 67 71 67 118.5 40.5 c 128,-1,23
 166 14 166 14 217 14 c 0,24,25
 269 14 269 14 317 40.5 c 128,-1,26
 365 67 365 67 391.5 114.5 c 128,-1,27
 418 162 418 162 418 216 c 0,28,29
 418 268 418 268 391 316.5 c 128,-1,30
 364 365 364 365 316 390.5 c 128,-1,31
 268 416 268 416 217 416 c 0,16,17
98 348 m 1,32,-1
 216 348 l 2,33,34
 260 348 260 348 283 328 c 128,-1,35
 306 308 306 308 306 280 c 0,36,37
 306 258 306 258 290.5 240.5 c 128,-1,38
 275 223 275 223 236 213 c 1,39,-1
 302 118 l 2,40,41
 315 102 315 102 324 96 c 0,42,43
 330 92 330 92 339 91 c 1,44,-1
 339 85 l 1,45,-1
 284 85 l 1,46,-1
 193 210 l 1,47,-1
 169 210 l 1,48,-1
 169 112 l 2,49,50
 171 101 171 101 178.5 96 c 128,-1,51
 186 91 186 91 205 91 c 1,52,-1
 205 85 l 1,53,-1
 94 85 l 1,54,-1
 94 91 l 1,55,56
 108 91 108 91 114 95 c 128,-1,57
 120 99 120 99 124 106 c 0,58,59
 126 111 126 111 126 136 c 2,60,-1
 126 297 l 2,61,62
 126 320 126 320 125 324 c 0,63,64
 123 333 123 333 117 336.5 c 128,-1,65
 111 340 111 340 98 340 c 1,66,-1
 98 348 l 1,32,-1
169 219 m 1,67,68
 206 219 206 219 223 226 c 128,-1,69
 240 233 240 233 249.5 246.5 c 128,-1,70
 259 260 259 260 259 278 c 0,71,72
 259 303 259 303 241 320.5 c 128,-1,73
 223 338 223 338 196 338 c 0,74,75
 184 338 184 338 169 333 c 1,76,-1
 169 219 l 1,67,68
EndSplineSet
Ligature2: "'blws' Below Base Substitutions in Telugu lookup 7 subtable" U2022 U0C30_U0C4D
EndChar

StartChar: onequarter
Encoding: 188 188 101
Width: 628
GlyphClass: 2
Flags: W
LayerCount: 2
Back
Fore
SplineSet
536 102 m 1,0,-1
 536 230 l 1,1,-1
 442 102 l 1,2,-1
 536 102 l 1,0,-1
536 -6 m 1,3,-1
 536 67 l 1,4,-1
 393 67 l 1,5,-1
 393 98 l 1,6,-1
 537 291 l 1,7,-1
 581 291 l 1,8,-1
 581 102 l 1,9,-1
 624 102 l 1,10,-1
 624 67 l 1,11,-1
 581 67 l 1,12,-1
 581 -6 l 1,13,-1
 536 -6 l 1,3,-1
121 -21 m 1,14,-1
 465 530 l 1,15,-1
 519 530 l 1,16,-1
 176 -21 l 1,17,-1
 121 -21 l 1,14,-1
126 218 m 1,18,-1
 126 440 l 1,19,20
 106 440 106 440 96 438 c 128,-1,21
 86 436 86 436 55 436 c 2,22,-1
 44 436 l 1,23,-1
 44 466 l 1,24,-1
 52 466 l 2,25,26
 91 466 91 466 109 478.5 c 128,-1,27
 127 491 127 491 130 523 c 1,28,-1
 171 523 l 1,29,-1
 171 218 l 1,30,-1
 126 218 l 1,18,-1
EndSplineSet
EndChar

StartChar: onehalf
Encoding: 189 189 102
Width: 628
GlyphClass: 2
Flags: W
LayerCount: 2
Back
Fore
SplineSet
392 -6 m 1,0,-1
 392 9 l 2,1,2
 392 42 392 42 411.5 68 c 128,-1,3
 431 94 431 94 476 119 c 0,4,5
 487 125 487 125 507 135 c 0,6,7
 546 155 546 155 558 167 c 0,8,9
 567 175 567 175 571.5 185 c 128,-1,10
 576 195 576 195 576 208 c 0,11,12
 576 234 576 234 559.5 249 c 128,-1,13
 543 264 543 264 513 264 c 0,14,15
 480 264 480 264 462.5 246.5 c 128,-1,16
 445 229 445 229 444 191 c 1,17,-1
 400 191 l 1,18,19
 402 246 402 246 431.5 272.5 c 128,-1,20
 461 299 461 299 514 299 c 0,21,22
 563 299 563 299 592 274.5 c 128,-1,23
 621 250 621 250 621 208 c 0,24,25
 621 190 621 190 614 174.5 c 128,-1,26
 607 159 607 159 593 145 c 0,27,28
 578 129 578 129 530 105 c 0,29,30
 514 97 514 97 505 92 c 0,31,32
 469 74 469 74 454 57.5 c 128,-1,33
 439 41 439 41 438 29 c 1,34,-1
 620 29 l 1,35,-1
 620 -6 l 1,36,-1
 392 -6 l 1,0,-1
121 -21 m 1,37,-1
 465 530 l 1,38,-1
 519 530 l 1,39,-1
 176 -21 l 1,40,-1
 121 -21 l 1,37,-1
126 218 m 1,41,-1
 126 440 l 1,42,43
 106 440 106 440 96 438 c 128,-1,44
 86 436 86 436 55 436 c 2,45,-1
 44 436 l 1,46,-1
 44 466 l 1,47,-1
 52 466 l 2,48,49
 91 466 91 466 109 478.5 c 128,-1,50
 127 491 127 491 130 523 c 1,51,-1
 171 523 l 1,52,-1
 171 218 l 1,53,-1
 126 218 l 1,41,-1
EndSplineSet
EndChar

StartChar: threequarters
Encoding: 190 190 103
Width: 627
GlyphClass: 2
Flags: W
LayerCount: 2
Back
Fore
SplineSet
536 102 m 1,0,-1
 536 230 l 1,1,-1
 442 102 l 1,2,-1
 536 102 l 1,0,-1
536 -6 m 1,3,-1
 536 67 l 1,4,-1
 393 67 l 1,5,-1
 393 98 l 1,6,-1
 536 291 l 1,7,-1
 580 291 l 1,8,-1
 580 102 l 1,9,-1
 624 102 l 1,10,-1
 624 67 l 1,11,-1
 580 67 l 1,12,-1
 580 -6 l 1,13,-1
 536 -6 l 1,3,-1
121 -21 m 1,14,-1
 465 530 l 1,15,-1
 519 530 l 1,16,-1
 175 -21 l 1,17,-1
 121 -21 l 1,14,-1
16 314 m 1,18,-1
 62 314 l 1,19,20
 63 278 63 278 80 261.5 c 128,-1,21
 97 245 97 245 129 245 c 0,22,23
 162 245 162 245 180 260 c 128,-1,24
 198 275 198 275 198 304 c 0,25,26
 198 332 198 332 179.5 345.5 c 128,-1,27
 161 359 161 359 121 359 c 0,28,29
 116 359 116 359 113 359 c 128,-1,30
 110 359 110 359 100 357 c 1,31,-1
 100 392 l 1,32,-1
 119 392 l 2,33,34
 154 392 154 392 171 404.5 c 128,-1,35
 188 417 188 417 188 442 c 0,36,37
 188 463 188 463 173 476 c 128,-1,38
 158 489 158 489 132 489 c 0,39,40
 103 489 103 489 87 474 c 128,-1,41
 71 459 71 459 70 425 c 1,42,-1
 26 425 l 1,43,44
 29 474 29 474 56.5 498.5 c 128,-1,45
 84 523 84 523 132 523 c 0,46,47
 179 523 179 523 206 501 c 128,-1,48
 233 479 233 479 233 442 c 0,49,50
 233 418 233 418 220.5 400.5 c 128,-1,51
 208 383 208 383 200 378 c 1,52,53
 212 376 212 376 228 355 c 128,-1,54
 244 334 244 334 244 304 c 0,55,56
 244 260 244 260 213.5 235 c 128,-1,57
 183 210 183 210 130 210 c 256,58,59
 77 210 77 210 46.5 236 c 128,-1,60
 16 262 16 262 16 308 c 2,61,-1
 16 314 l 1,18,-1
EndSplineSet
EndChar

StartChar: multiply
Encoding: 215 215 104
Width: 383
GlyphClass: 2
Flags: W
LayerCount: 2
Back
Fore
SplineSet
52 45 m 1,0,-1
 157 151 l 1,1,-1
 51 257 l 1,2,-1
 81 286 l 1,3,-1
 187 180 l 1,4,-1
 293 286 l 1,5,-1
 321 257 l 1,6,-1
 215 151 l 1,7,-1
 320 45 l 1,8,-1
 292 16 l 1,9,-1
 187 121 l 1,10,-1
 81 16 l 1,11,-1
 52 45 l 1,0,-1
EndSplineSet
EndChar

StartChar: divide
Encoding: 247 247 105
Width: 471
GlyphClass: 2
Flags: W
LayerCount: 2
Back
Fore
SplineSet
51 184 m 1,0,-1
 414 184 l 1,1,-1
 414 143 l 1,2,-1
 51 143 l 1,3,-1
 51 184 l 1,0,-1
194 288 m 256,4,5
 194 304 194 304 205 314.5 c 128,-1,6
 216 325 216 325 233 325 c 256,7,8
 250 325 250 325 260.5 314.5 c 128,-1,9
 271 304 271 304 271 288 c 256,10,11
 271 272 271 272 260.5 261 c 128,-1,12
 250 250 250 250 233 250 c 256,13,14
 216 250 216 250 205 261 c 128,-1,15
 194 272 194 272 194 288 c 256,4,5
194 45 m 0,16,17
 194 61 194 61 205 71.5 c 128,-1,18
 216 82 216 82 233 82 c 256,19,20
 250 82 250 82 260.5 71.5 c 128,-1,21
 271 61 271 61 271 45 c 0,22,23
 271 30 271 30 260.5 19 c 128,-1,24
 250 8 250 8 233 8 c 256,25,26
 216 8 216 8 205 19 c 128,-1,27
 194 30 194 30 194 45 c 0,16,17
EndSplineSet
EndChar

StartChar: U0950
Encoding: 2384 2384 106
Width: 624
GlyphClass: 2
Flags: W
LayerCount: 2
Back
Fore
SplineSet
30 268 m 1,0,-1
 49 274 l 1,1,2
 65 174 65 174 116.5 111 c 128,-1,3
 168 48 168 48 234 48 c 0,4,5
 269 48 269 48 294 74 c 128,-1,6
 319 100 319 100 319 137 c 0,7,8
 319 205 319 205 264 261 c 1,9,10
 236 222 236 222 197 204 c 1,11,-1
 173 263 l 1,12,13
 259 288 259 288 259 347 c 0,14,15
 259 370 259 370 245.5 381.5 c 128,-1,16
 232 393 232 393 205 393 c 0,17,18
 166 393 166 393 123 370 c 1,19,-1
 99 428 l 1,20,21
 133 445 133 445 172 445 c 0,22,23
 222 445 222 445 253.5 412.5 c 128,-1,24
 285 380 285 380 285 328 c 0,25,26
 285 306 285 306 275 286 c 1,27,-1
 288 274 l 1,28,29
 338 322 338 322 383 322 c 0,30,31
 387 322 387 322 396 321 c 1,32,33
 413 412 413 412 487 412 c 0,34,35
 536 412 536 412 560 372.5 c 128,-1,36
 584 333 584 333 584 254 c 0,37,38
 584 174 584 174 554 127 c 128,-1,39
 524 80 524 80 472 80 c 0,40,41
 436 80 436 80 421 102.5 c 128,-1,42
 406 125 406 125 406 179 c 2,43,-1
 406 207 l 2,44,45
 406 260 406 260 378 260 c 0,46,47
 355 260 355 260 318 235 c 1,48,49
 367 168 367 168 367 109 c 0,50,51
 367 61 367 61 335.5 31 c 128,-1,52
 304 1 304 1 251 1 c 0,53,54
 166 1 166 1 103 78 c 128,-1,55
 40 155 40 155 30 268 c 1,0,-1
411 315 m 1,56,57
 432 304 432 304 432 268 c 2,58,-1
 432 224 l 1,59,-1
 432 201 l 2,60,61
 432 131 432 131 475 131 c 0,62,63
 510 131 510 131 534 164.5 c 128,-1,64
 558 198 558 198 558 250 c 0,65,66
 558 299 558 299 536 330 c 128,-1,67
 514 361 514 361 480 361 c 0,68,69
 433 361 433 361 411 315 c 1,56,57
216 505 m 1,70,-1
 233 517 l 1,71,72
 268 472 268 472 316 472 c 0,73,74
 362 472 362 472 395 517 c 1,75,-1
 444 477 l 1,76,77
 396 425 396 425 345 425 c 0,78,79
 268 425 268 425 216 505 c 1,70,-1
324 578 m 1,80,-1
 361 540 l 1,81,-1
 324 504 l 1,82,-1
 287 543 l 1,83,-1
 324 578 l 1,80,-1
EndSplineSet
Ligature2: "'blws' Below Base Substitutions in Telugu lookup 8 subtable" U0C15_U0C4D_U0C37_U0C46 U0C30_U0C4D
Ligature2: "'blws' Below Base Substitutions in Telugu lookup 7 subtable" U0C15_U0C4D_U0C37_U0C46 U0C30_U0C4D
EndChar

StartChar: U0951
Encoding: 2385 2385 107
Width: 0
GlyphClass: 2
Flags: W
LayerCount: 2
Back
Fore
SplineSet
-167 758 m 1,0,-1
 -214 758 l 1,1,-1
 -214 1101 l 1,2,-1
 -167 1101 l 1,3,-1
 -167 758 l 1,0,-1
-191 639 m 1024,4,-1
EndSplineSet
Ligature2: "'blws' Below Base Substitutions in Telugu lookup 11 subtable" U0C24_U0C4D U0C56
EndChar

StartChar: U0952
Encoding: 2386 2386 108
Width: 0
GlyphClass: 2
Flags: W
LayerCount: 2
Back
Fore
SplineSet
-293 -71 m 1024,0,-1
-48 -337 m 1,1,-1
 -528 -337 l 1,2,-1
 -528 -296 l 1,3,-1
 -48 -296 l 1,4,-1
 -48 -337 l 1,1,-1
-293 141 m 1024,5,-1
EndSplineSet
EndChar

StartChar: U0964
Encoding: 2404 2404 109
Width: 117
GlyphClass: 2
Flags: W
LayerCount: 2
Back
Fore
SplineSet
24 320 m 1,0,-1
 68 320 l 1,1,-1
 78 310 l 1,2,-1
 78 -13 l 2,3,4
 78 -20 78 -20 68 -20 c 2,5,-1
 24 -20 l 1,6,-1
 15 -13 l 1,7,-1
 15 310 l 1,8,-1
 24 320 l 1,0,-1
EndSplineSet
EndChar

StartChar: U0965
Encoding: 2405 2405 110
Width: 250
GlyphClass: 2
Flags: W
LayerCount: 2
Back
Fore
SplineSet
24 320 m 1,0,-1
 68 320 l 1,1,-1
 78 310 l 1,2,-1
 78 -13 l 2,3,4
 78 -20 78 -20 68 -20 c 2,5,-1
 24 -20 l 1,6,-1
 15 -13 l 1,7,-1
 15 310 l 1,8,-1
 24 320 l 1,0,-1
158 320 m 1,9,-1
 201 320 l 1,10,-1
 211 310 l 1,11,-1
 211 -13 l 2,12,13
 211 -20 211 -20 201 -20 c 2,14,-1
 158 -20 l 1,15,-1
 148 -13 l 1,16,-1
 148 310 l 1,17,-1
 158 320 l 1,9,-1
EndSplineSet
EndChar

StartChar: U0C01
Encoding: 3073 3073 111
Width: 315
GlyphClass: 2
Flags: W
LayerCount: 2
Back
Fore
SplineSet
276 -9 m 1,0,-1
 240 -17 l 1,1,-1
 203 -19 l 1,2,3
 125 -19 125 -19 70 31 c 128,-1,4
 15 81 15 81 15 158 c 0,5,6
 15 232 15 232 62 283 c 0,7,8
 114 338 114 338 200 338 c 0,9,10
 230 338 230 338 276 328 c 1,11,-1
 276 307 l 1,12,-1
 247 310 l 1,13,14
 185 310 185 310 135 266.5 c 128,-1,15
 85 223 85 223 85 158 c 256,16,17
 85 93 85 93 118 53 c 0,18,19
 155 7 155 7 223 7 c 2,20,-1
 239 7 l 2,21,22
 245 7 245 7 254 9 c 2,23,-1
 276 14 l 1,24,-1
 276 -9 l 1,0,-1
EndSplineSet
EndChar

StartChar: U0C02
Encoding: 3074 3074 112
Width: 395
GlyphClass: 2
Flags: W
LayerCount: 2
Back
Fore
SplineSet
356 150 m 256,0,1
 356 97 356 97 333 57 c 0,2,3
 314 23 314 23 271 -2 c 1,4,5
 231 -20 231 -20 187 -20 c 0,6,7
 118 -20 118 -20 66.5 25.5 c 128,-1,8
 15 71 15 71 15 150 c 0,9,10
 15 226 15 226 64 271.5 c 128,-1,11
 113 317 113 317 187 317 c 0,12,13
 231 317 231 317 269 299 c 0,14,15
 309 280 309 280 333 240 c 0,16,17
 356 203 356 203 356 150 c 256,0,1
325 150 m 0,18,19
 325 175 325 175 307 201 c 128,-1,20
 289 227 289 227 252.5 238 c 128,-1,21
 216 249 216 249 187 249 c 0,22,23
 126 249 126 249 86 221 c 0,24,25
 47 198 47 198 47 150 c 0,26,27
 47 116 47 116 65.5 94.5 c 128,-1,28
 84 73 84 73 119 61 c 2,29,-1
 151 52 l 1,30,-1
 187 49 l 2,31,32
 222 49 222 49 253 61 c 0,33,34
 288 70 288 70 305 94 c 0,35,36
 325 119 325 119 325 150 c 0,18,19
EndSplineSet
EndChar

StartChar: U0C03
Encoding: 3075 3075 113
Width: 203
GlyphClass: 2
Flags: W
LayerCount: 2
Back
Fore
SplineSet
165 248 m 0,0,1
 165 216 165 216 143 193 c 0,2,3
 120 174 120 174 92 174 c 0,4,5
 62 174 62 174 38.5 194 c 128,-1,6
 15 214 15 214 15 248 c 0,7,8
 15 276 15 276 36.5 297 c 128,-1,9
 58 318 58 318 92 318 c 0,10,11
 124 318 124 318 144.5 299.5 c 128,-1,12
 165 281 165 281 165 248 c 0,0,1
165 50 m 0,13,14
 165 18 165 18 145 -2 c 0,15,16
 133 -11 133 -11 121.5 -15.5 c 128,-1,17
 110 -20 110 -20 93 -20 c 0,18,19
 58 -20 58 -20 38 -1 c 0,20,21
 15 17 15 17 15 50 c 0,22,23
 15 80 15 80 36 101.5 c 128,-1,24
 57 123 57 123 92 123 c 0,25,26
 124 123 124 123 145 103 c 0,27,28
 165 85 165 85 165 50 c 0,13,14
135 248 m 0,29,30
 135 268 135 268 123 279.5 c 128,-1,31
 111 291 111 291 93 291 c 256,32,33
 75 291 75 291 61 279 c 0,34,35
 47 266 47 266 47 248 c 256,36,37
 47 230 47 230 61 215 c 0,38,39
 71 205 71 205 92 202 c 0,40,41
 106 202 106 202 120.5 214.5 c 128,-1,42
 135 227 135 227 135 248 c 0,29,30
135 49 m 1,43,44
 135 69 135 69 120 83 c 0,45,46
 110 93 110 93 93 96 c 0,47,48
 74 96 74 96 60.5 84 c 128,-1,49
 47 72 47 72 47 50 c 0,50,51
 47 31 47 31 59 19 c 0,52,53
 69 10 69 10 92 7 c 0,54,55
 104 7 104 7 117 17.5 c 128,-1,56
 130 28 130 28 135 49 c 1,43,44
EndSplineSet
EndChar

StartChar: U0C05
Encoding: 3077 3077 114
Width: 486
GlyphClass: 2
Flags: W
LayerCount: 2
Back
Fore
SplineSet
447 176 m 0,0,1
 447 115 447 115 418 72 c 128,-1,2
 389 29 389 29 338.5 4.5 c 128,-1,3
 288 -20 288 -20 232 -20 c 0,4,5
 148 -20 148 -20 78 33 c 0,6,7
 49 56 49 56 32 93 c 128,-1,8
 15 130 15 130 15 176 c 0,9,10
 15 215 15 215 33 250.5 c 128,-1,11
 51 286 51 286 77 302 c 128,-1,12
 103 318 103 318 128 318 c 0,13,14
 157 318 157 318 181 296 c 128,-1,15
 205 274 205 274 205 238 c 0,16,17
 205 206 205 206 182 185 c 128,-1,18
 159 164 159 164 131 164 c 0,19,20
 106 164 106 164 77 185 c 1,21,22
 55 206 55 206 55 235 c 1,23,24
 44 207 44 207 44 186 c 0,25,26
 44 142 44 142 72 108 c 0,27,28
 98 80 98 80 145 64 c 0,29,30
 186 50 186 50 229 48 c 0,31,32
 310 48 310 48 363 89.5 c 128,-1,33
 416 131 416 131 416 188 c 0,34,35
 416 219 416 219 407 244 c 0,36,37
 399 266 399 266 386 277.5 c 128,-1,38
 373 289 373 289 356.5 289.5 c 128,-1,39
 340 290 340 290 328 279 c 128,-1,40
 316 268 316 268 316 245 c 0,41,42
 316 212 316 212 370 176 c 1,43,-1
 370 149 l 1,44,-1
 205 149 l 1,45,-1
 216 174 l 1,46,-1
 329 174 l 1,47,48
 289 211 289 211 289 251 c 0,49,50
 289 269 289 269 297.5 283.5 c 128,-1,51
 306 298 306 298 321.5 306.5 c 128,-1,52
 337 315 337 315 357 315.5 c 128,-1,53
 377 316 377 316 394 304 c 0,54,55
 415 289 415 289 431 255.5 c 128,-1,56
 447 222 447 222 447 176 c 0,0,1
177 238 m 0,57,58
 177 262 177 262 165 274 c 0,59,60
 154 289 154 289 129 289 c 0,61,62
 108 289 108 289 95 273.5 c 128,-1,63
 82 258 82 258 82 238 c 0,64,65
 82 219 82 219 95 203 c 128,-1,66
 108 187 108 187 129 187 c 0,67,68
 154 187 154 187 165.5 202.5 c 128,-1,69
 177 218 177 218 177 238 c 0,57,58
EndSplineSet
EndChar

StartChar: U0C06
Encoding: 3078 3078 115
Width: 551
GlyphClass: 2
Flags: W
LayerCount: 2
Back
Fore
SplineSet
512 236 m 0,0,1
 512 208 512 208 497.5 188.5 c 128,-1,2
 483 169 483 169 463 161 c 1,3,4
 493 140 493 140 493 106 c 0,5,6
 493 53 493 53 433 16.5 c 128,-1,7
 373 -20 373 -20 257 -20 c 0,8,9
 155 -20 155 -20 85 31.5 c 128,-1,10
 15 83 15 83 15 176 c 0,11,12
 15 244 15 244 49 281 c 128,-1,13
 83 318 83 318 127 318 c 0,14,15
 158 318 158 318 181.5 298 c 128,-1,16
 205 278 205 278 205 243 c 0,17,18
 205 216 205 216 195 201 c 0,19,20
 182 185 182 185 175.5 180.5 c 128,-1,21
 169 176 169 176 160.5 172 c 128,-1,22
 152 168 152 168 131 168 c 0,23,24
 100 168 100 168 76 187 c 0,25,26
 56 207 56 207 56 238 c 1,27,-1
 51 224 l 2,28,29
 43 205 43 205 43 181 c 0,30,31
 43 139 43 139 75 107 c 0,32,33
 106 80 106 80 155 66 c 0,34,35
 166 62 166 62 196 56 c 128,-1,36
 226 50 226 50 257 50 c 0,37,38
 323 50 323 50 386.5 69 c 128,-1,39
 450 88 450 88 450 123 c 0,40,41
 450 136 450 136 444.5 142.5 c 128,-1,42
 439 149 439 149 422 160 c 1,43,-1
 227 160 l 1,44,-1
 240 186 l 1,45,-1
 382 186 l 1,46,-1
 361 214 l 2,47,48
 354 228 354 228 354 248 c 0,49,50
 354 264 354 264 360 277 c 128,-1,51
 366 290 366 290 386 307 c 1,52,53
 406 318 406 318 425 318 c 0,54,55
 460 318 460 318 486 292.5 c 128,-1,56
 512 267 512 267 512 236 c 0,0,1
483 237 m 0,57,58
 483 252 483 252 471.5 269.5 c 128,-1,59
 460 287 460 287 435.5 291 c 128,-1,60
 411 295 411 295 396.5 280.5 c 128,-1,61
 382 266 382 266 382 247 c 0,62,63
 382 208 382 208 429 186 c 1,64,65
 449 186 449 186 466 201.5 c 128,-1,66
 483 217 483 217 483 237 c 0,57,58
177 238 m 0,67,68
 177 262 177 262 165 274 c 0,69,70
 154 289 154 289 131 289 c 0,71,72
 109 289 109 289 96.5 273.5 c 128,-1,73
 84 258 84 258 84 238 c 0,74,75
 84 219 84 219 96.5 203 c 128,-1,76
 109 187 109 187 131 187 c 0,77,78
 155 187 155 187 166 202.5 c 128,-1,79
 177 218 177 218 177 238 c 0,67,68
EndSplineSet
EndChar

StartChar: U0C07
Encoding: 3079 3079 116
Width: 407
GlyphClass: 2
Flags: W
LayerCount: 2
Back
Fore
SplineSet
367 154.5 m 128,-1,1
 365 87 365 87 320 41 c 1,2,3
 337 10 337 10 345 -31 c 2,4,-1
 351 -74 l 1,5,-1
 353 -120 l 2,6,7
 353 -135 353 -135 344 -145 c 128,-1,8
 335 -155 335 -155 314 -155 c 0,9,10
 295 -155 295 -155 285 -146 c 0,11,12
 274 -141 274 -141 272 -123 c 1,13,-1
 286 -62 l 1,14,-1
 295 -15 l 1,15,-1
 299 19 l 1,16,17
 251 -20 251 -20 164 -20 c 0,18,19
 114 -20 114 -20 76 4 c 1,20,21
 47 28 47 28 47 62 c 0,22,23
 47 95 47 95 76 120 c 1,24,25
 111 142 111 142 166 142 c 0,26,27
 208 142 208 142 240 125 c 128,-1,28
 272 108 272 108 295 79 c 1,29,30
 326 97 326 97 335 165 c 1,31,32
 335 218 335 218 317 237 c 128,-1,33
 299 256 299 256 264 256 c 0,34,35
 237 256 237 256 218 239.5 c 128,-1,36
 199 223 199 223 199 193 c 1,37,-1
 176 193 l 1,38,39
 176 223 176 223 156 240 c 1,40,-1
 140 249 l 2,41,42
 123 256 123 256 104 256 c 0,43,44
 78 256 78 256 57.5 239.5 c 128,-1,45
 37 223 37 223 37 198 c 1,46,-1
 15 198 l 1,47,48
 15 255 15 255 43 289 c 128,-1,49
 71 323 71 323 109 323 c 0,50,51
 134 323 134 323 153 311 c 128,-1,52
 172 299 172 299 187 278 c 1,53,54
 221 324 221 324 269 324 c 0,55,56
 295 324 295 324 317 307 c 1,57,58
 340 295 340 295 354.5 258.5 c 128,-1,0
 369 222 369 222 367 154.5 c 128,-1,1
270 62 m 1,59,60
 231 121 231 121 166 121 c 0,61,62
 136 121 136 121 115 110.5 c 128,-1,63
 94 100 94 100 93 81 c 0,64,65
 93 66 93 66 116 53 c 0,66,67
 128 47 128 47 138 44 c 128,-1,68
 148 41 148 41 166 41 c 0,69,70
 232 41 232 41 270 62 c 1,59,60
EndSplineSet
EndChar

StartChar: U0C08
Encoding: 3080 3080 117
Width: 740
GlyphClass: 2
Flags: W
LayerCount: 2
Back
Fore
SplineSet
702 83 m 0,0,1
 702 46 702 46 683.5 20.5 c 128,-1,2
 665 -5 665 -5 631 -5 c 0,3,4
 594 -5 594 -5 569 23 c 0,5,6
 547 52 547 52 547 83 c 0,7,8
 547 122 547 122 575 145 c 1,9,-1
 436 145 l 1,10,11
 436 119 436 119 431 100 c 128,-1,12
 426 81 426 81 413 57 c 0,13,14
 390 21 390 21 348 -2 c 0,15,16
 311 -20 311 -20 265 -20 c 0,17,18
 220 -20 220 -20 183.5 -3.5 c 128,-1,19
 147 13 147 13 120 56 c 0,20,21
 96 91 96 91 96 145 c 1,22,-1
 15 145 l 1,23,-1
 15 171 l 1,24,-1
 97 171 l 1,25,26
 97 222 97 222 133 262 c 0,27,28
 164 295 164 295 217 312 c 1,29,30
 177 320 177 320 153.5 339 c 128,-1,31
 130 358 130 358 128 375 c 0,32,33
 128 422 128 422 181 422 c 0,34,35
 200 422 200 422 215 411 c 1,36,-1
 222 396 l 1,37,-1
 236 370 l 2,38,39
 252 336 252 336 265 336 c 0,40,41
 275 336 275 336 295 354 c 2,42,-1
 395 454 l 1,43,-1
 430 425 l 1,44,-1
 314 331 l 1,45,-1
 287 317 l 1,46,47
 341 310 341 310 384 273 c 128,-1,48
 427 236 427 236 435 171 c 1,49,-1
 618 171 l 2,50,51
 631 171 631 171 641 181.5 c 128,-1,52
 651 192 651 192 654 210 c 0,53,54
 654 226 654 226 642.5 235.5 c 128,-1,55
 631 245 631 245 604 245 c 0,56,57
 588 245 588 245 577 237.5 c 128,-1,58
 566 230 566 230 559 202 c 1,59,-1
 534 202 l 1,60,61
 534 247 534 247 556 268 c 128,-1,62
 578 289 578 289 620 289 c 0,63,64
 653 289 653 289 676.5 271.5 c 128,-1,65
 700 254 700 254 700 226 c 0,66,67
 700 195 700 195 660 162 c 1,68,69
 675 158 675 158 691 131 c 1,70,71
 702 104 702 104 702 83 c 0,0,1
673 104 m 0,72,73
 673 145 673 145 628 145 c 0,74,75
 607 145 607 145 594 135 c 0,76,77
 582 125 582 125 582 104 c 0,78,79
 582 89 582 89 595 72 c 1,80,81
 610 61 610 61 630 61 c 0,82,83
 649 61 649 61 661 71.5 c 128,-1,84
 673 82 673 82 673 104 c 0,72,73
398 169 m 1,85,86
 398 218 398 218 362.5 254.5 c 128,-1,87
 327 291 327 291 264 291 c 0,88,89
 202 291 202 291 166 255.5 c 128,-1,90
 130 220 130 220 130 169 c 1,91,-1
 398 169 l 1,85,86
397 145 m 1,92,-1
 128 145 l 1,93,94
 128 108 128 108 169 75.5 c 128,-1,95
 210 43 210 43 264 43 c 0,96,97
 323 43 323 43 356 73 c 0,98,99
 387 97 387 97 397 145 c 1,92,-1
EndSplineSet
EndChar

StartChar: U0C09
Encoding: 3081 3081 118
Width: 477
GlyphClass: 2
Flags: W
LayerCount: 2
Back
Fore
SplineSet
438 66 m 0,0,1
 438 28 438 28 412 2 c 0,2,3
 386 -20 386 -20 337 -20 c 0,4,5
 271 -20 271 -20 229 34 c 1,6,7
 209 10 209 10 185 -8 c 1,8,-1
 160 -18 l 2,9,10
 147 -20 147 -20 127 -20 c 0,11,12
 76 -20 76 -20 45.5 30 c 128,-1,13
 15 80 15 80 15 152 c 0,14,15
 15 213 15 213 72 263 c 128,-1,16
 129 313 129 313 219 313 c 1,17,18
 219 332 219 332 205.5 364 c 128,-1,19
 192 396 192 396 192 412 c 0,20,21
 192 430 192 430 202 445.5 c 128,-1,22
 212 461 212 461 232 462 c 0,23,24
 270 462 270 462 270 412 c 0,25,26
 270 399 270 399 262 379 c 0,27,28
 244 330 244 330 244 313 c 1,29,30
 295 313 295 313 328.5 303.5 c 128,-1,31
 362 294 362 294 403 267 c 1,32,-1
 375 238 l 1,33,34
 345 262 345 262 314 276 c 0,35,36
 276 289 276 289 222 289 c 0,37,38
 156 289 156 289 105 255.5 c 128,-1,39
 54 222 54 222 54 186 c 1,40,-1
 438 186 l 1,41,-1
 438 160 l 1,42,-1
 54 160 l 1,43,44
 54 111 54 111 75 74.5 c 128,-1,45
 96 38 96 38 136 38 c 0,46,47
 165 38 165 38 182.5 49 c 128,-1,48
 200 60 200 60 213 93 c 1,49,-1
 243 93 l 1,50,51
 258 53 258 53 310 38 c 1,52,53
 300 51 300 51 296 71 c 1,54,55
 296 127 296 127 367 127 c 256,56,57
 438 127 438 127 438 66 c 0,0,1
408 69 m 0,58,59
 408 98 408 98 366 98 c 256,60,61
 324 98 324 98 324 68 c 0,62,63
 324 54 324 54 336 46.5 c 128,-1,64
 348 39 348 39 366 38 c 0,65,66
 383 38 383 38 394 44 c 128,-1,67
 405 50 405 50 408 69 c 0,58,59
EndSplineSet
EndChar

StartChar: U0C0A
Encoding: 3082 3082 119
Width: 667
GlyphClass: 2
Flags: W
LayerCount: 2
Back
Fore
SplineSet
629 106 m 0,0,1
 629 60 629 60 610.5 36.5 c 128,-1,2
 592 13 592 13 548 13 c 0,3,4
 516 13 516 13 493.5 38.5 c 128,-1,5
 471 64 471 64 471 99 c 0,6,7
 471 139 471 139 499 163 c 1,8,-1
 57 163 l 1,9,-1
 54 134 l 1,10,11
 54 93 54 93 75 63 c 0,12,13
 97 38 97 38 136 38 c 0,14,15
 165 38 165 38 182.5 49 c 128,-1,16
 200 60 200 60 213 93 c 1,17,-1
 243 93 l 1,18,19
 258 49 258 49 307 38 c 1,20,21
 303 48 303 48 301 71 c 0,22,23
 301 89 301 89 319.5 108.5 c 128,-1,24
 338 128 338 128 365 128 c 0,25,26
 397 128 397 128 418 112 c 0,27,28
 438 97 438 97 438 66 c 0,29,30
 438 28 438 28 412 2 c 0,31,32
 386 -20 386 -20 337 -20 c 0,33,34
 271 -20 271 -20 229 34 c 1,35,36
 212 12 212 12 188 -6 c 0,37,38
 181 -9 181 -9 165.5 -14.5 c 128,-1,39
 150 -20 150 -20 127 -20 c 0,40,41
 75 -20 75 -20 44 22 c 0,42,43
 15 64 15 64 15 128 c 0,44,45
 15 180 15 180 47 225 c 0,46,47
 85 278 85 278 147 299 c 1,48,49
 147 332 147 332 130 379 c 1,50,-1
 124 411 l 2,51,52
 124 432 124 432 132 445.5 c 128,-1,53
 140 459 140 459 157 462 c 0,54,55
 172 462 172 462 183.5 447 c 128,-1,56
 195 432 195 432 195 411 c 1,57,-1
 191 396 l 1,58,-1
 180 359 l 2,59,60
 171 329 171 329 171 307 c 1,61,-1
 201 313 l 1,62,-1
 228 315 l 1,63,-1
 268 311 l 1,64,65
 268 327 268 327 253 376 c 0,66,67
 246 400 246 400 246 412 c 0,68,69
 246 433 246 433 255.5 447.5 c 128,-1,70
 265 462 265 462 280 462 c 0,71,72
 316 462 316 462 316 411 c 1,73,-1
 314 396 l 1,74,-1
 304 359 l 2,75,76
 300 343 300 343 297.5 332 c 128,-1,77
 295 321 295 321 295 309 c 1,78,79
 346 299 346 299 403 267 c 1,80,-1
 375 238 l 1,81,82
 354 257 354 257 308 270 c 2,83,-1
 267 279 l 1,84,-1
 221 282 l 2,85,86
 165 282 165 282 115.5 251 c 128,-1,87
 66 220 66 220 66 186 c 1,88,-1
 542 186 l 2,89,90
 557 186 557 186 567.5 197.5 c 128,-1,91
 578 209 578 209 581 228 c 0,92,93
 581 241 581 241 568.5 251 c 128,-1,94
 556 261 556 261 529 261 c 0,95,96
 485 261 485 261 485 220 c 1,97,-1
 459 220 l 1,98,99
 459 264 459 264 481 282.5 c 128,-1,100
 503 301 503 301 532.5 303 c 128,-1,101
 562 305 562 305 594.5 285.5 c 128,-1,102
 627 266 627 266 627 243 c 0,103,104
 627 211 627 211 586 180 c 1,105,106
 611 170 611 170 619 152 c 0,107,108
 629 134 629 134 629 106 c 0,0,1
601 121 m 1,109,110
 601 163 601 163 553 163 c 0,111,112
 533 163 533 163 520.5 152 c 128,-1,113
 508 141 508 141 508 121 c 0,114,115
 508 103 508 103 520.5 90.5 c 128,-1,116
 533 78 533 78 553 78 c 0,117,118
 575 78 575 78 585.5 88 c 128,-1,119
 596 98 596 98 601 121 c 1,109,110
405 68 m 0,120,121
 405 99 405 99 364 99 c 0,122,123
 322 99 322 99 322 68 c 0,124,125
 322 38 322 38 365 38 c 0,126,127
 405 38 405 38 405 68 c 0,120,121
EndSplineSet
EndChar

StartChar: U0C0B
Encoding: 3083 3083 120
Width: 971
GlyphClass: 2
Flags: W
LayerCount: 2
Back
Fore
SplineSet
414 74 m 1,0,1
 407 35 407 35 389 13 c 0,2,3
 358 -20 358 -20 313 -20 c 0,4,5
 275 -20 275 -20 257 -5.5 c 128,-1,6
 239 9 239 9 217 42 c 1,7,8
 201 11 201 11 178 -6 c 0,9,10
 158 -20 158 -20 120 -20 c 0,11,12
 78 -20 78 -20 51 0 c 0,13,14
 24 22 24 22 24 61 c 0,15,16
 24 84 24 84 44 104 c 0,17,18
 52 115 52 115 66 125 c 2,19,-1
 99 151 l 1,20,-1
 133 175 l 1,21,-1
 157 198 l 2,22,23
 176 217 176 217 176 245 c 0,24,25
 176 266 176 266 160.5 277.5 c 128,-1,26
 145 289 145 289 120 289 c 0,27,28
 105 289 105 289 93 281 c 0,29,30
 81 275 81 275 77 259 c 1,31,-1
 78 244 l 1,32,-1
 82 236 l 1,33,34
 82 221 82 221 73.5 213 c 128,-1,35
 65 205 65 205 49 201 c 0,36,37
 38 201 38 201 24 212 c 0,38,39
 18 219 18 219 15 238 c 0,40,41
 15 278 15 278 43 299.5 c 128,-1,42
 71 321 71 321 108 321 c 2,43,-1
 127 320 l 2,44,45
 140 320 140 320 156 312.5 c 128,-1,46
 172 305 172 305 194 281 c 0,47,48
 207 263 207 263 207 236 c 0,49,50
 207 211 207 211 188.5 191 c 128,-1,51
 170 171 170 171 130 142 c 2,52,-1
 81 102 l 2,53,54
 72 92 72 92 68 78 c 0,55,56
 68 67 68 67 83 56 c 1,57,58
 102 48 102 48 120 48 c 0,59,60
 158 48 158 48 177 63 c 1,61,62
 196 71 196 71 204 111 c 1,63,-1
 232 111 l 1,64,65
 243 48 243 48 313 48 c 0,66,67
 356 48 356 48 375 69.5 c 128,-1,68
 394 91 394 91 394 143 c 0,69,70
 394 163 394 163 379 185.5 c 128,-1,71
 364 208 364 208 348.5 222.5 c 128,-1,72
 333 237 333 237 309 248 c 0,73,74
 274 260 274 260 274 289 c 0,75,76
 274 301 274 301 283.5 308.5 c 128,-1,77
 293 316 293 316 313 320 c 1,78,79
 348 320 348 320 375 286 c 1,80,-1
 395 252 l 1,81,-1
 411 208 l 1,82,-1
 416 170 l 1,83,-1
 418 136 l 1,84,-1
 417 99 l 1,85,-1
 434 87 l 1,86,-1
 470 68 l 1,87,-1
 507 56 l 1,88,-1
 546 52 l 1,89,90
 595 52 595 52 620.5 77 c 128,-1,91
 646 102 646 102 646 145 c 0,92,93
 646 238 646 238 542 238 c 0,94,95
 520 238 520 238 509 249.5 c 128,-1,96
 498 261 498 261 493 281 c 1,97,98
 493 298 493 298 506 307 c 0,99,100
 518 318 518 318 542 318 c 0,101,102
 567 318 567 318 602 293 c 0,103,104
 620 277 620 277 630 264 c 2,105,-1
 654 225 l 1,106,107
 676 177 676 177 676 141 c 2,108,-1
 674 99 l 1,109,-1
 688 87 l 1,110,-1
 726 68 l 1,111,-1
 762 56 l 1,112,-1
 800 52 l 1,113,114
 851 52 851 52 876 77 c 128,-1,115
 901 102 901 102 901 145 c 0,116,117
 901 238 901 238 798 238 c 0,118,119
 776 238 776 238 764.5 249.5 c 128,-1,120
 753 261 753 261 749 281 c 0,121,122
 749 298 749 298 762 307 c 0,123,124
 774 318 774 318 798 318 c 0,125,126
 824 318 824 318 857 293 c 0,127,128
 876 277 876 277 885 264 c 2,129,-1
 909 225 l 1,130,131
 932 177 932 177 932 141 c 0,132,133
 932 61 932 61 896.5 19.5 c 128,-1,134
 861 -22 861 -22 810 -22 c 0,135,136
 769 -22 769 -22 724 8 c 0,137,138
 705 21 705 21 681 56 c 2,139,-1
 667 74 l 1,140,141
 661 42 661 42 642 19 c 0,142,143
 607 -22 607 -22 556 -22 c 0,144,145
 512 -22 512 -22 468 8 c 0,146,147
 450 21 450 21 424 56 c 1,148,-1
 414 74 l 1,0,1
EndSplineSet
EndChar

StartChar: U0C0C
Encoding: 3084 3084 121
Width: 553
GlyphClass: 2
Flags: W
LayerCount: 2
Back
Fore
SplineSet
515 199 m 0,0,1
 515 96 515 96 474.5 38 c 128,-1,2
 434 -20 434 -20 365 -20 c 0,3,4
 307 -20 307 -20 272 9 c 0,5,6
 230 43 230 43 230 117 c 0,7,8
 230 162 230 162 297.5 234 c 128,-1,9
 365 306 365 306 365 334 c 0,10,11
 365 415 365 415 296 415 c 0,12,13
 267 415 267 415 243 380 c 0,14,15
 221 345 221 345 221 278 c 1,16,-1
 194 278 l 1,17,18
 194 345 194 345 170 383.5 c 128,-1,19
 146 422 146 422 109 422 c 0,20,21
 86 422 86 422 70 398.5 c 128,-1,22
 54 375 54 375 54 334 c 0,23,24
 54 290 54 290 74 245 c 1,25,-1
 51 245 l 1,26,27
 15 297 15 297 15 347 c 0,28,29
 15 414 15 414 39.5 452.5 c 128,-1,30
 64 491 64 491 107 491 c 0,31,32
 146 491 146 491 168 462 c 0,33,34
 184 444 184 444 205 388 c 1,35,36
 208 398 208 398 211 406.5 c 128,-1,37
 214 415 214 415 224 431 c 2,38,-1
 241 462 l 1,39,40
 263 491 263 491 304 491 c 0,41,42
 347 491 347 491 374.5 456 c 128,-1,43
 402 421 402 421 402 360 c 0,44,45
 402 319 402 319 354 259 c 0,46,47
 258 141 258 141 258 117 c 0,48,49
 258 78 258 78 287.5 55 c 128,-1,50
 317 32 317 32 366 32 c 0,51,52
 420 32 420 32 452.5 78 c 128,-1,53
 485 124 485 124 485 210 c 0,54,55
 485 228 485 228 471 263 c 2,56,-1
 444 345 l 1,57,58
 444 366 444 366 469 366 c 0,59,60
 478 366 478 366 486 360 c 2,61,-1
 497 346 l 2,62,63
 515 318 515 318 515 199 c 0,0,1
EndSplineSet
EndChar

StartChar: U0C0E
Encoding: 3086 3086 122
Width: 425
GlyphClass: 2
Flags: W
LayerCount: 2
Back
Fore
SplineSet
386 182 m 0,0,1
 386 -20 386 -20 270 -20 c 0,2,3
 242 -20 242 -20 221 -3 c 0,4,5
 210 8 210 8 200.5 20 c 128,-1,6
 191 32 191 32 177 56 c 1,7,8
 167 28 167 28 147 2 c 0,9,10
 128 -20 128 -20 99 -20 c 0,11,12
 63 -20 63 -20 36 9 c 1,13,14
 15 41 15 41 15 76 c 0,15,16
 15 113 15 113 36 143.5 c 128,-1,17
 57 174 57 174 99 174 c 0,18,19
 125 174 125 174 150 157 c 0,20,21
 162 149 162 149 170 136 c 2,22,-1
 197 108 l 2,23,24
 208 92 208 92 214 85.5 c 128,-1,25
 220 79 220 79 240 63 c 0,26,27
 253 50 253 50 276 50 c 0,28,29
 320 50 320 50 339.5 87.5 c 128,-1,30
 359 125 359 125 359 193 c 0,31,32
 359 265 359 265 319 322 c 128,-1,33
 279 379 279 379 196 408 c 0,34,35
 180 413 180 413 173.5 421 c 128,-1,36
 167 429 167 429 167 441 c 0,37,38
 167 454 167 454 178 464 c 128,-1,39
 189 474 189 474 210 474 c 0,40,41
 250 474 250 474 292 438 c 128,-1,42
 334 402 334 402 360 333.5 c 128,-1,43
 386 265 386 265 386 182 c 0,0,1
158 98 m 0,44,45
 158 115 158 115 143 130 c 128,-1,46
 128 145 128 145 103 145 c 0,47,48
 79 145 79 145 62 131 c 0,49,50
 47 116 47 116 47 96 c 0,51,52
 47 81 47 81 61 65.5 c 128,-1,53
 75 50 75 50 103 50 c 0,54,55
 128 50 128 50 143 64 c 128,-1,56
 158 78 158 78 158 98 c 0,44,45
EndSplineSet
EndChar

StartChar: U0C0F
Encoding: 3087 3087 123
Width: 425
GlyphClass: 2
Flags: W
LayerCount: 2
Back
Fore
SplineSet
116 548 m 2,0,-1
 109 524 l 1,1,-1
 86 482 l 2,2,3
 64 447 64 447 60 411 c 0,4,5
 55 389 55 389 62 368 c 2,6,-1
 67 339 l 1,7,-1
 76 312 l 1,8,-1
 54 301 l 1,9,-1
 37 343 l 1,10,-1
 25 381 l 2,11,12
 18 405 18 405 18 431 c 2,13,-1
 22 491 l 2,14,15
 28 538 28 538 49.5 563.5 c 128,-1,16
 71 589 71 589 94 586 c 0,17,18
 107 585 107 585 113 576 c 128,-1,19
 119 567 119 567 116 548 c 2,0,-1
386 182 m 0,20,21
 386 -20 386 -20 270 -20 c 0,22,23
 242 -20 242 -20 221 -3 c 0,24,25
 210 8 210 8 200.5 20 c 128,-1,26
 191 32 191 32 177 56 c 1,27,28
 167 28 167 28 147 2 c 0,29,30
 128 -20 128 -20 99 -20 c 0,31,32
 63 -20 63 -20 36 9 c 1,33,34
 15 41 15 41 15 76 c 0,35,36
 15 174 15 174 99 174 c 0,37,38
 124 174 124 174 151 157 c 1,39,-1
 179 129 l 1,40,-1
 197 109 l 1,41,-1
 220 81 l 1,42,-1
 239 63 l 2,43,44
 255 50 255 50 276 50 c 0,45,46
 356 50 356 50 356 193 c 0,47,48
 356 242 356 242 338.5 284.5 c 128,-1,49
 321 327 321 327 286.5 358 c 128,-1,50
 252 389 252 389 196 408 c 0,51,52
 180 413 180 413 173.5 421 c 128,-1,53
 167 429 167 429 167 441 c 0,54,55
 167 454 167 454 178 464 c 128,-1,56
 189 474 189 474 210 474 c 0,57,58
 250 474 250 474 292 438 c 128,-1,59
 334 402 334 402 360 333.5 c 128,-1,60
 386 265 386 265 386 182 c 0,20,21
158 98 m 0,61,62
 158 115 158 115 143 130 c 128,-1,63
 128 145 128 145 103 145 c 0,64,65
 79 145 79 145 62 131 c 0,66,67
 47 116 47 116 47 96 c 0,68,69
 47 81 47 81 61 65.5 c 128,-1,70
 75 50 75 50 103 50 c 0,71,72
 128 50 128 50 143 64 c 128,-1,73
 158 78 158 78 158 98 c 0,61,62
EndSplineSet
EndChar

StartChar: U0C10
Encoding: 3088 3088 124
Width: 460
GlyphClass: 2
Flags: W
LayerCount: 2
Back
Fore
SplineSet
422 154 m 0,0,1
 422 113 422 113 407.5 73.5 c 128,-1,2
 393 34 393 34 362 5 c 1,3,4
 327 -20 327 -20 281 -20 c 0,5,6
 248 -20 248 -20 226 -3 c 0,7,8
 216 8 216 8 206 20 c 128,-1,9
 196 32 196 32 182 56 c 1,10,11
 172 26 172 26 149 1 c 1,12,13
 123 -20 123 -20 97 -20 c 0,14,15
 58 -20 58 -20 36.5 9 c 128,-1,16
 15 38 15 38 15 74 c 0,17,18
 15 113 15 113 38 143.5 c 128,-1,19
 61 174 61 174 103 174 c 0,20,21
 133 174 133 174 153 158 c 2,22,-1
 180 133 l 1,23,-1
 200 111 l 2,24,25
 224 80 224 80 243 66 c 2,26,-1
 259 56 l 2,27,28
 268 52 268 52 289 50 c 0,29,30
 396 50 396 50 396 157 c 0,31,32
 396 208 396 208 374 233.5 c 128,-1,33
 352 259 352 259 309 259 c 0,34,35
 259 259 259 259 228 210 c 1,36,-1
 200 210 l 1,37,38
 173 259 173 259 119 259 c 0,39,40
 68 259 68 259 42 210 c 1,41,-1
 16 210 l 1,42,43
 16 254 16 254 48 284.5 c 128,-1,44
 80 315 80 315 118 315 c 0,45,46
 144 315 144 315 174 297 c 0,47,48
 199 279 199 279 212 250 c 1,49,50
 224 277 224 277 254 296.5 c 128,-1,51
 284 316 284 316 315 316 c 0,52,53
 343 316 343 316 365.5 300.5 c 128,-1,54
 388 285 388 285 407 245 c 0,55,56
 422 208 422 208 422 154 c 0,0,1
161 98 m 0,57,58
 161 111 161 111 154.5 121.5 c 128,-1,59
 148 132 148 132 134.5 138.5 c 128,-1,60
 121 145 121 145 105 145 c 0,61,62
 79 145 79 145 62.5 131 c 128,-1,63
 46 117 46 117 46 96 c 0,64,65
 46 80 46 80 59.5 65 c 128,-1,66
 73 50 73 50 105 50 c 0,67,68
 128 50 128 50 144.5 64 c 128,-1,69
 161 78 161 78 161 98 c 0,57,58
EndSplineSet
EndChar

StartChar: U0C12
Encoding: 3090 3090 125
Width: 448
GlyphClass: 2
Flags: W
LayerCount: 2
Back
Fore
SplineSet
409 70 m 1,0,1
 409 29 409 29 383.5 4.5 c 128,-1,2
 358 -20 358 -20 319 -20 c 0,3,4
 257 -20 257 -20 220 46 c 1,5,-1
 201 20 l 1,6,-1
 179 -2 l 2,7,8
 156 -20 156 -20 120 -20 c 0,9,10
 77 -20 77 -20 46 3 c 128,-1,11
 15 26 15 26 15 66 c 0,12,13
 15 90 15 90 35 117 c 1,14,-1
 67 143 l 1,15,-1
 95 163 l 1,16,-1
 128 186 l 1,17,-1
 152 206 l 2,18,19
 171 225 171 225 171 248 c 0,20,21
 171 267 171 267 154.5 280.5 c 128,-1,22
 138 294 138 294 113 294 c 0,23,24
 74 294 74 294 74 265 c 0,25,26
 74 249 74 249 85 233 c 1,27,28
 85 218 85 218 77 209.5 c 128,-1,29
 69 201 69 201 51 198 c 0,30,31
 36 198 36 198 25.5 208.5 c 128,-1,32
 15 219 15 219 15 238 c 0,33,34
 15 276 15 276 42 299 c 0,35,36
 68 321 68 321 106 321 c 0,37,38
 134 321 134 321 154 311 c 0,39,40
 171 305 171 305 186 286 c 128,-1,41
 201 267 201 267 201 238 c 0,42,43
 201 219 201 219 185 201 c 2,44,-1
 136 158 l 1,45,-1
 112 139 l 1,46,-1
 85 116 l 1,47,48
 68 96 68 96 68 82 c 0,49,50
 68 50 68 50 129 50 c 0,51,52
 167 50 167 50 187.5 69.5 c 128,-1,53
 208 89 208 89 208 111 c 1,54,-1
 231 111 l 1,55,56
 239 84 239 84 258 67 c 256,57,58
 277 50 277 50 313 50 c 0,59,60
 338 50 338 50 356 69.5 c 128,-1,61
 374 89 374 89 374 131 c 1,62,-1
 396 131 l 1,63,-1
 404 99 l 1,64,-1
 409 70 l 1,0,1
EndSplineSet
EndChar

StartChar: U0C13
Encoding: 3091 3091 126
Width: 448
GlyphClass: 2
Flags: W
LayerCount: 2
Back
Fore
SplineSet
409 64 m 1,0,1
 409 29 409 29 383.5 4.5 c 128,-1,2
 358 -20 358 -20 319 -20 c 0,3,4
 257 -20 257 -20 220 46 c 1,5,-1
 201 20 l 1,6,-1
 179 -2 l 2,7,8
 156 -20 156 -20 120 -20 c 0,9,10
 77 -20 77 -20 46 3 c 128,-1,11
 15 26 15 26 15 66 c 0,12,13
 15 105 15 105 34 121 c 2,14,-1
 74 152 l 1,15,-1
 115 180 l 2,16,17
 171 221 171 221 171 244 c 0,18,19
 171 289 171 289 113 289 c 0,20,21
 100 289 100 289 88.5 282 c 128,-1,22
 77 275 77 275 74 265 c 0,23,24
 74 249 74 249 85 233 c 1,25,26
 85 211 85 211 79 205 c 0,27,28
 76 198 76 198 54 198 c 0,29,30
 42 198 42 198 26 208 c 1,31,32
 15 220 15 220 15 238 c 0,33,34
 15 268 15 268 31 287 c 128,-1,35
 47 306 47 306 75 319 c 1,36,37
 58 328 58 328 49 344 c 1,38,39
 42 368 42 368 42 384 c 0,40,41
 42 421 42 421 69 441.5 c 128,-1,42
 96 462 96 462 127 462 c 0,43,44
 156 462 156 462 176 452 c 0,45,46
 192 444 192 444 202 421.5 c 128,-1,47
 212 399 212 399 212 358 c 1,48,-1
 187 358 l 1,49,50
 187 379 187 379 170 399 c 0,51,52
 152 415 152 415 126 415 c 0,53,54
 75 415 75 415 75 380 c 0,55,56
 75 364 75 364 81.5 349.5 c 128,-1,57
 88 335 88 335 107 321 c 1,58,59
 130 321 130 321 151 313.5 c 128,-1,60
 172 306 172 306 186.5 287.5 c 128,-1,61
 201 269 201 269 201 244 c 0,62,63
 201 216 201 216 186 199.5 c 128,-1,64
 171 183 171 183 133 158 c 2,65,-1
 105 136 l 1,66,-1
 85 118 l 2,67,68
 68 103 68 103 68 82 c 0,69,70
 68 50 68 50 129 50 c 0,71,72
 167 50 167 50 187.5 69.5 c 128,-1,73
 208 89 208 89 208 111 c 1,74,-1
 231 111 l 1,75,76
 239 84 239 84 258 67 c 256,77,78
 277 50 277 50 313 50 c 0,79,80
 334 50 334 50 351 64 c 128,-1,81
 368 78 368 78 368 98 c 0,82,83
 368 117 368 117 354 136 c 1,84,-1
 377 136 l 1,85,86
 393 129 393 129 401 106 c 2,87,-1
 406 85 l 1,88,-1
 409 64 l 1,0,1
EndSplineSet
EndChar

StartChar: U0C14
Encoding: 3092 3092 127
Width: 561
GlyphClass: 2
Flags: W
LayerCount: 2
Back
Fore
SplineSet
491 450.5 m 128,-1,1
 456 478 456 478 408 478 c 2,2,-1
 15 478 l 1,3,-1
 15 418 l 1,4,-1
 179 418 l 1,5,6
 197 412 197 412 204.5 401 c 128,-1,7
 212 390 212 390 212 378 c 0,8,9
 212 363 212 363 203 353 c 128,-1,10
 194 343 194 343 174 343 c 2,11,-1
 15 343 l 1,12,-1
 15 310 l 1,13,-1
 53 310 l 1,14,15
 15 292 15 292 15 238 c 0,16,17
 15 217 15 217 28 204 c 1,18,19
 44 194 44 194 56 194 c 0,20,21
 76 194 76 194 86 203 c 128,-1,22
 96 212 96 212 96 235 c 1,23,24
 78 259 78 259 78 265 c 0,25,26
 78 285 78 285 115 285 c 0,27,28
 147 285 147 285 159 276 c 128,-1,29
 171 267 171 267 171 248 c 256,30,31
 171 229 171 229 156 218 c 2,32,-1
 99 175 l 1,33,-1
 61 143 l 1,34,-1
 35 121 l 1,35,36
 15 95 15 95 15 66 c 0,37,38
 15 23 15 23 47 -0.5 c 128,-1,39
 79 -24 79 -24 122 -24 c 0,40,41
 158 -24 158 -24 180 -8 c 2,42,-1
 205 16 l 2,43,44
 218 28 218 28 222 39 c 1,45,46
 259 -24 259 -24 321 -24 c 0,47,48
 360 -24 360 -24 386.5 1.5 c 128,-1,49
 413 27 413 27 413 64 c 1,50,-1
 410 86 l 1,51,-1
 405 108 l 2,52,53
 396 133 396 133 379 140 c 1,54,-1
 349 140 l 1,55,56
 368 115 368 115 368 98 c 0,57,58
 368 80 368 80 352 67 c 128,-1,59
 336 54 336 54 315 54 c 0,60,61
 277 54 277 54 260 72 c 128,-1,62
 243 90 243 90 234 115 c 1,63,-1
 208 115 l 1,64,65
 208 91 208 91 185.5 72.5 c 128,-1,66
 163 54 163 54 128 54 c 0,67,68
 99 54 99 54 87.5 59.5 c 128,-1,69
 76 65 76 65 74 67.5 c 128,-1,70
 72 70 72 70 72 82 c 0,71,72
 72 107 72 107 105 132 c 2,73,-1
 171 184 l 2,74,75
 205 212 205 212 205 244 c 0,76,77
 204 268 204 268 198 283.5 c 128,-1,78
 192 299 192 299 179 305 c 0,79,80
 168 314 168 314 168 314 c 1,81,-1
 183 310 l 1,82,83
 246 310 246 310 246 374 c 0,84,85
 246 402 246 402 233 418 c 1,86,-1
 385 418 l 1,87,88
 364 384 364 384 366 342 c 128,-1,89
 368 300 368 300 392 269 c 0,90,91
 416 241 416 241 446 241 c 0,92,93
 480 241 480 241 503 272.5 c 128,-1,94
 526 304 526 304 526 358 c 0,95,0
 526 423 526 423 491 450.5 c 128,-1,1
492 330 m 128,-1,97
 481 315 481 315 453 315 c 0,98,99
 426 315 426 315 411 330 c 1,100,101
 398 352 398 352 398 369 c 256,102,103
 398 386 398 386 407 398.5 c 128,-1,104
 416 411 416 411 431 417.5 c 128,-1,105
 446 424 446 424 467 418.5 c 128,-1,106
 488 413 488 413 495.5 398.5 c 128,-1,107
 503 384 503 384 503 368 c 0,108,96
 503 345 503 345 492 330 c 128,-1,97
EndSplineSet
EndChar

StartChar: U0C15
Encoding: 3093 3093 128
Width: 374
GlyphClass: 2
Flags: W
LayerCount: 2
Back
Fore
SplineSet
192 314 m 1,0,-1
 205 314 l 2,1,2
 213 314 213 314 244 304 c 0,3,4
 272 296 272 296 295 277 c 128,-1,5
 318 258 318 258 318 237 c 0,6,7
 318 224 318 224 311.5 217.5 c 128,-1,8
 305 211 305 211 287 208 c 0,9,10
 270 208 270 208 242 226 c 2,11,-1
 211 247 l 1,12,-1
 189 258 l 1,13,-1
 164 266 l 2,14,15
 144 272 144 272 124 272 c 0,16,17
 66 272 66 272 66 231 c 0,18,19
 66 209 66 209 95 193 c 0,20,21
 118 182 118 182 188 160 c 2,22,-1
 252 141 l 1,23,-1
 273 133 l 2,24,25
 289 130 289 130 298 122 c 0,26,27
 330 104 330 104 330 70 c 0,28,29
 330 40 330 40 314.5 21 c 128,-1,30
 299 2 299 2 267 -9 c 1,31,-1
 225 -18 l 1,32,-1
 175 -20 l 2,33,34
 149 -20 149 -20 128 -16.5 c 128,-1,35
 107 -13 107 -13 79 2 c 0,36,37
 31 26 31 26 15 50 c 1,38,-1
 35 88 l 1,39,-1
 63 72 l 1,40,-1
 104 57 l 1,41,-1
 147 47 l 1,42,-1
 193 43 l 1,43,-1
 238 45 l 2,44,45
 250 45 250 45 269 52 c 0,46,47
 292 62 292 62 295 72 c 0,48,49
 295 91 295 91 268 109 c 1,50,-1
 226 122 l 1,51,-1
 165 142 l 1,52,-1
 110 160 l 1,53,-1
 68 179 l 1,54,55
 37 200 37 200 37 233 c 0,56,57
 37 264 37 264 77 290 c 0,58,59
 94 301 94 301 115 308 c 1,60,61
 91 312 91 312 67 328 c 0,62,63
 32 351 32 351 32 373 c 0,64,65
 32 419 32 419 83 419 c 0,66,67
 105 419 105 419 115 407.5 c 128,-1,68
 125 396 125 396 140 365 c 128,-1,69
 155 334 155 334 170 334 c 0,70,71
 180 334 180 334 199 352 c 2,72,-1
 299 452 l 1,73,-1
 333 421 l 1,74,-1
 218 329 l 2,75,76
 207 321 207 321 192 314 c 1,0,-1
EndSplineSet
Substitution2: "Single Substitution lookup 23 subtable" U0C15_U0C4D_U0C30
Substitution2: "Single Substitution lookup 22 subtable" U0C15.haln
MultipleSubs2: "Multiple Substitution lookup 19 subtable" U0C15_U0C46 U0C56
EndChar

StartChar: U0C16
Encoding: 3094 3094 129
Width: 426
GlyphClass: 2
Flags: W
LayerCount: 2
Back
Fore
SplineSet
387 152 m 0,0,1
 387 71 387 71 362 23 c 1,2,3
 335 -20 335 -20 285 -20 c 0,4,5
 240 -20 240 -20 194 30 c 1,6,-1
 198 3 l 1,7,-1
 204 -19 l 1,8,-1
 221 -73 l 1,9,10
 221 -106 221 -106 190 -106 c 0,11,12
 175 -106 175 -106 166.5 -98.5 c 128,-1,13
 158 -91 158 -91 158 -72 c 0,14,15
 158 -64 158 -64 171 -21 c 2,16,-1
 185 26 l 1,17,18
 137 -20 137 -20 94 -20 c 0,19,20
 61 -20 61 -20 36 2 c 1,21,22
 15 28 15 28 15 64 c 0,23,24
 15 101 15 101 36.5 121 c 128,-1,25
 58 141 58 141 94 141 c 0,26,27
 117 141 117 141 138 127 c 0,28,29
 153 121 153 121 178 92 c 1,30,31
 194 116 194 116 194 150 c 0,32,33
 194 205 194 205 156 252 c 1,34,-1
 157 235 l 2,35,36
 157 201 157 201 136.5 180 c 128,-1,37
 116 159 116 159 82 159 c 0,38,39
 56 159 56 159 35.5 184 c 128,-1,40
 15 209 15 209 15 236 c 0,41,42
 15 267 15 267 40.5 291 c 128,-1,43
 66 315 66 315 98 315 c 0,44,45
 152 315 152 315 191 255 c 1,46,47
 223 198 223 198 223 143 c 0,48,49
 223 102 223 102 209 67 c 1,50,51
 240 41 240 41 278 41 c 0,52,53
 365 41 365 41 365 136 c 0,54,55
 365 183 365 183 339.5 212.5 c 128,-1,56
 314 242 314 242 275 242 c 0,57,58
 261 242 261 242 244 253 c 1,59,60
 233 265 233 265 233 278 c 0,61,62
 233 315 233 315 269 315 c 0,63,64
 310 315 310 315 348.5 259 c 128,-1,65
 387 203 387 203 387 152 c 0,0,1
131 236 m 256,66,67
 131 286 131 286 86 286 c 0,68,69
 71 286 71 286 56 271 c 0,70,71
 43 256 43 256 43 236 c 0,72,73
 43 219 43 219 54 200 c 0,74,75
 63 186 63 186 86 186 c 0,76,77
 131 186 131 186 131 236 c 256,66,67
160 67 m 1,78,79
 120 112 120 112 84 112 c 0,80,81
 72 112 72 112 59 102 c 0,82,83
 53 94 53 94 51 75 c 0,84,85
 51 41 51 41 84 41 c 0,86,87
 131 41 131 41 160 67 c 1,78,79
EndSplineSet
Substitution2: "Single Substitution lookup 23 subtable" U0C16_U0C4D_U0C30
Substitution2: "Single Substitution lookup 22 subtable" U0C16.haln
MultipleSubs2: "Multiple Substitution lookup 19 subtable" U0C16_U0C46 U0C56
EndChar

StartChar: U0C17
Encoding: 3095 3095 130
Width: 380
GlyphClass: 2
Flags: W
LayerCount: 2
Back
Fore
SplineSet
203 318 m 1,0,1
 242 297 242 297 282 214 c 0,2,3
 331 113 331 113 331 19 c 0,4,5
 331 -20 331 -20 292 -20 c 0,6,7
 252 -20 252 -20 252 19 c 2,8,-1
 253 39 l 1,9,-1
 256 63 l 1,10,-1
 260 82 l 1,11,-1
 260 95 l 2,12,13
 260 167 260 167 240 223 c 0,14,15
 214 298 214 298 175 298 c 0,16,17
 140 298 140 298 112 229 c 0,18,19
 99 196 99 196 92 160.5 c 128,-1,20
 85 125 85 125 85 94 c 2,21,-1
 86 70 l 1,22,-1
 93 19 l 1,23,24
 93 -20 93 -20 53 -20 c 0,25,26
 38 -20 38 -20 28 -11 c 128,-1,27
 18 -2 18 -2 15 19 c 0,28,29
 15 114 15 114 63 213 c 0,30,31
 96 281 96 281 130 308 c 1,32,33
 103 311 103 311 74 328 c 0,34,35
 39 351 39 351 39 373 c 0,36,37
 39 419 39 419 92 419 c 0,38,39
 112 419 112 419 122 407.5 c 128,-1,40
 132 396 132 396 146.5 365 c 128,-1,41
 161 334 161 334 177 334 c 0,42,43
 188 334 188 334 206 352 c 2,44,-1
 305 452 l 1,45,-1
 341 421 l 1,46,-1
 226 329 l 2,47,48
 214 320 214 320 203 318 c 1,0,1
EndSplineSet
Substitution2: "Single Substitution lookup 23 subtable" U0C17_U0C4D_U0C30
Substitution2: "Single Substitution lookup 22 subtable" U0C17.haln
MultipleSubs2: "Multiple Substitution lookup 19 subtable" U0C17_U0C46 U0C56
EndChar

StartChar: U0C18
Encoding: 3096 3096 131
Width: 686
GlyphClass: 2
Flags: W
LayerCount: 2
Back
Fore
SplineSet
178 102 m 0,0,1
 178 120 178 120 164 134.5 c 128,-1,2
 150 149 150 149 126 149 c 0,3,4
 103 149 103 149 85 135 c 0,5,6
 71 120 71 120 71 101 c 0,7,8
 71 84 71 84 84.5 69.5 c 128,-1,9
 98 55 98 55 126 55 c 0,10,11
 150 55 150 55 164 68 c 128,-1,12
 178 81 178 81 178 102 c 0,0,1
397 92 m 1,13,-1
 404 87 l 1,14,-1
 441 68 l 1,15,-1
 478 56 l 1,16,-1
 516 52 l 1,17,18
 567 52 567 52 591.5 77 c 128,-1,19
 616 102 616 102 616 145 c 0,20,21
 616 238 616 238 513 238 c 0,22,23
 491 238 491 238 479.5 249.5 c 128,-1,24
 468 261 468 261 465 281 c 0,25,26
 465 298 465 298 478 307 c 0,27,28
 489 318 489 318 513 318 c 0,29,30
 539 318 539 318 572 293 c 0,31,32
 591 277 591 277 600 264 c 2,33,-1
 625 225 l 1,34,35
 648 177 648 177 648 141 c 0,36,37
 648 61 648 61 613 19.5 c 128,-1,38
 578 -22 578 -22 527 -22 c 0,39,40
 485 -22 485 -22 439 8 c 0,41,42
 420 21 420 21 396 56 c 1,43,-1
 393 63 l 1,44,45
 385 42 385 42 372 21 c 0,46,47
 346 -20 346 -20 301 -20 c 0,48,49
 270 -20 270 -20 243 0 c 0,50,51
 217 22 217 22 202 56 c 1,52,53
 192 24 192 24 165 0 c 0,54,55
 139 -20 139 -20 113 -20 c 0,56,57
 84 -20 84 -20 61 5 c 0,58,59
 39 29 39 29 39 78 c 0,60,61
 39 176 39 176 117 176 c 0,62,63
 146 176 146 176 167.5 160.5 c 128,-1,64
 189 145 189 145 211 114 c 0,65,66
 253 52 253 52 303 52 c 0,67,68
 332 52 332 52 350.5 77 c 128,-1,69
 369 102 369 102 369 143 c 0,70,71
 369 177 369 177 341 208 c 0,72,73
 312 238 312 238 272 238 c 0,74,75
 261 238 261 238 244 250 c 0,76,77
 233 260 233 260 233 277 c 0,78,79
 233 295 233 295 242 305 c 128,-1,80
 251 315 251 315 272 315 c 0,81,82
 313 315 313 315 357 258.5 c 128,-1,83
 401 202 401 202 401 143 c 1,84,-1
 397 92 l 1,13,-1
236 -101 m 2,85,86
 236 -114 236 -114 225.5 -124 c 128,-1,87
 215 -134 215 -134 201 -134 c 0,88,89
 165 -134 165 -134 165 -101 c 1,90,-1
 169 -74 l 1,91,-1
 181 -36 l 1,92,-1
 201 18 l 1,93,-1
 220 -36 l 1,94,-1
 230 -71 l 1,95,-1
 236 -101 l 2,85,86
296 427 m 1,96,-1
 198 334 l 2,97,98
 168 308 168 308 155 300 c 1,99,-1
 117 291 l 1,100,101
 77 291 77 291 46 315 c 128,-1,102
 15 339 15 339 15 373 c 0,103,104
 15 392 15 392 28 408 c 1,105,106
 45 419 45 419 64 419 c 0,107,108
 87 419 87 419 110 379 c 2,109,-1
 126 348 l 1,110,111
 140 335 140 335 146 335 c 2,112,-1
 152 336 l 1,113,-1
 162 342 l 1,114,-1
 181 361 l 1,115,-1
 261 464 l 1,116,-1
 296 427 l 1,96,-1
EndSplineSet
Substitution2: "Single Substitution lookup 23 subtable" U0C18_U0C4D_U0C30
Substitution2: "Single Substitution lookup 22 subtable" U0C18.haln
MultipleSubs2: "Multiple Substitution lookup 19 subtable" U0C18_U0C46 U0C56
EndChar

StartChar: U0C19
Encoding: 3097 3097 132
Width: 449
GlyphClass: 2
Flags: W
LayerCount: 2
Back
Fore
SplineSet
411 70 m 0,0,1
 411 29 411 29 385.5 4.5 c 128,-1,2
 360 -20 360 -20 319 -20 c 0,3,4
 285 -20 285 -20 253 4 c 0,5,6
 234 20 234 20 220 45 c 1,7,8
 201 13 201 13 178 -3.5 c 128,-1,9
 155 -20 155 -20 120 -20 c 0,10,11
 75 -20 75 -20 44 2 c 1,12,13
 15 28 15 28 15 66 c 0,14,15
 15 108 15 108 93 164.5 c 128,-1,16
 171 221 171 221 171 248 c 0,17,18
 171 267 171 267 154.5 280.5 c 128,-1,19
 138 294 138 294 113 294 c 0,20,21
 74 294 74 294 74 265 c 0,22,23
 74 249 74 249 85 233 c 1,24,25
 85 217 85 217 77 209 c 128,-1,26
 69 201 69 201 51 198 c 0,27,28
 15 198 15 198 15 238 c 0,29,30
 15 276 15 276 41 298.5 c 128,-1,31
 67 321 67 321 106 321 c 0,32,33
 161 321 161 321 189 283 c 1,34,-1
 198 263 l 2,35,36
 201 254 201 254 201 236 c 1,37,-1
 284 236 l 1,38,-1
 284 328 l 1,39,-1
 310 328 l 1,40,-1
 310 236 l 1,41,-1
 407 236 l 1,42,-1
 407 210 l 1,43,-1
 192 210 l 1,44,-1
 100 126 l 2,45,46
 68 97 68 97 68 82 c 0,47,48
 68 50 68 50 129 50 c 0,49,50
 167 50 167 50 187.5 69.5 c 128,-1,51
 208 89 208 89 208 111 c 1,52,-1
 231 111 l 1,53,54
 239 88 239 88 256.5 69 c 128,-1,55
 274 50 274 50 313 50 c 0,56,57
 338 50 338 50 356 69.5 c 128,-1,58
 374 89 374 89 374 131 c 1,59,-1
 396 131 l 1,60,61
 411 96 411 96 411 70 c 0,0,1
EndSplineSet
Substitution2: "Single Substitution lookup 23 subtable" U0C19_U0C4D_U0C30
Substitution2: "Single Substitution lookup 22 subtable" U0C19.haln
MultipleSubs2: "Multiple Substitution lookup 19 subtable" U0C19_U0C46 U0C56
EndChar

StartChar: U0C1A
Encoding: 3098 3098 133
Width: 498
GlyphClass: 2
Flags: W
LayerCount: 2
Back
Fore
SplineSet
306 329 m 1,0,-1
 325 321 l 2,1,2
 358 307 358 307 390 279.5 c 128,-1,3
 422 252 422 252 437.5 215 c 128,-1,4
 453 178 453 178 453 136 c 0,5,6
 453 51 453 51 429.5 15.5 c 128,-1,7
 406 -20 406 -20 355 -20 c 0,8,9
 296 -20 296 -20 262 36 c 1,10,11
 242 4 242 4 223 -8 c 0,12,13
 207 -20 207 -20 172 -20 c 0,14,15
 133 -20 133 -20 109 1 c 0,16,17
 86 25 86 25 86 61 c 0,18,19
 86 102 86 102 113 143 c 1,20,-1
 15 143 l 1,21,-1
 15 169 l 1,22,-1
 148 169 l 1,23,24
 126 125 126 125 126 96 c 0,25,26
 126 48 126 48 181 48 c 0,27,28
 209 48 209 48 221.5 59.5 c 128,-1,29
 234 71 234 71 252 107 c 1,30,-1
 270 107 l 1,31,32
 281 77 281 77 301 63 c 0,33,34
 323 48 323 48 350 48 c 0,35,36
 382 48 382 48 402.5 71 c 128,-1,37
 423 94 423 94 423 136 c 0,38,39
 423 204 423 204 376 251 c 128,-1,40
 329 298 329 298 263 310 c 0,41,42
 245 310 245 310 223.5 314 c 128,-1,43
 202 318 202 318 180 328 c 0,44,45
 125 353 125 353 125 382 c 0,46,47
 125 429 125 429 168 429 c 0,48,49
 193 429 193 429 224 401 c 1,50,-1
 258 360 l 2,51,52
 272 349 272 349 281 346 c 1,53,-1
 290 348 l 1,54,-1
 300 354 l 1,55,-1
 430 494 l 1,56,-1
 458 457 l 1,57,-1
 306 329 l 1,0,-1
EndSplineSet
Substitution2: "Single Substitution lookup 23 subtable" U0C1A_U0C4D_U0C30
Substitution2: "Single Substitution lookup 22 subtable" U0C1A.haln
MultipleSubs2: "Multiple Substitution lookup 19 subtable" U0C1A_U0C46 U0C56
EndChar

StartChar: U0C1B
Encoding: 3099 3099 134
Width: 498
GlyphClass: 2
Flags: W
LayerCount: 2
Back
Fore
SplineSet
306 329 m 1,0,-1
 325 321 l 2,1,2
 358 307 358 307 390 279.5 c 128,-1,3
 422 252 422 252 437.5 215 c 128,-1,4
 453 178 453 178 453 136 c 0,5,6
 453 51 453 51 429.5 15.5 c 128,-1,7
 406 -20 406 -20 355 -20 c 0,8,9
 296 -20 296 -20 262 36 c 1,10,11
 242 4 242 4 223 -8 c 0,12,13
 207 -20 207 -20 172 -20 c 0,14,15
 133 -20 133 -20 109 1 c 0,16,17
 86 25 86 25 86 61 c 0,18,19
 86 102 86 102 113 143 c 1,20,-1
 15 143 l 1,21,-1
 15 169 l 1,22,-1
 148 169 l 1,23,24
 126 125 126 125 126 96 c 0,25,26
 126 48 126 48 181 48 c 0,27,28
 209 48 209 48 221.5 59.5 c 128,-1,29
 234 71 234 71 252 107 c 1,30,-1
 270 107 l 1,31,32
 281 77 281 77 301 63 c 0,33,34
 323 48 323 48 350 48 c 0,35,36
 382 48 382 48 402.5 71 c 128,-1,37
 423 94 423 94 423 136 c 0,38,39
 423 204 423 204 376 251 c 128,-1,40
 329 298 329 298 263 310 c 0,41,42
 245 310 245 310 223.5 314 c 128,-1,43
 202 318 202 318 180 328 c 0,44,45
 125 353 125 353 125 382 c 0,46,47
 125 429 125 429 168 429 c 0,48,49
 193 429 193 429 224 401 c 1,50,-1
 258 360 l 2,51,52
 272 349 272 349 281 346 c 1,53,-1
 290 348 l 1,54,-1
 300 354 l 1,55,-1
 430 494 l 1,56,-1
 458 457 l 1,57,-1
 306 329 l 1,0,-1
298 -100 m 0,58,59
 298 -112 298 -112 287 -125 c 0,60,61
 279 -131 279 -131 262 -134 c 0,62,63
 252 -134 252 -134 240.5 -125 c 128,-1,64
 229 -116 229 -116 227 -101 c 2,65,-1
 230 -74 l 1,66,-1
 243 -36 l 1,67,-1
 262 18 l 1,68,-1
 281 -41 l 1,69,-1
 291 -67 l 2,70,71
 298 -87 298 -87 298 -100 c 0,58,59
EndSplineSet
Substitution2: "Single Substitution lookup 23 subtable" U0C1B_U0C4D_U0C30
Substitution2: "Single Substitution lookup 22 subtable" U0C1B.haln
MultipleSubs2: "Multiple Substitution lookup 19 subtable" U0C1B_U0C46 U0C56
EndChar

StartChar: U0C1C
Encoding: 3100 3100 135
Width: 448
GlyphClass: 2
Flags: W
LayerCount: 2
Back
Fore
SplineSet
409 70 m 1,0,1
 409 29 409 29 383.5 4.5 c 128,-1,2
 358 -20 358 -20 319 -20 c 0,3,4
 257 -20 257 -20 220 45 c 1,5,6
 202 14 202 14 176 -7 c 1,7,-1
 156 -17 l 1,8,-1
 120 -20 l 2,9,10
 77 -20 77 -20 46 3 c 128,-1,11
 15 26 15 26 15 66 c 0,12,13
 15 90 15 90 35 117 c 0,14,15
 48 128 48 128 98 163 c 0,16,17
 171 215 171 215 171 248 c 0,18,19
 171 267 171 267 154.5 280.5 c 128,-1,20
 138 294 138 294 113 294 c 0,21,22
 74 294 74 294 74 265 c 0,23,24
 74 249 74 249 85 233 c 1,25,26
 85 217 85 217 77 209 c 128,-1,27
 69 201 69 201 51 198 c 0,28,29
 15 198 15 198 15 238 c 0,30,31
 15 276 15 276 42 299 c 0,32,33
 68 321 68 321 106 321 c 0,34,35
 148 321 148 321 178 301 c 0,36,37
 185 297 185 297 192.5 290 c 128,-1,38
 200 283 200 283 210 269 c 0,39,40
 255 220 255 220 321 220 c 0,41,42
 374 220 374 220 374 253 c 0,43,44
 374 272 374 272 348.5 291 c 128,-1,45
 323 310 323 310 287 310 c 1,46,-1
 287 332 l 1,47,48
 341 332 341 332 375 306.5 c 128,-1,49
 409 281 409 281 409 245 c 256,50,51
 409 209 409 209 386.5 186.5 c 128,-1,52
 364 164 364 164 333 164 c 0,53,54
 268 164 268 164 199 258 c 1,55,-1
 201 238 l 2,56,57
 201 219 201 219 156 174 c 1,58,-1
 85 116 l 1,59,60
 68 96 68 96 68 82 c 0,61,62
 68 50 68 50 129 50 c 0,63,64
 167 50 167 50 187.5 69.5 c 128,-1,65
 208 89 208 89 208 111 c 1,66,-1
 231 111 l 1,67,68
 239 84 239 84 258 67 c 256,69,70
 277 50 277 50 313 50 c 0,71,72
 338 50 338 50 356 69.5 c 128,-1,73
 374 89 374 89 374 131 c 1,74,-1
 396 131 l 1,75,-1
 404 99 l 1,76,-1
 409 70 l 1,0,1
EndSplineSet
Substitution2: "Single Substitution lookup 23 subtable" U0C1C_U0C4D_U0C30
Substitution2: "Single Substitution lookup 22 subtable" U0C1C.haln
MultipleSubs2: "Multiple Substitution lookup 19 subtable" U0C1C_U0C46 U0C56
EndChar

StartChar: U0C1D
Encoding: 3101 3101 136
Width: 870
GlyphClass: 2
Flags: W
LayerCount: 2
Back
Fore
SplineSet
321 166 m 0,0,1
 321 215 321 215 287 247.5 c 128,-1,2
 253 280 253 280 189 280 c 256,3,4
 125 280 125 280 88.5 247.5 c 128,-1,5
 52 215 52 215 52 166 c 0,6,7
 52 121 52 121 86.5 90 c 128,-1,8
 121 59 121 59 187 59 c 0,9,10
 248 59 248 59 284.5 90.5 c 128,-1,11
 321 122 321 122 321 166 c 0,0,1
123 309 m 1,12,13
 95 311 95 311 65 327 c 0,14,15
 29 351 29 351 29 373 c 0,16,17
 29 419 29 419 82 419 c 0,18,19
 104 419 104 419 113.5 407.5 c 128,-1,20
 123 396 123 396 137 365 c 128,-1,21
 151 334 151 334 168 334 c 0,22,23
 177 334 177 334 197 352 c 2,24,-1
 296 452 l 1,25,-1
 330 421 l 1,26,-1
 216 329 l 1,27,-1
 199 318 l 1,28,29
 231 318 231 318 269.5 300 c 128,-1,30
 308 282 308 282 332 243.5 c 128,-1,31
 356 205 356 205 356 153 c 0,32,33
 356 135 356 135 356 120 c 0,34,35
 353 107 353 107 352 103 c 2,36,-1
 346 85 l 1,37,-1
 385 66 l 2,38,39
 419 52 419 52 457 52 c 0,40,41
 501 52 501 52 526 76.5 c 128,-1,42
 551 101 551 101 551 145 c 0,43,44
 551 191 551 191 519 218 c 1,45,46
 484 238 484 238 455 238 c 0,47,48
 436 238 436 238 423 248.5 c 128,-1,49
 410 259 410 259 405 281 c 0,50,51
 405 298 405 298 417 307 c 0,52,53
 430 318 430 318 455 318 c 0,54,55
 479 318 479 318 513 293 c 0,56,57
 548 263 548 263 565 225 c 0,58,59
 588 177 588 177 588 141 c 2,60,-1
 587 110 l 1,61,-1
 583 90 l 1,62,-1
 588 87 l 1,63,-1
 624 68 l 1,64,-1
 661 56 l 1,65,-1
 698 52 l 1,66,67
 750 52 750 52 775 77 c 128,-1,68
 800 102 800 102 800 145 c 0,69,70
 800 238 800 238 697 238 c 0,71,72
 675 238 675 238 663 249.5 c 128,-1,73
 651 261 651 261 648 281 c 0,74,75
 648 298 648 298 661 307 c 0,76,77
 673 318 673 318 697 318 c 0,78,79
 723 318 723 318 755 293 c 0,80,81
 775 277 775 277 784 264 c 2,82,-1
 807 225 l 2,83,84
 831 177 831 177 831 141 c 0,85,86
 831 61 831 61 796.5 19.5 c 128,-1,87
 762 -22 762 -22 709 -22 c 0,88,89
 667 -22 667 -22 623 8 c 0,90,91
 605 21 605 21 588 43 c 1,92,93
 613 -50 613 -50 660 -50 c 0,94,95
 676 -50 676 -50 686 -59 c 128,-1,96
 696 -68 696 -68 696 -81 c 256,97,98
 696 -94 696 -94 683.5 -102.5 c 128,-1,99
 671 -111 671 -111 651 -111 c 0,100,101
 611 -111 611 -111 590 -70 c 0,102,103
 582 -52 582 -52 573 -21 c 0,104,105
 569 -7 569 -7 566 7.5 c 128,-1,106
 563 22 563 22 563 35 c 1,107,108
 536 -22 536 -22 467 -22 c 0,109,110
 419 -22 419 -22 379 8 c 0,111,112
 353 25 353 25 332 57 c 1,113,114
 312 23 312 23 272.5 1.5 c 128,-1,115
 233 -20 233 -20 187 -20 c 256,116,117
 141 -20 141 -20 102 -0.5 c 128,-1,118
 63 19 63 19 39 59.5 c 128,-1,119
 15 100 15 100 15 153 c 0,120,121
 15 231 15 231 65 274 c 0,122,123
 93 297 93 297 123 309 c 1,12,13
EndSplineSet
Substitution2: "Single Substitution lookup 23 subtable" U0C1D_U0C4D_U0C30
Substitution2: "Single Substitution lookup 22 subtable" U0C1D.haln
MultipleSubs2: "Multiple Substitution lookup 19 subtable" U0C1D_U0C46 U0C56
EndChar

StartChar: U0C1E
Encoding: 3102 3102 137
Width: 632
GlyphClass: 2
Flags: W
LayerCount: 2
Back
Fore
SplineSet
593 163 m 1,0,-1
 364 163 l 1,1,2
 364 97 364 97 321 40 c 1,3,-1
 330 15 l 1,4,-1
 338 -6 l 1,5,-1
 350 -62 l 1,6,-1
 353 -120 l 2,7,8
 353 -135 353 -135 344 -145 c 128,-1,9
 335 -155 335 -155 314 -155 c 0,10,11
 295 -155 295 -155 285 -146 c 0,12,13
 272 -139 272 -139 272 -123 c 0,14,15
 272 -117 272 -117 274 -108.5 c 128,-1,16
 276 -100 276 -100 285 -76 c 2,17,-1
 294 -41 l 1,18,-1
 297 -12 l 1,19,-1
 294 14 l 1,20,21
 246 -20 246 -20 164 -20 c 0,22,23
 114 -20 114 -20 76 4 c 1,24,25
 47 28 47 28 47 62 c 0,26,27
 47 95 47 95 76 120 c 1,28,29
 111 142 111 142 166 142 c 0,30,31
 202 142 202 142 229.5 131.5 c 128,-1,32
 257 121 257 121 280 97 c 2,33,-1
 295 79 l 1,34,35
 335 113 335 113 335 165 c 0,36,37
 335 218 335 218 317 237 c 128,-1,38
 299 256 299 256 264 256 c 0,39,40
 237 256 237 256 218 239.5 c 128,-1,41
 199 223 199 223 199 193 c 1,42,-1
 176 193 l 1,43,44
 176 223 176 223 156 240 c 1,45,-1
 140 249 l 2,46,47
 123 256 123 256 104 256 c 0,48,49
 78 256 78 256 57.5 239.5 c 128,-1,50
 37 223 37 223 37 198 c 1,51,-1
 15 198 l 1,52,53
 15 255 15 255 43 289 c 128,-1,54
 71 323 71 323 109 323 c 0,55,56
 134 323 134 323 153 311 c 128,-1,57
 172 299 172 299 187 278 c 1,58,59
 221 324 221 324 269 324 c 0,60,61
 295 324 295 324 317 307 c 0,62,63
 339 295 339 295 352 261 c 2,64,-1
 361 227 l 1,65,-1
 364 186 l 1,66,-1
 465 186 l 1,67,-1
 465 323 l 1,68,-1
 493 323 l 1,69,-1
 493 186 l 1,70,-1
 593 186 l 1,71,-1
 593 163 l 1,0,-1
272 63 m 1,72,-1
 261 76 l 2,73,74
 245 95 245 95 214 109 c 1,75,-1
 187 117 l 1,76,-1
 157 121 l 2,77,78
 133 121 133 121 110 111 c 0,79,80
 94 100 94 100 93 81 c 0,81,82
 93 41 93 41 183 41 c 0,83,84
 232 41 232 41 272 63 c 1,72,-1
EndSplineSet
Substitution2: "Single Substitution lookup 23 subtable" U0C1E_U0C4D_U0C30
Substitution2: "Single Substitution lookup 22 subtable" U0C1E.haln
MultipleSubs2: "Multiple Substitution lookup 19 subtable" U0C1E_U0C46 U0C56
EndChar

StartChar: U0C1F
Encoding: 3103 3103 138
Width: 541
GlyphClass: 2
Flags: W
LayerCount: 2
Back
Fore
SplineSet
503 152 m 0,0,1
 503 73 503 73 469 26.5 c 128,-1,2
 435 -20 435 -20 378 -20 c 0,3,4
 346 -20 346 -20 313.5 0.5 c 128,-1,5
 281 21 281 21 259 62 c 1,6,7
 247 24 247 24 212.5 2 c 128,-1,8
 178 -20 178 -20 147 -20 c 0,9,10
 93 -20 93 -20 54 30.5 c 128,-1,11
 15 81 15 81 15 168 c 0,12,13
 15 214 15 214 33 248 c 0,14,15
 64 316 64 316 123 316 c 1,16,-1
 100 392 l 1,17,18
 100 409 100 409 108 417 c 128,-1,19
 116 425 116 425 133 428 c 0,20,21
 145 428 145 428 153 420.5 c 128,-1,22
 161 413 161 413 165 392 c 1,23,-1
 143 316 l 1,24,25
 168 313 168 313 187.5 290.5 c 128,-1,26
 207 268 207 268 207 236 c 0,27,28
 207 205 207 205 186.5 182.5 c 128,-1,29
 166 160 166 160 134 160 c 0,30,31
 103 160 103 160 81.5 181.5 c 128,-1,32
 60 203 60 203 60 235 c 1,33,-1
 47 206 l 2,34,35
 43 189 43 189 43 158 c 0,36,37
 43 113 43 113 72.5 81.5 c 128,-1,38
 102 50 102 50 148 50 c 0,39,40
 191 50 191 50 211 66.5 c 128,-1,41
 231 83 231 83 247 129 c 1,42,-1
 273 129 l 1,43,44
 287 90 287 90 312 70 c 128,-1,45
 337 50 337 50 382 50 c 0,46,47
 422 50 422 50 447 77 c 128,-1,48
 472 104 472 104 472 150 c 0,49,50
 472 185 472 185 453 210 c 0,51,52
 436 235 436 235 407.5 241 c 128,-1,53
 379 247 379 247 367 257.5 c 128,-1,54
 355 268 355 268 353 282 c 0,55,56
 353 315 353 315 401 315 c 0,57,58
 437 315 437 315 470 265 c 128,-1,59
 503 215 503 215 503 152 c 0,0,1
177 237 m 0,60,61
 177 259 177 259 165 272 c 0,62,63
 155 286 155 286 131 286 c 0,64,65
 114 286 114 286 102 271 c 0,66,67
 92 258 92 258 88 237 c 0,68,69
 88 216 88 216 100.5 201.5 c 128,-1,70
 113 187 113 187 131 187 c 0,71,72
 151 187 151 187 164 201.5 c 128,-1,73
 177 216 177 216 177 237 c 0,60,61
EndSplineSet
Substitution2: "Single Substitution lookup 23 subtable" U0C1F_U0C4D_U0C30
Substitution2: "Single Substitution lookup 22 subtable" U0C1F.haln
MultipleSubs2: "Multiple Substitution lookup 19 subtable" U0C1F_U0C46 U0C56
EndChar

StartChar: U0C20
Encoding: 3104 3104 139
Width: 397
GlyphClass: 2
Flags: W
LayerCount: 2
Back
Fore
SplineSet
223 178 m 0,0,1
 223 144 223 144 187 144 c 0,2,3
 172 144 172 144 159 154 c 0,4,5
 149 164 149 164 149 178 c 256,6,7
 149 192 149 192 158 203 c 1,8,9
 169 210 169 210 187 213 c 0,10,11
 223 213 223 213 223 178 c 0,0,1
321 166 m 0,12,13
 321 215 321 215 287 247.5 c 128,-1,14
 253 280 253 280 189 280 c 256,15,16
 125 280 125 280 88.5 247.5 c 128,-1,17
 52 215 52 215 52 166 c 0,18,19
 52 121 52 121 86.5 90 c 128,-1,20
 121 59 121 59 187 59 c 0,21,22
 248 59 248 59 284.5 90.5 c 128,-1,23
 321 122 321 122 321 166 c 0,12,13
202 318 m 1,24,25
 240 314 240 314 269 301 c 0,26,27
 308 282 308 282 332 243.5 c 128,-1,28
 356 205 356 205 356 153 c 0,29,30
 359 105 359 105 335.5 63.5 c 128,-1,31
 312 22 312 22 272.5 1 c 128,-1,32
 233 -20 233 -20 187 -20 c 256,33,34
 141 -20 141 -20 102 -0.5 c 128,-1,35
 63 19 63 19 39 59.5 c 128,-1,36
 15 100 15 100 15 153 c 0,37,38
 15 231 15 231 66 275 c 0,39,40
 92 296 92 296 113 305 c 1,41,42
 135 305 135 305 111 309 c 0,43,44
 92 314 92 314 73 324 c 0,45,46
 38 349 38 349 38 371 c 0,47,48
 38 417 38 417 90 417 c 0,49,50
 110 417 110 417 120.5 405 c 128,-1,51
 131 393 131 393 145.5 362 c 128,-1,52
 160 331 160 331 176 331 c 0,53,54
 187 331 187 331 204 350 c 2,55,-1
 304 450 l 1,56,-1
 340 419 l 1,57,-1
 223 325 l 2,58,59
 217 322 217 322 202 318 c 1,24,25
EndSplineSet
Substitution2: "Single Substitution lookup 23 subtable" U0C20_U0C4D_U0C30
Substitution2: "Single Substitution lookup 22 subtable" U0C20.haln
MultipleSubs2: "Multiple Substitution lookup 19 subtable" U0C20_U0C46 U0C56
EndChar

StartChar: U0C21
Encoding: 3105 3105 140
Width: 480
GlyphClass: 2
Flags: W
LayerCount: 2
Back
Fore
SplineSet
441 82 m 0,0,1
 441 31 441 31 411.5 5.5 c 128,-1,2
 382 -20 382 -20 333 -20 c 0,3,4
 267 -20 267 -20 216 44 c 1,5,-1
 205 30 l 1,6,-1
 189 10 l 1,7,8
 159 -20 159 -20 120 -20 c 0,9,10
 74 -20 74 -20 48 1 c 0,11,12
 15 31 15 31 15 106 c 0,13,14
 15 186 15 186 54.5 239 c 128,-1,15
 94 292 94 292 177 310 c 1,16,-1
 152 319 l 1,17,-1
 138 324 l 1,18,-1
 117 336 l 1,19,-1
 93 359 l 2,20,21
 85 368 85 368 85 379 c 0,22,23
 85 424 85 424 133 424 c 0,24,25
 150 424 150 424 164 413 c 128,-1,26
 178 402 178 402 192.5 369.5 c 128,-1,27
 207 337 207 337 222 337 c 0,28,29
 230 337 230 337 232 339 c 2,30,-1
 252 356 l 1,31,-1
 373 466 l 1,32,-1
 422 431 l 1,33,-1
 236 315 l 1,34,35
 304 315 304 315 333 306 c 0,36,37
 366 299 366 299 407 269 c 1,38,-1
 384 241 l 1,39,-1
 327 273 l 2,40,41
 292 290 292 290 234 290 c 0,42,43
 157 290 157 290 107 244.5 c 128,-1,44
 57 199 57 199 57 136 c 0,45,46
 57 102 57 102 75 78.5 c 128,-1,47
 93 55 93 55 129 55 c 0,48,49
 177 55 177 55 202 104 c 1,50,-1
 231 104 l 1,51,52
 250 55 250 55 302 55 c 1,53,-1
 295 75 l 1,54,-1
 295 95 l 2,55,56
 295 120 295 120 314 134 c 0,57,58
 340 151 340 151 366 151 c 0,59,60
 395 151 395 151 418 133.5 c 128,-1,61
 441 116 441 116 441 82 c 0,0,1
413 88 m 1,62,63
 413 123 413 123 368 123 c 0,64,65
 348 123 348 123 337 114 c 0,66,67
 326 107 326 107 323 88 c 0,68,69
 323 74 323 74 336.5 63 c 128,-1,70
 350 52 350 52 368 52 c 256,71,72
 386 52 386 52 397.5 62 c 128,-1,73
 409 72 409 72 413 88 c 1,62,63
EndSplineSet
Substitution2: "Single Substitution lookup 23 subtable" U0C21_U0C4D_U0C30
Substitution2: "Single Substitution lookup 22 subtable" U0C21.haln
MultipleSubs2: "Multiple Substitution lookup 19 subtable" U0C21_U0C46 U0C56
EndChar

StartChar: U0C22
Encoding: 3106 3106 141
Width: 480
GlyphClass: 2
Flags: W
LayerCount: 2
Back
Fore
SplineSet
441 82 m 0,0,1
 441 31 441 31 411.5 5.5 c 128,-1,2
 382 -20 382 -20 333 -20 c 0,3,4
 267 -20 267 -20 216 44 c 1,5,6
 211 38 211 38 203 26.5 c 128,-1,7
 195 15 195 15 189 10 c 0,8,9
 159 -20 159 -20 120 -20 c 0,10,11
 74 -20 74 -20 48 1 c 0,12,13
 15 31 15 31 15 106 c 0,14,15
 15 186 15 186 54.5 239 c 128,-1,16
 94 292 94 292 177 310 c 1,17,-1
 152 319 l 1,18,-1
 138 324 l 1,19,-1
 117 336 l 1,20,-1
 93 359 l 2,21,22
 85 368 85 368 85 379 c 0,23,24
 85 424 85 424 133 424 c 0,25,26
 150 424 150 424 164 413 c 128,-1,27
 178 402 178 402 192.5 369.5 c 128,-1,28
 207 337 207 337 222 337 c 0,29,30
 230 337 230 337 232 339 c 2,31,-1
 252 356 l 1,32,-1
 373 466 l 1,33,-1
 422 431 l 1,34,-1
 236 315 l 1,35,36
 304 315 304 315 333 306 c 0,37,38
 366 299 366 299 407 269 c 1,39,-1
 384 241 l 1,40,-1
 327 273 l 2,41,42
 292 290 292 290 234 290 c 0,43,44
 157 290 157 290 107 244.5 c 128,-1,45
 57 199 57 199 57 136 c 0,46,47
 57 102 57 102 75 78.5 c 128,-1,48
 93 55 93 55 129 55 c 0,49,50
 177 55 177 55 202 104 c 1,51,-1
 231 104 l 1,52,53
 250 55 250 55 302 55 c 1,54,-1
 295 76 l 1,55,56
 290 116 290 116 314 134 c 0,57,58
 340 151 340 151 366 151 c 0,59,60
 395 151 395 151 418 133.5 c 128,-1,61
 441 116 441 116 441 82 c 0,0,1
413 88 m 1,62,63
 413 123 413 123 368 123 c 0,64,65
 348 123 348 123 337 114 c 0,66,67
 326 107 326 107 323 88 c 0,68,69
 323 74 323 74 336.5 63 c 128,-1,70
 350 52 350 52 368 52 c 256,71,72
 386 52 386 52 397.5 62 c 128,-1,73
 409 72 409 72 413 88 c 1,62,63
250 -92 m 0,74,75
 250 -106 250 -106 240 -115 c 0,76,77
 232 -125 232 -125 216 -125 c 0,78,79
 201 -125 201 -125 192 -117.5 c 128,-1,80
 183 -110 183 -110 180 -92 c 0,81,82
 180 -74 180 -74 185 -61 c 2,83,-1
 199 -22 l 1,84,-1
 214 27 l 1,85,-1
 233 -32 l 2,86,87
 247 -71 247 -71 250 -92 c 0,74,75
EndSplineSet
Substitution2: "Single Substitution lookup 23 subtable" U0C22_U0C4D_U0C30
Substitution2: "Single Substitution lookup 22 subtable" U0C22.haln
MultipleSubs2: "Multiple Substitution lookup 19 subtable" U0C22_U0C46 U0C56
EndChar

